<?xml version="1.0" encoding="UTF-8" standalone="no"?>
<!DOCTYPE svg PUBLIC "-//W3C//DTD SVG 1.1//EN" "http://www.w3.org/Graphics/SVG/1.1/DTD/svg11.dtd">
<svg width="100%" height="100%" viewBox="0 0 2481 2481" version="1.1" xmlns="http://www.w3.org/2000/svg" xmlns:xlink="http://www.w3.org/1999/xlink" xml:space="preserve" xmlns:serif="http://www.serif.com/" style="fill-rule:evenodd;clip-rule:evenodd;stroke-linecap:round;stroke-linejoin:round;stroke-miterlimit:1.5;">
    <g transform="matrix(1,0,0,1,-3388.4,0)">
        <g id="Logo-round" serif:id="Logo round" transform="matrix(1,0,0,1,-11329.3,-16.6449)">
            <rect x="14717.7" y="16.645" width="2480.27" height="2480.85" style="fill:none;"/>
            <g transform="matrix(0.852533,0,0,0.852533,4467.64,218.676)">
                <circle cx="13478.7" cy="1263.42" r="1240.16" style="fill:rgb(37,37,37);"/>
            </g>
            <g transform="matrix(1.1972,0,0,1.1972,-3146.2,-208.99)">
                <g transform="matrix(-1.85181,-0.303176,-0.085077,1.61742,16887.5,925.11)">
                    <path d="M164.124,211.771L139.129,129.257C139.129,129.257 131.234,132.262 124.224,134.93C115.272,138.336 109.195,147.384 108.389,158.509C107.918,165.399 108.481,173.798 111.507,183.225C114.228,191.702 118.015,198.462 121.894,203.728C129.415,213.877 140.964,218.505 151.275,215.503C157.693,213.644 164.124,211.771 164.124,211.771Z" style="fill:url(#_Linear1);"/>
                </g>
                <g transform="matrix(-3.28556,-0.537907,-0.150947,2.86969,17003.5,698.506)">
                    <path d="M196.551,202.329L168.313,118.15C168.313,118.15 132.362,131.833 118.741,137.017C115.096,138.403 112.291,141.572 111.009,145.751C108.664,153.559 106.284,167.364 111.507,183.225C116.716,199.042 125.509,208.898 131.644,214.216C135.516,217.499 140.289,218.686 144.583,217.436C159.469,213.127 196.551,202.329 196.551,202.329Z" style="fill:url(#_Linear2);"/>
                </g>
                <g transform="matrix(-3.28556,-0.537907,-0.150947,2.86969,17003.5,698.506)">
                    <path d="M120.847,202.113C124.581,207.494 128.469,211.463 131.644,214.216C135.516,217.499 140.289,218.686 144.583,217.436C159.469,213.127 196.551,202.329 196.551,202.329L188.617,178.677L120.847,202.113Z" style="fill:rgb(156,161,164);"/>
                </g>
                <g transform="matrix(-5.34638,-0.875302,-0.245627,4.66967,16974.8,278.109)">
                    <path d="M113.152,140.85C113.152,140.85 103.691,144.809 98.464,146.997C96.036,148.013 94.229,150.259 93.514,153.151C91.974,159.382 90.596,171.54 96.213,188.36C101.794,205.07 110.079,214.87 115.168,219.666C117.725,222.057 121.016,222.912 123.914,221.939C128.964,220.246 136.737,217.636 136.737,217.636L113.152,140.85Z" style="fill:url(#_Linear3);"/>
                </g>
                <g transform="matrix(-5.34638,-0.875302,-0.245627,4.66967,16974.8,278.109)">
                    <path d="M231.698,94.027C231.698,94.027 134.979,130.836 116.592,137.834C114.542,138.614 112.917,140.315 112.052,142.586C109.575,149.365 105.481,164.927 111.507,183.225C117.651,201.88 128.781,212.243 134.653,216.649C136.932,218.333 139.618,218.89 142.044,218.184C161.942,212.407 259.217,184.08 259.217,184.08L231.698,94.027Z" style="fill:url(#_Linear4);"/>
                </g>
                <g transform="matrix(-5.34638,-0.875302,-0.245627,4.66967,16974.8,278.109)">
                    <path d="M123.819,206.082C127.885,211.116 131.863,214.555 134.653,216.649C136.932,218.333 139.618,218.89 142.044,218.184C161.942,212.407 259.217,184.08 259.217,184.08L252.493,162.077L123.819,206.082Z" style="fill:rgb(156,161,164);"/>
                </g>
                <g transform="matrix(1.85486,-1.00343e-16,-3.08897e-16,1.85486,10458,-138.547)">
                    <path d="M2896.96,433.197L3081.45,522.081" style="fill:none;stroke:white;stroke-width:41.67px;"/>
                </g>
                <g transform="matrix(-5.34638,-0.875302,-0.245627,4.66967,17000.2,292.223)">
                    <path d="M300.584,60.307L234.634,85.941C234.634,85.941 221.441,114.376 233.022,145.422C244.973,177.462 264.537,187.845 265.503,188.063C266.468,188.28 333.191,169.244 333.191,169.244L300.584,60.307Z" style="fill:rgb(38,38,38);"/>
                </g>
                <g transform="matrix(-5.34638,-0.875302,-0.245627,4.66967,16974.8,278.109)">
                    <path d="M302.382,59.27C302.382,59.27 248.391,80.525 237.911,84.651C235.723,85.512 234.001,87.357 233.099,89.805C230.019,98.612 223.996,121.224 233.022,145.422C242.31,170.322 255.897,182.13 262.177,186.268C263.977,187.454 264.973,188.007 266.718,187.824C276.362,185.378 338.238,169.101 338.238,169.101L302.382,59.27Z" style="fill:url(#_Linear5);"/>
                </g>
                <g transform="matrix(-5.83393,-2.68664,-2.3828,5.16728,17424.4,762.308)">
                    <ellipse cx="324.869" cy="124.092" rx="21.046" ry="46.502" style="fill:rgb(209,216,219);"/>
                </g>
                <g transform="matrix(-4.27144,-1.96709,-1.74462,3.78334,16845.2,702.071)">
                    <ellipse cx="324.869" cy="124.092" rx="21.046" ry="46.502" style="fill:rgb(32,36,38);"/>
                </g>
                <g transform="matrix(1.54125,0.136406,0.0610595,1.36243,13488,-975.225)">
                    <path d="M1178.04,941.448C1178.04,941.448 1136.95,924.681 1097.67,1011.48C1059.92,1094.91 1091.83,1114.7 1093.59,1113.4C1111.89,1099.98 1167.61,1030.64 1178.04,941.448Z" style="fill:white;"/>
                </g>
                <g transform="matrix(1.85486,0,0,1.85486,8387.64,-1407.97)">
                    <path d="M3761.47,1094.21C3755.21,1091.24 3747.72,1093.63 3744.33,1099.67C3735.84,1114.12 3718.14,1140.28 3692.33,1160.59C3692.34,1160.58 3838.31,1222.78 3870.16,1236.35C3874.22,1238.08 3878.88,1237.62 3882.52,1235.12C3890.89,1229.22 3906.95,1215.53 3926.04,1187.1C3927.92,1184.32 3928.59,1180.9 3927.91,1177.61C3927.22,1174.32 3925.23,1171.45 3922.39,1169.66C3889.47,1154.04 3794.15,1109.48 3761.47,1094.21Z" style="fill:rgb(45,51,58);"/>
                </g>
                <g transform="matrix(1.70779,0,0,1.70779,-8953.68,-9590.4)">
                    <path d="M14303.1,6783.82C14325.5,6738.29 14345.5,6697.49 14345.8,6696.8C14342,6682.55 14345.7,6677.89 14345.7,6677.89L14450.9,6462.49C14451.5,6461.19 14454,6456.12 14454,6456.12L14454,6456.12L14454,6456.12L14435.9,6456.12C14430.7,6456.12 14426.6,6451.95 14426.6,6446.82L14426.6,6428.23C14426.6,6423.1 14430.7,6418.94 14435.9,6418.94L14538.4,6418.94L14538.4,6383.04L14538.4,6383.04L14538.4,6373.71C14517.3,6373.68 14511.7,6373.66 14511.1,6373.66L14519.9,6332.05C14519.9,6324.56 14526,6318.49 14533.5,6318.49L14640.2,6318.49C14647.7,6318.49 14653.8,6324.56 14653.8,6332.05L14663.1,6373.88C14662.6,6373.88 14657.1,6373.85 14636.2,6373.82L14636.2,6373.83L14636.8,6373.83L14637.2,6418.86L14636.2,6418.87L14636.2,6418.94L14738.6,6418.94C14743.8,6418.94 14748,6423.1 14748,6428.23L14748,6446.82C14748,6451.95 14743.8,6456.12 14738.6,6456.12L14716.6,6456.14L14825.4,6678.79C14825.4,6678.79 14829.4,6683.48 14825.2,6697.7C14825.6,6698.39 14845.9,6739.75 14868.4,6785.57C14859.7,6791.18 14850.9,6796.55 14841.9,6801.65L14798.1,6712.85C14798.1,6712.85 14786.2,6708.98 14783.3,6702.44C14781.9,6699.44 14668.5,6468.23 14662.6,6456.2L14616.8,6456.25C14616.8,6456.25 14616.8,6496.8 14616.6,6496.78C14616.7,6577.95 14616.8,6752.2 14616.6,6753.69C14615.8,6759.36 14603.7,6762.69 14603.7,6762.69C14603.7,6762.69 14603.7,6762.69 14603.6,6762.7L14603.6,6868.53C14598.1,6868.7 14592.6,6868.79 14587.1,6868.79C14581.9,6868.79 14576.8,6868.71 14571.7,6868.56L14571.7,6762.56C14566.7,6760.99 14558.7,6756.36 14558.7,6750.89L14558.7,6494.7C14558.6,6494.71 14558.5,6494.71 14558.4,6494.72C14558.6,6494.13 14558.6,6456.16 14558.6,6456.16L14558.7,6456.16L14558.7,6456.12L14508,6456.12L14508,6456.19L14508,6456.19L14498.7,6475.2C14470.4,6532.91 14389,6699.02 14387.8,6701.56C14384.9,6708.1 14373,6711.97 14373,6711.97L14329.5,6800.08C14320.5,6794.91 14311.7,6789.49 14303.1,6783.82Z" style="fill:rgb(158,181,195);"/>
                </g>
                <g transform="matrix(1.70905,0,0,1.7089,14344.5,-1111.46)">
                    <path d="M811.016,1490.29L865.063,1490.35L845.409,1530.34C845.409,1530.34 842.141,1503.09 807.866,1496.9C808.106,1496.31 811.016,1490.29 811.016,1490.29Z" style="fill:rgb(86,122,142);"/>
                </g>
                <g transform="matrix(-5.06524,0,0,5.06524,16943.1,44.4476)">
                    <path d="M108.572,391.082L123.356,361.144C123.356,361.144 127.362,359.837 128.355,357.633C128.81,356.622 167.03,278.668 169.021,274.613L184.468,274.629C184.468,274.629 184.491,288.3 184.532,288.294C184.517,315.663 184.49,374.41 184.541,374.913C184.828,376.825 188.896,377.947 188.896,377.947C188.896,377.947 190.06,378.221 191.906,378.252C191.99,326.131 192.098,300.709 192.184,287.641C195.37,287.488 199.435,287.417 204.175,287.599C204.094,287.401 204.104,274.599 204.104,274.599L198.704,274.606L198.704,263.121L198.704,260.603C199.758,250.873 210.916,250.135 210.916,250.135L210.923,246.788L198.704,246.807L198.704,228.221L209.175,228.221L209.175,213.454C210.802,212.216 212.47,210.329 213.846,208.24C216.212,204.647 215.192,197.469 215.129,196.945C206.095,196.905 203.429,194.985 200.887,192.615C198.345,190.244 196.027,187.771 188.987,187.658C182.111,187.171 177.746,190.099 175.216,192.817C174.973,193.026 174.746,193.231 174.537,193.428C172.355,195.478 171.099,198.429 171.19,202.803C171.306,208.352 173.824,211.753 176.603,213.779C177.421,214.413 178.308,214.928 179.24,215.308C179.427,215.392 179.613,215.472 179.795,215.546L179.885,227.202L179.898,228.182L176.602,228.182C174.069,228.182 172.012,230.23 172.012,232.753L168.85,246.856C169.051,246.856 170.898,246.848 177.945,246.838L177.945,246.84L177.742,246.84L177.594,262.023L177.945,262.027L177.945,262.048L143.403,262.048C141.666,262.048 140.256,263.453 140.256,265.182L140.256,271.451C140.256,273.18 141.666,274.585 143.403,274.585L150.815,274.593L114.156,349.66C114.156,349.66 112.801,351.241 114.197,356.036C114.08,356.269 107.24,370.212 99.661,385.662C102.573,387.555 105.544,389.362 108.572,391.082Z" style="fill:rgb(86,122,142);"/>
                </g>
                <g transform="matrix(1.70779,0,0,1.70779,7271.06,-3644.51)">
                    <path d="M5144.2,2732.48C5133.84,2723.42 5112.68,2711.12 5085.23,2728.91C5056.24,2747.69 5067.78,2781.92 5069.74,2785.66C5071.48,2788.99 5075.99,2796.46 5083.53,2799.24C5067.92,2798.58 5053.17,2797.91 5052.97,2797.73C5045.85,2797.35 5036.27,2788.47 5029.25,2777.82C5022.24,2767.16 5025.26,2745.87 5025.45,2744.31C5052.24,2744.2 5060.15,2738.5 5067.69,2731.47C5075.23,2724.44 5082.1,2717.1 5102.98,2716.77C5123.72,2715.3 5136.76,2724.3 5144.2,2732.48Z" style="fill:rgb(54,80,97);"/>
                </g>
                <g transform="matrix(1.70779,0,0,1.70779,14345,-1109.95)">
                    <path d="M988.067,1315.29L987.799,1352.74L953.098,1352.66L953.098,1316.59C961.188,1317.29 972.38,1318.23 976.391,1318.18C978.414,1318.16 982.895,1317.41 988.067,1315.29Z" style="fill:rgb(54,80,97);"/>
                </g>
                <g transform="matrix(2.08872,0.50045,-0.534983,2.23285,9304.71,-7193.63)">
                    <ellipse cx="3937.37" cy="2822.13" rx="25.282" ry="26.635" style="fill:rgb(54,80,97);"/>
                </g>
            </g>
        </g>
    </g>
    <defs>
        <linearGradient id="_Linear1" x1="0" y1="0" x2="1" y2="0" gradientUnits="userSpaceOnUse" gradientTransform="matrix(-24.5512,-75.8176,-63.1326,20.2633,248.063,176.864)"><stop offset="0" style="stop-color:rgb(81,87,89);stop-opacity:1"/><stop offset="1" style="stop-color:rgb(162,165,170);stop-opacity:1"/></linearGradient>
        <linearGradient id="_Linear2" x1="0" y1="0" x2="1" y2="0" gradientUnits="userSpaceOnUse" gradientTransform="matrix(-24.2539,-76.3269,-63.6077,19.8606,164.231,206.866)"><stop offset="0" style="stop-color:rgb(154,160,162);stop-opacity:1"/><stop offset="0.56" style="stop-color:rgb(207,212,213);stop-opacity:1"/><stop offset="1" style="stop-color:rgb(230,234,235);stop-opacity:1"/></linearGradient>
        <linearGradient id="_Linear3" x1="0" y1="0" x2="1" y2="0" gradientUnits="userSpaceOnUse" gradientTransform="matrix(-19.7971,-58.8127,-48.8899,16.5955,119.527,215.187)"><stop offset="0" style="stop-color:rgb(81,87,89);stop-opacity:1"/><stop offset="1" style="stop-color:rgb(162,165,170);stop-opacity:1"/></linearGradient>
        <linearGradient id="_Linear4" x1="0" y1="0" x2="1" y2="0" gradientUnits="userSpaceOnUse" gradientTransform="matrix(-24.2539,-76.3269,-63.6077,19.8606,164.231,206.866)"><stop offset="0" style="stop-color:rgb(154,160,162);stop-opacity:1"/><stop offset="0.56" style="stop-color:rgb(207,212,213);stop-opacity:1"/><stop offset="1" style="stop-color:rgb(230,234,235);stop-opacity:1"/></linearGradient>
        <linearGradient id="_Linear5" x1="0" y1="0" x2="1" y2="0" gradientUnits="userSpaceOnUse" gradientTransform="matrix(-29.4826,-92.5296,-77.1014,24.17,289.286,177.588)"><stop offset="0" style="stop-color:rgb(81,87,89);stop-opacity:1"/><stop offset="1" style="stop-color:rgb(162,165,170);stop-opacity:1"/></linearGradient>
    </defs>
</svg>
