<?xml version="1.0" encoding="UTF-8" standalone="no"?>
<!DOCTYPE svg PUBLIC "-//W3C//DTD SVG 1.1//EN" "http://www.w3.org/Graphics/SVG/1.1/DTD/svg11.dtd">
<svg width="100%" height="100%" viewBox="0 0 2481 2481" version="1.1" xmlns="http://www.w3.org/2000/svg" xmlns:xlink="http://www.w3.org/1999/xlink" xml:space="preserve" xmlns:serif="http://www.serif.com/" style="fill-rule:evenodd;clip-rule:evenodd;stroke-linecap:round;stroke-linejoin:round;stroke-miterlimit:1.5;">
    <g transform="matrix(1,0,0,1,-5857.95,-3199.15)">
        <g id="ICONS" transform="matrix(1,0,0,1,-6378.39,3182.81)">
            <rect x="12236.3" y="16.332" width="2480.34" height="2480.7" style="fill:none;"/>
            <clipPath id="_clip1">
                <rect x="12236.3" y="16.332" width="2480.34" height="2480.7"/>
            </clipPath>
            <g clip-path="url(#_clip1)">
                <g transform="matrix(1.03136,0,0,1.02766,-421.058,-34.576)">
                    <rect x="12239.3" y="16.724" width="2472.76" height="2482.77" style="fill:rgb(23,23,23);"/>
                </g>
                <g id="TELESCOPE" transform="matrix(0.557128,0,0,0.557128,6593.47,1105.8)">
                    <g transform="matrix(-2.04241,-0.334381,-0.0938338,1.7839,14592.1,1015.05)">
                        <path d="M164.124,211.771L139.129,129.257C139.129,129.257 131.234,132.262 124.224,134.93C115.272,138.336 109.195,147.384 108.389,158.509C107.918,165.399 108.481,173.798 111.507,183.225C114.228,191.702 118.015,198.462 121.894,203.728C129.415,213.877 140.964,218.505 151.275,215.503C157.693,213.644 164.124,211.771 164.124,211.771Z" style="fill:url(#_Linear2);"/>
                    </g>
                    <g transform="matrix(-3.62373,-0.593272,-0.166484,3.16506,14720.1,765.118)">
                        <path d="M196.551,202.329L168.313,118.15C168.313,118.15 132.362,131.833 118.741,137.017C115.096,138.403 112.291,141.572 111.009,145.751C108.664,153.559 106.284,167.364 111.507,183.225C116.716,199.042 125.509,208.898 131.644,214.216C135.516,217.499 140.289,218.686 144.583,217.436C159.469,213.127 196.551,202.329 196.551,202.329Z" style="fill:url(#_Linear3);"/>
                    </g>
                    <g transform="matrix(-3.62373,-0.593272,-0.166484,3.16506,14720.1,765.118)">
                        <path d="M120.847,202.113C124.581,207.494 128.469,211.463 131.644,214.216C135.516,217.499 140.289,218.686 144.583,217.436C159.469,213.127 196.551,202.329 196.551,202.329L188.617,178.677L120.847,202.113Z" style="fill:rgb(156,161,164);"/>
                    </g>
                    <g transform="matrix(-5.89667,-0.965395,-0.270909,5.15031,14688.5,301.451)">
                        <path d="M113.152,140.85C113.152,140.85 103.691,144.809 98.464,146.997C96.036,148.013 94.229,150.259 93.514,153.151C91.974,159.382 90.596,171.54 96.213,188.36C101.794,205.07 110.079,214.87 115.168,219.666C117.725,222.057 121.016,222.912 123.914,221.939C128.964,220.246 136.737,217.636 136.737,217.636L113.152,140.85Z" style="fill:url(#_Linear4);"/>
                    </g>
                    <g transform="matrix(-5.89667,-0.965395,-0.270909,5.15031,14688.5,301.451)">
                        <path d="M231.698,94.027C231.698,94.027 134.979,130.836 116.592,137.834C114.542,138.614 112.917,140.315 112.052,142.586C109.575,149.365 105.481,164.927 111.507,183.225C117.651,201.88 128.781,212.243 134.653,216.649C136.932,218.333 139.618,218.89 142.044,218.184C161.942,212.407 259.217,184.08 259.217,184.08L231.698,94.027Z" style="fill:url(#_Linear5);"/>
                    </g>
                    <g transform="matrix(-5.89667,-0.965395,-0.270909,5.15031,14688.5,301.451)">
                        <path d="M123.819,206.082C127.885,211.116 131.863,214.555 134.653,216.649C136.932,218.333 139.618,218.89 142.044,218.184C161.942,212.407 259.217,184.08 259.217,184.08L252.493,162.077L123.819,206.082Z" style="fill:rgb(156,161,164);"/>
                    </g>
                    <g transform="matrix(2.04578,-1.10671e-16,-3.40691e-16,2.04578,7500.94,-158.091)">
                        <path d="M2896.96,433.197L3081.45,522.081" style="fill:none;stroke:white;stroke-width:41.67px;"/>
                    </g>
                    <g transform="matrix(-5.89667,-0.965395,-0.270909,5.15031,14716.5,317.017)">
                        <path d="M300.686,60.191L234.634,85.941C234.634,85.941 221.441,114.376 233.022,145.422C244.973,177.462 263.938,187.131 264.903,187.348C265.869,187.566 332.884,169.381 332.884,169.381L300.686,60.191Z" style="fill:rgb(38,38,38);"/>
                    </g>
                    <g transform="matrix(-5.89667,-0.965395,-0.270909,5.15031,14688.5,301.451)">
                        <path d="M302.382,59.27C302.382,59.27 251.457,79.318 237.911,84.651C235.723,85.512 234.001,87.357 233.099,89.805C230.019,98.612 223.996,121.224 233.022,145.422C242.31,170.322 255.897,182.13 262.177,186.268C263.977,187.454 264.973,188.007 266.718,187.824C276.362,185.378 338.851,168.987 338.851,168.987L302.382,59.27Z" style="fill:url(#_Linear6);"/>
                    </g>
                    <g transform="matrix(-6.4344,-2.96317,-2.62806,5.69913,15184.3,835.487)">
                        <ellipse cx="324.869" cy="124.092" rx="21.046" ry="46.502" style="fill:rgb(209,216,219);"/>
                    </g>
                    <g transform="matrix(-4.71109,-2.16955,-1.92419,4.17275,14545.5,769.05)">
                        <ellipse cx="324.869" cy="124.092" rx="21.046" ry="46.502" style="fill:rgb(32,36,38);"/>
                    </g>
                    <g transform="matrix(1.69989,0.150446,0.0673442,1.50266,10842.8,-1080.89)">
                        <path d="M1178.04,941.448C1178.04,941.448 1136.95,924.681 1097.67,1011.48C1059.92,1094.91 1091.83,1114.7 1093.59,1113.4C1111.89,1099.98 1167.61,1030.64 1178.04,941.448Z" style="fill:white;"/>
                    </g>
                    <g transform="matrix(2.04578,0,0,2.04578,5217.46,-1558.17)">
                        <path d="M3761.47,1094.21C3755.21,1091.24 3747.72,1093.63 3744.33,1099.67C3735.84,1114.12 3718.14,1140.28 3692.33,1160.59C3692.34,1160.58 3838.31,1222.78 3870.16,1236.35C3874.22,1238.08 3878.88,1237.62 3882.52,1235.12C3890.89,1229.22 3906.95,1215.53 3926.04,1187.1C3927.92,1184.32 3928.59,1180.9 3927.91,1177.61C3927.22,1174.32 3925.23,1171.45 3922.39,1169.66C3889.47,1154.04 3794.15,1109.48 3761.47,1094.21Z" style="fill:rgb(45,51,58);"/>
                    </g>
                    <g transform="matrix(1.73161,0,0,8.13619,6480.44,-20927)">
                        <path d="M4022.63,2842.51C4016.79,2842.11 4007.37,2840.95 4007.37,2839.58L4007.37,2765.4L4075.41,2765.4L4075.36,2839.53C4075.2,2841.04 4066,2842.27 4060.41,2842.53L4060.41,2879.04L4022.63,2879.04L4022.63,2842.51Z" style="fill:rgb(155,181,195);"/>
                    </g>
                    <g transform="matrix(4.57766,0,0,4.57766,-64597.9,-11256.2)">
                        <path d="M16996.4,2802.43L16947.9,2901.75C16947.9,2901.75 16946.2,2903.83 16947.9,2910.2C16947.6,2910.9 16901.7,3004.43 16901.7,3004.43L16916.9,3004.43L16960.1,2916.98C16960.1,2916.98 16965.4,2915.25 16966.7,2912.33C16967.3,2910.95 17020.5,2802.45 17020.5,2802.45L16996.4,2802.43Z" style="fill:rgb(158,181,195);"/>
                    </g>
                    <g transform="matrix(2.09503,0,0,2.04578,5019.52,-1558.17)">
                        <path d="M4045.21,1457.62L4045.21,1530.69L3889.56,1530.69C3884.55,1530.69 3880.49,1526.53 3880.49,1521.4L3880.49,1502.81C3880.49,1497.68 3884.55,1493.51 3889.56,1493.51L3989.67,1493.51L3989.67,1457.62L4045.21,1457.62Z" style="fill:rgb(155,181,195);"/>
                    </g>
                    <g transform="matrix(2.09503,0,0,2.04578,5019.52,-1558.17)">
                        <path d="M3989.67,1448.34L3989.67,1448.29C3969.12,1448.26 3963.62,1448.23 3963.04,1448.23L3971.68,1406.62C3971.68,1399.14 3977.61,1393.06 3984.92,1393.06L4032.1,1393.06L4032.1,1448.34L3989.67,1448.34Z" style="fill:rgb(158,181,195);"/>
                    </g>
                    <g transform="matrix(2.04729,0,0,2.04711,11544.9,-1477.48)">
                        <path d="M811.016,1490.29L865.063,1490.35L845.409,1530.34C845.409,1530.34 842.141,1503.09 807.866,1496.9C808.106,1496.31 811.016,1490.29 811.016,1490.29Z" style="fill:rgb(86,122,142);"/>
                    </g>
                    <g transform="matrix(-6.06772,0,0,6.06772,14657.8,-92.8091)">
                        <path d="M198.704,228.221L209.175,228.221L209.175,213.454C210.802,212.216 212.47,210.329 213.846,208.24C216.212,204.647 215.192,197.469 215.129,196.945C206.095,196.905 203.429,194.985 200.887,192.615C198.345,190.244 196.027,187.771 188.987,187.658C182.111,187.171 177.746,190.099 175.216,192.817C174.973,193.026 174.746,193.231 174.537,193.428C172.355,195.478 171.099,198.429 171.19,202.803C171.306,208.352 173.824,211.753 176.603,213.779C177.421,214.413 178.308,214.928 179.24,215.308C179.427,215.392 179.613,215.472 179.795,215.546L179.885,227.202L179.898,228.182L176.602,228.182C174.069,228.182 172.012,230.23 172.012,232.753L168.85,246.856C169.051,246.856 170.898,246.848 177.945,246.838L177.945,246.84L177.742,246.84L177.594,262.023L177.945,262.027L177.945,262.048L143.403,262.048C141.666,262.048 140.256,263.453 140.256,265.182L140.256,271.451C140.256,273.18 141.666,274.585 143.403,274.585L150.815,274.593L114.156,349.66C114.156,349.66 112.801,351.241 114.197,356.036C113.934,356.561 79.469,426.826 79.469,426.826L90.923,426.824L123.356,361.144C123.356,361.144 127.362,359.837 128.355,357.633C128.81,356.622 167.03,278.668 169.021,274.613L184.468,274.629C184.468,274.629 184.491,288.3 184.532,288.294C184.517,315.663 184.49,374.41 184.541,374.913C184.828,376.825 188.896,377.947 188.896,377.947C188.896,377.947 190.06,378.221 191.906,378.252C191.99,326.131 192.098,300.709 192.184,287.641C195.37,287.488 199.435,287.417 204.175,287.599C204.094,287.401 204.104,274.599 204.104,274.599L198.704,274.606L198.704,263.121L198.704,260.603C199.758,250.873 210.916,250.135 210.916,250.135L210.923,246.788L198.704,246.807L198.704,228.221Z" style="fill:rgb(86,122,142);"/>
                    </g>
                    <g transform="matrix(2.04578,0,0,2.04578,3071.49,-4511.86)">
                        <path d="M5144.2,2732.48C5133.84,2723.42 5112.68,2711.12 5085.23,2728.91C5056.24,2747.69 5067.78,2781.92 5069.74,2785.66C5071.48,2788.99 5075.99,2796.46 5083.53,2799.24C5067.92,2798.58 5053.17,2797.91 5052.97,2797.73C5045.85,2797.35 5036.27,2788.47 5029.25,2777.82C5022.24,2767.16 5025.26,2745.87 5025.45,2744.31C5052.24,2744.2 5060.15,2738.5 5067.69,2731.47C5075.23,2724.44 5082.1,2717.1 5102.98,2716.77C5123.72,2715.3 5136.76,2724.3 5144.2,2732.48Z" style="fill:rgb(54,80,97);"/>
                    </g>
                    <g transform="matrix(2.04578,0,0,2.04578,11545.5,-1475.68)">
                        <path d="M988.067,1315.29L987.799,1352.74L953.098,1352.66L953.098,1316.59C961.188,1317.29 972.38,1318.23 976.391,1318.18C978.414,1318.16 982.895,1317.41 988.067,1315.29Z" style="fill:rgb(54,80,97);"/>
                    </g>
                    <g transform="matrix(2.5021,0.599495,-0.640863,2.67476,5507.62,-8763.39)">
                        <ellipse cx="3937.37" cy="2822.13" rx="25.282" ry="26.635" style="fill:rgb(54,80,97);"/>
                    </g>
                </g>
                <g id="Astrophotography" transform="matrix(1.43947,0,0,1.43947,6811.16,-8994.66)">
                    <g transform="matrix(1,0,0,1.0027,3430.12,1403.72)">
                        <path d="M1279.7,5150.83L1279.7,5629.85C1279.7,5662.9 1252.8,5689.73 1219.66,5689.73L552.199,5689.73C519.063,5689.73 492.16,5662.9 492.16,5629.85L492.16,5150.83C492.16,5117.78 519.063,5090.95 552.199,5090.95L1219.66,5090.95C1252.8,5090.95 1279.7,5117.78 1279.7,5150.83Z" style="fill:rgb(147,149,152);"/>
                    </g>
                    <g transform="matrix(1.00476,0,0,1.11855,3424.03,755.764)">
                        <rect x="495.372" y="5241.27" width="784.985" height="383.293" style="fill:rgb(25,23,22);"/>
                    </g>
                    <g transform="matrix(1.1593,0,0,1.1593,-10738.1,-3297.07)">
                        <circle cx="12959" cy="8753.64" r="228.138" style="fill:rgb(25,23,22);fill-opacity:0.5;"/>
                    </g>
                    <g transform="matrix(0.155193,0,0,0.17277,4395.54,5628.08)">
                        <path d="M1280.36,5260.43L1280.36,5605.4C1280.36,5615.97 1270.8,5624.56 1259.02,5624.56L516.707,5624.56C504.932,5624.56 495.372,5615.97 495.372,5605.4L495.372,5260.43C495.372,5249.86 504.932,5241.27 516.707,5241.27L1259.02,5241.27C1270.8,5241.27 1280.36,5249.86 1280.36,5260.43Z" style="fill:rgb(64,64,64);"/>
                    </g>
                    <g transform="matrix(1,0,0,1.00459,1843.86,-96.0627)">
                        <rect x="2774.15" y="6634.38" width="91.462" height="477.889" style="fill:rgb(89,89,89);"/>
                    </g>
                    <g transform="matrix(1,0,0,0.896955,1148.8,668.077)">
                        <rect x="2774.15" y="6634.38" width="91.462" height="477.889" style="fill:rgb(89,89,89);"/>
                    </g>
                    <g transform="matrix(1,0,0,0.233135,1148.8,4961.39)">
                        <path d="M2865.61,6634.38L2865.61,7112.27L2774.15,7112.27L2774.15,6895.78C2774.15,6826.45 2780.57,6759.96 2792,6710.94C2803.43,6661.92 2818.93,6634.38 2835.09,6634.38C2851.9,6634.38 2865.61,6634.38 2865.61,6634.38Z" style="fill:rgb(204,204,204);"/>
                    </g>
                    <g transform="matrix(-1,0,0,0.233135,7483.77,4961.39)">
                        <path d="M2865.61,6634.38L2865.61,7112.27L2774.15,7112.27L2774.15,6888.91C2774.15,6821.4 2780.4,6756.66 2791.53,6708.93C2802.66,6661.19 2817.75,6634.38 2833.49,6634.38C2851.02,6634.38 2865.61,6634.38 2865.61,6634.38Z" style="fill:rgb(204,204,204);"/>
                    </g>
                    <g transform="matrix(0.587113,0,0,0.582118,-2949.23,2942.64)">
                        <g transform="matrix(1.95823,0,0,1.97503,-13100.1,-10606.5)">
                            <circle cx="12959" cy="8753.64" r="228.138" style="fill:rgb(148,148,148);"/>
                        </g>
                        <g transform="matrix(1.76962,0,0,1.7848,-10655.8,-8941.26)">
                            <circle cx="12959" cy="8753.64" r="228.138" style="fill:rgb(77,77,79);"/>
                        </g>
                        <g transform="matrix(1.30853,0,0,1.31976,-4680.61,-4870.47)">
                            <circle cx="12959" cy="8753.64" r="228.138" style="fill:rgb(134,134,134);stroke:rgb(25,23,22);stroke-width:48.37px;"/>
                        </g>
                        <g transform="matrix(1.00573,0,0,1.01436,-756.624,-2197.13)">
                            <circle cx="12959" cy="8753.64" r="228.138" style="fill:url(#_Radial7);"/>
                        </g>
                        <g transform="matrix(0.389928,0,0,0.393274,7223.59,3239.65)">
                            <circle cx="12959" cy="8753.64" r="228.138" style="fill:rgb(140,140,140);"/>
                        </g>
                        <g transform="matrix(1.75127,0,0,1.7663,-10390.2,-8806.6)">
                            <circle cx="12885.8" cy="8791.91" r="61.321" style="fill:white;fill-opacity:0.3;"/>
                        </g>
                    </g>
                    <g transform="matrix(1,0,0,1,3416.93,-13.3704)">
                        <path d="M597.079,7060.53L597.079,7122.05C597.079,7122.05 582.165,7122.05 564.366,7122.05C548.722,7122.05 533.719,7115.83 522.656,7104.77C511.594,7093.71 505.38,7078.7 505.38,7063.06L505.38,7060.53L597.079,7060.53Z" style="fill:rgb(204,204,204);"/>
                    </g>
                    <g transform="matrix(-1,0,0,1,5214.92,-13.3704)">
                        <path d="M597.079,7060.53L597.079,7122.05L566.896,7122.05C532.921,7122.05 505.38,7094.51 505.38,7060.53C505.38,7060.53 505.38,7060.53 505.38,7060.53L597.079,7060.53Z" style="fill:rgb(204,204,204);"/>
                    </g>
                    <g transform="matrix(0.89508,0,0,0.89508,3424.98,543.6)">
                        <circle cx="780.349" cy="6663.55" r="136.849" style="fill:rgb(247,140,30);fill-opacity:0.7;"/>
                    </g>
                    <g transform="matrix(1.08634,0,0,1.08634,3275.73,-730.856)">
                        <circle cx="780.349" cy="6663.55" r="136.849" style="fill:rgb(247,140,30);fill-opacity:0.2;"/>
                    </g>
                    <g transform="matrix(0.591254,0,0,0.591254,3662.07,2568.15)">
                        <circle cx="780.349" cy="6663.55" r="136.849" style="fill:rgb(250,166,25);"/>
                    </g>
                    <g transform="matrix(2.04876,0,0,2.04876,5351.54,-29914.3)">
                        <path d="M-659.436,17719.1C-659.436,17719.1 -639.747,17743.8 -621.069,17747.5C-602.391,17751.2 -590.832,17749.9 -581.303,17748C-571.775,17746.2 -540.178,17720.2 -513.547,17692.3C-524.039,17705.4 -565.481,17745.9 -568.301,17761.4C-571.121,17776.8 -571.116,17789.2 -569.182,17795.7C-567.248,17802.1 -552.424,17826.4 -541.655,17837.1C-545.298,17835.9 -563.195,17818.5 -582.78,17810.5C-602.364,17802.5 -619.531,17810.7 -623.002,17812.2C-633.347,17816.6 -672.29,17853.2 -681.295,17863C-677.055,17856.7 -641.884,17819.8 -637.469,17805.6C-633.054,17791.3 -629.192,17770.9 -635.12,17755.7C-641.044,17740.5 -659.633,17719.9 -659.436,17719.1Z" style="fill:rgb(250,166,25);"/>
                    </g>
                    <g transform="matrix(0.373011,0,0,0.373011,3832.38,4022.43)">
                        <circle cx="780.349" cy="6663.55" r="136.849" style="fill:rgb(254,206,2);"/>
                    </g>
                </g>
            </g>
        </g>
    </g>
    <defs>
        <linearGradient id="_Linear2" x1="0" y1="0" x2="1" y2="0" gradientUnits="userSpaceOnUse" gradientTransform="matrix(-24.5512,-75.8176,-63.1326,20.2633,248.063,176.864)"><stop offset="0" style="stop-color:rgb(81,87,89);stop-opacity:1"/><stop offset="1" style="stop-color:rgb(162,165,170);stop-opacity:1"/></linearGradient>
        <linearGradient id="_Linear3" x1="0" y1="0" x2="1" y2="0" gradientUnits="userSpaceOnUse" gradientTransform="matrix(-24.2539,-76.3269,-63.6077,19.8606,164.231,206.866)"><stop offset="0" style="stop-color:rgb(154,160,162);stop-opacity:1"/><stop offset="0.56" style="stop-color:rgb(207,212,213);stop-opacity:1"/><stop offset="1" style="stop-color:rgb(230,234,235);stop-opacity:1"/></linearGradient>
        <linearGradient id="_Linear4" x1="0" y1="0" x2="1" y2="0" gradientUnits="userSpaceOnUse" gradientTransform="matrix(-19.7971,-58.8127,-48.8899,16.5955,119.527,215.187)"><stop offset="0" style="stop-color:rgb(81,87,89);stop-opacity:1"/><stop offset="1" style="stop-color:rgb(162,165,170);stop-opacity:1"/></linearGradient>
        <linearGradient id="_Linear5" x1="0" y1="0" x2="1" y2="0" gradientUnits="userSpaceOnUse" gradientTransform="matrix(-24.2539,-76.3269,-63.6077,19.8606,164.231,206.866)"><stop offset="0" style="stop-color:rgb(154,160,162);stop-opacity:1"/><stop offset="0.56" style="stop-color:rgb(207,212,213);stop-opacity:1"/><stop offset="1" style="stop-color:rgb(230,234,235);stop-opacity:1"/></linearGradient>
        <linearGradient id="_Linear6" x1="0" y1="0" x2="1" y2="0" gradientUnits="userSpaceOnUse" gradientTransform="matrix(-29.4826,-92.5296,-77.1014,24.17,289.286,177.588)"><stop offset="0" style="stop-color:rgb(81,87,89);stop-opacity:1"/><stop offset="1" style="stop-color:rgb(162,165,170);stop-opacity:1"/></linearGradient>
        <radialGradient id="_Radial7" cx="0" cy="0" r="1" gradientUnits="userSpaceOnUse" gradientTransform="matrix(159.731,152.399,-152.399,159.731,12964.5,8754.57)"><stop offset="0" style="stop-color:rgb(226,226,226);stop-opacity:1"/><stop offset="0.6" style="stop-color:rgb(203,203,203);stop-opacity:1"/><stop offset="0.81" style="stop-color:rgb(152,152,152);stop-opacity:1"/><stop offset="1" style="stop-color:rgb(99,99,99);stop-opacity:1"/></radialGradient>
    </defs>
</svg>
