<?xml version="1.0" encoding="UTF-8" standalone="no"?>
<!DOCTYPE svg PUBLIC "-//W3C//DTD SVG 1.1//EN" "http://www.w3.org/Graphics/SVG/1.1/DTD/svg11.dtd">
<svg width="100%" height="100%" viewBox="0 0 2481 2481" version="1.1" xmlns="http://www.w3.org/2000/svg" xmlns:xlink="http://www.w3.org/1999/xlink" xml:space="preserve" xmlns:serif="http://www.serif.com/" style="fill-rule:evenodd;clip-rule:evenodd;stroke-linecap:round;stroke-linejoin:round;stroke-miterlimit:1.5;">
    <g transform="matrix(1,0,0,1,-12605.6,0)">
        <g id="Logo-round-text" serif:id="Logo round text" transform="matrix(1,0,0,1,-2112.05,-16.6449)">
            <rect x="14717.7" y="16.645" width="2480.27" height="2480.85" style="fill:none;"/>
            <g transform="matrix(0.987905,0,0,0.987905,182.91,43.5858)">
                <g transform="matrix(0.685493,0,0,0.685493,6719.51,389.966)">
                    <circle cx="13478.7" cy="1263.42" r="1240.16" style="fill:rgb(37,37,37);"/>
                </g>
                <g>
                    <g transform="matrix(-1.7826,-0.291845,-0.0818975,1.55697,16853.8,936.631)">
                        <path d="M164.124,211.771L139.129,129.257C139.129,129.257 131.234,132.262 124.224,134.93C115.272,138.336 109.195,147.384 108.389,158.509C107.918,165.399 108.481,173.798 111.507,183.225C114.228,191.702 118.015,198.462 121.894,203.728C129.415,213.877 140.964,218.505 151.275,215.503C157.693,213.644 164.124,211.771 164.124,211.771Z" style="fill:url(#_Linear1);"/>
                    </g>
                    <g transform="matrix(-3.16276,-0.517803,-0.145306,2.76244,16965.5,718.495)">
                        <path d="M196.551,202.329L168.313,118.15C168.313,118.15 132.362,131.833 118.741,137.017C115.096,138.403 112.291,141.572 111.009,145.751C108.664,153.559 106.284,167.364 111.507,183.225C116.716,199.042 125.509,208.898 131.644,214.216C135.516,217.499 140.289,218.686 144.583,217.436C159.469,213.127 196.551,202.329 196.551,202.329Z" style="fill:url(#_Linear2);"/>
                    </g>
                    <g transform="matrix(-3.16276,-0.517803,-0.145306,2.76244,16965.5,718.495)">
                        <path d="M120.847,202.113C124.581,207.494 128.469,211.463 131.644,214.216C135.516,217.499 140.289,218.686 144.583,217.436C159.469,213.127 196.551,202.329 196.551,202.329L188.617,178.677L120.847,202.113Z" style="fill:rgb(156,161,164);"/>
                    </g>
                    <g transform="matrix(-5.14657,-0.842589,-0.236447,4.49515,16937.9,313.81)">
                        <path d="M113.152,140.85C113.152,140.85 103.691,144.809 98.464,146.997C96.036,148.013 94.229,150.259 93.514,153.151C91.974,159.382 90.596,171.54 96.213,188.36C101.794,205.07 110.079,214.87 115.168,219.666C117.725,222.057 121.016,222.912 123.914,221.939C128.964,220.246 136.737,217.636 136.737,217.636L113.152,140.85Z" style="fill:url(#_Linear3);"/>
                    </g>
                    <g transform="matrix(-5.14657,-0.842589,-0.236447,4.49515,16937.9,313.81)">
                        <path d="M231.698,94.027C231.698,94.027 134.979,130.836 116.592,137.834C114.542,138.614 112.917,140.315 112.052,142.586C109.575,149.365 105.481,164.927 111.507,183.225C117.651,201.88 128.781,212.243 134.653,216.649C136.932,218.333 139.618,218.89 142.044,218.184C161.942,212.407 259.217,184.08 259.217,184.08L231.698,94.027Z" style="fill:url(#_Linear4);"/>
                    </g>
                    <g transform="matrix(-5.14657,-0.842589,-0.236447,4.49515,16937.9,313.81)">
                        <path d="M123.819,206.082C127.885,211.116 131.863,214.555 134.653,216.649C136.932,218.333 139.618,218.89 142.044,218.184C161.942,212.407 259.217,184.08 259.217,184.08L252.493,162.077L123.819,206.082Z" style="fill:rgb(156,161,164);"/>
                    </g>
                    <g transform="matrix(1.78554,-9.65928e-17,-2.97353e-16,1.78554,10664.6,-87.2751)">
                        <path d="M2896.96,433.197L3081.45,522.081" style="fill:none;stroke:white;stroke-width:41.67px;"/>
                    </g>
                    <g transform="matrix(-5.14657,-0.842589,-0.236447,4.49515,16962.3,327.396)">
                        <path d="M300.584,60.307L234.634,85.941C234.634,85.941 221.441,114.376 233.022,145.422C244.973,177.462 264.537,187.845 265.503,188.063C266.468,188.28 333.191,169.244 333.191,169.244L300.584,60.307Z" style="fill:rgb(38,38,38);"/>
                    </g>
                    <g transform="matrix(-5.14657,-0.842589,-0.236447,4.49515,16937.9,313.81)">
                        <path d="M302.382,59.27C302.382,59.27 248.391,80.525 237.911,84.651C235.723,85.512 234.001,87.357 233.099,89.805C230.019,98.612 223.996,121.224 233.022,145.422C242.31,170.322 255.897,182.13 262.177,186.268C263.977,187.454 264.973,188.007 266.718,187.824C276.362,185.378 338.238,169.101 338.238,169.101L302.382,59.27Z" style="fill:url(#_Linear5);"/>
                    </g>
                    <g transform="matrix(-5.6159,-2.58624,-2.29375,4.97416,17370.6,779.913)">
                        <ellipse cx="324.869" cy="124.092" rx="21.046" ry="46.502" style="fill:rgb(209,216,219);"/>
                    </g>
                    <g transform="matrix(-4.11181,-1.89357,-1.67942,3.64195,16813.1,721.927)">
                        <ellipse cx="324.869" cy="124.092" rx="21.046" ry="46.502" style="fill:rgb(32,36,38);"/>
                    </g>
                    <g transform="matrix(1.48365,0.131309,0.0587775,1.31151,13581.4,-892.683)">
                        <path d="M1178.04,941.448C1178.04,941.448 1136.95,924.681 1097.67,1011.48C1059.92,1094.91 1091.83,1114.7 1093.59,1113.4C1111.89,1099.98 1167.61,1030.64 1178.04,941.448Z" style="fill:white;"/>
                    </g>
                    <g transform="matrix(1.78554,0,0,1.78554,8671.64,-1309.25)">
                        <path d="M3761.47,1094.21C3755.21,1091.24 3747.72,1093.63 3744.33,1099.67C3735.84,1114.12 3718.14,1140.28 3692.33,1160.59C3692.34,1160.58 3838.31,1222.78 3870.16,1236.35C3874.22,1238.08 3878.88,1237.62 3882.52,1235.12C3890.89,1229.22 3906.95,1215.53 3926.04,1187.1C3927.92,1184.32 3928.59,1180.9 3927.91,1177.61C3927.22,1174.32 3925.23,1171.45 3922.39,1169.66C3889.47,1154.04 3794.15,1109.48 3761.47,1094.21Z" style="fill:rgb(45,51,58);"/>
                    </g>
                    <g transform="matrix(1.64396,0,0,1.64396,-8021.58,-9185.88)">
                        <path d="M14303.1,6783.82C14325.5,6738.29 14345.5,6697.49 14345.8,6696.8C14342,6682.55 14345.7,6677.89 14345.7,6677.89L14450.9,6462.49C14451.5,6461.19 14454,6456.12 14454,6456.12L14454,6456.12L14454,6456.12L14435.9,6456.12C14430.7,6456.12 14426.6,6451.95 14426.6,6446.82L14426.6,6428.23C14426.6,6423.1 14430.7,6418.94 14435.9,6418.94L14538.4,6418.94L14538.4,6383.04L14538.4,6383.04L14538.4,6373.71C14517.3,6373.68 14511.7,6373.66 14511.1,6373.66L14519.9,6332.05C14519.9,6324.56 14526,6318.49 14533.5,6318.49L14640.2,6318.49C14647.7,6318.49 14653.8,6324.56 14653.8,6332.05L14663.1,6373.88C14662.6,6373.88 14657.1,6373.85 14636.2,6373.82L14636.2,6373.83L14636.8,6373.83L14637.2,6418.86L14636.2,6418.87L14636.2,6418.94L14738.6,6418.94C14743.8,6418.94 14748,6423.1 14748,6428.23L14748,6446.82C14748,6451.95 14743.8,6456.12 14738.6,6456.12L14716.6,6456.14L14825.4,6678.79C14825.4,6678.79 14829.4,6683.48 14825.2,6697.7C14825.6,6698.39 14845.9,6739.75 14868.4,6785.57C14859.7,6791.18 14850.9,6796.55 14841.9,6801.65L14798.1,6712.85C14798.1,6712.85 14786.2,6708.98 14783.3,6702.44C14781.9,6699.44 14668.5,6468.23 14662.6,6456.2L14616.8,6456.25C14616.8,6456.25 14616.8,6496.8 14616.6,6496.78C14616.7,6577.95 14616.8,6752.2 14616.6,6753.69C14615.8,6759.36 14603.7,6762.69 14603.7,6762.69C14603.7,6762.69 14603.7,6762.69 14603.6,6762.7L14603.6,6868.53C14598.1,6868.7 14592.6,6868.79 14587.1,6868.79C14581.9,6868.79 14576.8,6868.71 14571.7,6868.56L14571.7,6762.56C14566.7,6760.99 14558.7,6756.36 14558.7,6750.89L14558.7,6494.7C14558.6,6494.71 14558.5,6494.71 14558.4,6494.72C14558.6,6494.13 14558.6,6456.16 14558.6,6456.16L14558.7,6456.16L14558.7,6456.12L14508,6456.12L14508,6456.19L14508,6456.19L14498.7,6475.2C14470.4,6532.91 14389,6699.02 14387.8,6701.56C14384.9,6708.1 14373,6711.97 14373,6711.97L14329.5,6800.08C14320.5,6794.91 14311.7,6789.49 14303.1,6783.82Z" style="fill:rgb(158,181,195);"/>
                    </g>
                    <g transform="matrix(1.64517,0,0,1.64503,14405.9,-1023.82)">
                        <path d="M811.016,1490.29L865.063,1490.35L845.409,1530.34C845.409,1530.34 842.141,1503.09 807.866,1496.9C808.106,1496.31 811.016,1490.29 811.016,1490.29Z" style="fill:rgb(86,122,142);"/>
                    </g>
                    <g transform="matrix(-4.87594,0,0,4.87594,16907.4,88.8809)">
                        <path d="M108.572,391.082L123.356,361.144C123.356,361.144 127.362,359.837 128.355,357.633C128.81,356.622 167.03,278.668 169.021,274.613L184.468,274.629C184.468,274.629 184.491,288.3 184.532,288.294C184.517,315.663 184.49,374.41 184.541,374.913C184.828,376.825 188.896,377.947 188.896,377.947C188.896,377.947 190.06,378.221 191.906,378.252C191.99,326.131 192.098,300.709 192.184,287.641C195.37,287.488 199.435,287.417 204.175,287.599C204.094,287.401 204.104,274.599 204.104,274.599L198.704,274.606L198.704,263.121L198.704,260.603C199.758,250.873 210.916,250.135 210.916,250.135L210.923,246.788L198.704,246.807L198.704,228.221L209.175,228.221L209.175,213.454C210.802,212.216 212.47,210.329 213.846,208.24C216.212,204.647 215.192,197.469 215.129,196.945C206.095,196.905 203.429,194.985 200.887,192.615C198.345,190.244 196.027,187.771 188.987,187.658C182.111,187.171 177.746,190.099 175.216,192.817C174.973,193.026 174.746,193.231 174.537,193.428C172.355,195.478 171.099,198.429 171.19,202.803C171.306,208.352 173.824,211.753 176.603,213.779C177.421,214.413 178.308,214.928 179.24,215.308C179.427,215.392 179.613,215.472 179.795,215.546L179.885,227.202L179.898,228.182L176.602,228.182C174.069,228.182 172.012,230.23 172.012,232.753L168.85,246.856C169.051,246.856 170.898,246.848 177.945,246.838L177.945,246.84L177.742,246.84L177.594,262.023L177.945,262.027L177.945,262.048L143.403,262.048C141.666,262.048 140.256,263.453 140.256,265.182L140.256,271.451C140.256,273.18 141.666,274.585 143.403,274.585L150.815,274.593L114.156,349.66C114.156,349.66 112.801,351.241 114.197,356.036C114.08,356.269 107.24,370.212 99.661,385.662C102.573,387.555 105.544,389.362 108.572,391.082Z" style="fill:rgb(86,122,142);"/>
                    </g>
                    <g transform="matrix(1.64396,0,0,1.64396,7596.79,-3462.21)">
                        <path d="M5144.2,2732.48C5133.84,2723.42 5112.68,2711.12 5085.23,2728.91C5056.24,2747.69 5067.78,2781.92 5069.74,2785.66C5071.48,2788.99 5075.99,2796.46 5083.53,2799.24C5067.92,2798.58 5053.17,2797.91 5052.97,2797.73C5045.85,2797.35 5036.27,2788.47 5029.25,2777.82C5022.24,2767.16 5025.26,2745.87 5025.45,2744.31C5052.24,2744.2 5060.15,2738.5 5067.69,2731.47C5075.23,2724.44 5082.1,2717.1 5102.98,2716.77C5123.72,2715.3 5136.76,2724.3 5144.2,2732.48Z" style="fill:rgb(54,80,97);"/>
                    </g>
                    <g transform="matrix(1.64396,0,0,1.64396,14406.4,-1022.37)">
                        <path d="M988.067,1315.29L987.799,1352.74L953.098,1352.66L953.098,1316.59C961.188,1317.29 972.38,1318.23 976.391,1318.18C978.414,1318.16 982.895,1317.41 988.067,1315.29Z" style="fill:rgb(54,80,97);"/>
                    </g>
                    <g transform="matrix(2.01066,0.481747,-0.514989,2.1494,9554.44,-6878.68)">
                        <ellipse cx="3937.37" cy="2822.13" rx="25.282" ry="26.635" style="fill:rgb(54,80,97);"/>
                    </g>
                </g>
                <g transform="matrix(0.127015,1.91538,-1.91538,0.127015,21814.7,-6964.58)">
                    <path d="M3892.53,3897.08L3921.52,3774.66L4000.04,3793.26L3995.53,3812.33L3939.39,3799.03L3932.47,3828.24L3980.57,3839.62L3976.05,3858.69L3927.96,3847.3L3919.43,3883.32L3975.56,3896.62L3971.05,3915.68L3892.53,3897.08Z" style="fill:rgb(26,24,23);fill-rule:nonzero;"/>
                    <path d="M4049.42,3924.18C4040.44,3923.87 4032.66,3921.6 4026.09,3917.36C4019.52,3913.12 4014.5,3907.43 4011.03,3900.3C4007.56,3893.17 4005.97,3885.05 4006.29,3875.95C4006.59,3866.97 4008.69,3859.01 4012.58,3852.07C4016.48,3845.13 4021.85,3839.77 4028.69,3835.99C4035.53,3832.2 4043.5,3830.47 4052.6,3830.78C4063.38,3831.14 4072.42,3834.15 4079.72,3839.79C4087.02,3845.44 4091.81,3853.57 4094.08,3864.2L4069.47,3863.36C4068.51,3859.85 4066.55,3856.82 4063.58,3854.26C4060.61,3851.7 4056.67,3850.34 4051.76,3850.17C4046.85,3850 4042.8,3851.12 4039.6,3853.53C4036.4,3855.94 4033.98,3859.18 4032.34,3863.26C4030.71,3867.34 4029.8,3871.84 4029.64,3876.75C4029.47,3881.66 4030.06,3886.2 4031.42,3890.39C4032.77,3894.57 4034.97,3897.94 4038,3900.5C4041.03,3903.06 4045,3904.43 4049.91,3904.59C4054.58,3904.75 4058.44,3903.84 4061.51,3901.84C4064.57,3899.85 4066.89,3896.84 4068.47,3892.82L4093.08,3893.66C4091.29,3900.31 4088.31,3905.96 4084.14,3910.62C4079.96,3915.27 4074.93,3918.75 4069.04,3921.07C4063.14,3923.39 4056.6,3924.42 4049.42,3924.18Z" style="fill:rgb(26,24,23);fill-rule:nonzero;"/>
                    <path d="M4168.66,3916.18C4159.81,3917.68 4151.6,3917.1 4144.03,3914.44C4136.47,3911.77 4130.15,3907.29 4125.07,3900.98C4119.98,3894.67 4116.67,3886.97 4115.12,3877.88C4113.5,3868.31 4114.19,3859.71 4117.21,3852.09C4120.23,3844.47 4124.94,3838.23 4131.35,3833.37C4137.76,3828.52 4145.21,3825.37 4153.72,3823.92C4162.58,3822.42 4170.82,3822.99 4178.44,3825.64C4186.06,3828.3 4192.49,3832.71 4197.73,3838.87C4202.97,3845.02 4206.38,3852.77 4207.97,3862.1C4209.47,3870.96 4208.81,3879.22 4205.98,3886.87C4203.15,3894.52 4198.55,3900.92 4192.2,3906.07C4185.84,3911.22 4178,3914.59 4168.66,3916.18ZM4165.68,3896.45C4170.4,3895.65 4174.3,3893.74 4177.37,3890.72C4180.45,3887.71 4182.64,3884 4183.96,3879.58C4185.27,3875.16 4185.52,3870.53 4184.7,3865.69C4183.75,3860.14 4181.86,3855.6 4179.01,3852.07C4176.16,3848.55 4172.8,3846.08 4168.91,3844.67C4165.03,3843.27 4160.96,3842.93 4156.7,3843.65C4152.1,3844.43 4148.24,3846.24 4145.14,3849.08C4142.04,3851.91 4139.85,3855.48 4138.57,3859.76C4137.29,3864.05 4137.1,3868.8 4137.98,3873.99C4138.86,3879.19 4140.68,3883.62 4143.43,3887.29C4146.18,3890.95 4149.51,3893.58 4153.43,3895.16C4157.34,3896.74 4161.43,3897.17 4165.68,3896.45Z" style="fill:rgb(26,24,23);fill-rule:nonzero;"/>
                    <path d="M4282.07,3885.21C4275.8,3887.59 4269.48,3888.68 4263.12,3888.46C4256.76,3888.25 4251.01,3886.68 4245.86,3883.77C4240.72,3880.85 4236.9,3876.6 4234.39,3871.01L4255.9,3862.85C4257.82,3866.22 4260.65,3868.35 4264.38,3869.24C4268.11,3870.13 4271.83,3869.88 4275.53,3868.47C4278.66,3867.28 4281.34,3865.47 4283.55,3863.02C4285.76,3860.58 4286.3,3857.85 4285.15,3854.82C4284.25,3852.47 4282.54,3851.01 4280.02,3850.43C4277.49,3849.85 4274.73,3849.68 4271.75,3849.91C4268.76,3850.15 4266.04,3850.41 4263.59,3850.7C4257.48,3851.49 4251.78,3851.82 4246.48,3851.72C4241.19,3851.61 4236.57,3850.42 4232.63,3848.14C4228.68,3845.85 4225.67,3841.97 4223.59,3836.48C4221.55,3831.1 4221.34,3825.92 4222.98,3820.94C4224.61,3815.97 4227.61,3811.53 4231.96,3807.64C4236.31,3803.74 4241.46,3800.67 4247.39,3798.41C4256.69,3794.88 4265.43,3794.26 4273.6,3796.54C4281.77,3798.82 4287.88,3804.45 4291.92,3813.42L4271.59,3821.14C4269.89,3817.68 4267.38,3815.53 4264.05,3814.68C4260.71,3813.83 4257.08,3814.15 4253.16,3815.64C4250.03,3816.83 4247.44,3818.45 4245.4,3820.51C4243.36,3822.56 4242.94,3825.16 4244.13,3828.3C4244.98,3830.54 4246.68,3831.97 4249.22,3832.61C4251.77,3833.24 4254.61,3833.45 4257.73,3833.23C4260.84,3833 4263.57,3832.77 4265.91,3832.52C4272.29,3831.76 4278.06,3831.5 4283.2,3831.72C4288.35,3831.95 4292.83,3833.2 4296.64,3835.47C4300.45,3837.74 4303.45,3841.6 4305.65,3847.04C4307.73,3852.53 4307.95,3857.76 4306.32,3862.74C4304.68,3867.72 4301.72,3872.15 4297.42,3876.02C4293.12,3879.89 4288.01,3882.96 4282.07,3885.21Z" style="fill:rgb(26,24,23);fill-rule:nonzero;"/>
                    <path d="M4368.36,3887.59L4362.58,3840.08L4287.73,3785.95L4309.74,3772.67L4360.82,3812.8L4349.6,3748.63L4370.37,3736.1L4389.14,3875.06L4368.36,3887.59Z" style="fill:rgb(26,24,23);fill-rule:nonzero;"/>
                    <path d="M4462.79,3775.72C4457.74,3780.14 4452.2,3783.36 4446.17,3785.38C4440.13,3787.39 4434.19,3787.93 4428.36,3786.99C4422.52,3786.06 4417.45,3783.41 4413.15,3779.04L4430.46,3763.89C4433.44,3766.38 4436.83,3767.39 4440.64,3766.92C4444.45,3766.45 4447.84,3764.92 4450.82,3762.31C4453.34,3760.1 4455.22,3757.47 4456.44,3754.41C4457.66,3751.35 4457.2,3748.6 4455.07,3746.16C4453.42,3744.27 4451.3,3743.49 4448.73,3743.83C4446.16,3744.17 4443.52,3744.97 4440.81,3746.24C4438.09,3747.5 4435.63,3748.7 4433.43,3749.82C4427.98,3752.69 4422.75,3754.99 4417.76,3756.74C4412.76,3758.49 4408.01,3758.98 4403.52,3758.22C4399.03,3757.45 4394.85,3754.86 4390.98,3750.44C4387.19,3746.12 4385.2,3741.34 4384.99,3736.1C4384.79,3730.87 4386.05,3725.66 4388.77,3720.49C4391.49,3715.33 4395.24,3710.65 4400.01,3706.47C4407.5,3699.92 4415.46,3696.28 4423.92,3695.57C4432.37,3694.86 4440.06,3698 4446.98,3705L4430.62,3719.32C4427.82,3716.68 4424.71,3715.54 4421.29,3715.9C4417.87,3716.27 4414.59,3717.84 4411.43,3720.6C4408.91,3722.81 4407.05,3725.23 4405.85,3727.87C4404.66,3730.51 4405.17,3733.09 4407.38,3735.61C4408.95,3737.41 4411.05,3738.17 4413.66,3737.88C4416.27,3737.58 4418.99,3736.79 4421.84,3735.49C4424.69,3734.19 4427.16,3733.02 4429.27,3731.97C4434.98,3729.04 4440.29,3726.78 4445.19,3725.2C4450.1,3723.61 4454.73,3723.22 4459.09,3724.02C4463.45,3724.82 4467.61,3727.38 4471.57,3731.72C4475.44,3736.14 4477.47,3740.97 4477.68,3746.2C4477.88,3751.44 4476.65,3756.62 4473.97,3761.75C4471.3,3766.88 4467.57,3771.53 4462.79,3775.72Z" style="fill:rgb(26,24,23);fill-rule:nonzero;"/>
                    <path d="M4530.45,3702.35C4524.25,3709.66 4517.79,3713.65 4511.09,3714.33C4504.39,3715.01 4497.48,3712.32 4490.35,3706.28L4458.41,3679.19L4450.97,3687.96L4436.31,3675.52L4443.75,3666.75L4427.16,3652.68L4442.05,3635.14L4458.63,3649.2L4471.77,3633.72L4486.43,3646.16L4473.3,3661.64L4505.37,3688.85C4507.94,3691.03 4510.27,3691.83 4512.33,3691.22C4514.4,3690.62 4516.36,3689.22 4518.22,3687.03L4525.08,3678.94L4539.75,3691.38L4530.45,3702.35Z" style="fill:rgb(26,24,23);fill-rule:nonzero;"/>
                    <path d="M4582.36,3631.26C4577.6,3639.3 4571.74,3645.2 4564.78,3648.94C4557.83,3652.69 4550.36,3654.36 4542.39,3653.95C4534.41,3653.54 4526.61,3651.08 4518.98,3646.56C4510.84,3641.74 4504.76,3635.9 4500.73,3629.06C4496.71,3622.22 4494.76,3614.87 4494.89,3607.01C4495.02,3599.15 4497.38,3591.35 4501.96,3583.62C4506.48,3575.99 4512.08,3570.3 4518.77,3566.53C4525.46,3562.76 4532.65,3560.97 4540.35,3561.14C4548.05,3561.32 4555.66,3563.63 4563.18,3568.09C4564.52,3568.88 4565.8,3569.71 4567.03,3570.58C4568.26,3571.45 4569.38,3572.32 4570.39,3573.2L4536.68,3630.1C4540.47,3631.93 4544.2,3632.85 4547.88,3632.87C4551.56,3632.89 4554.95,3631.98 4558.07,3630.13C4561.18,3628.29 4563.78,3625.61 4565.85,3622.11C4567.99,3618.5 4569.07,3614.92 4569.08,3611.38C4569.09,3607.83 4567.95,3604.34 4565.67,3600.9L4578.23,3579.72C4581.9,3583.85 4584.76,3588.67 4586.78,3594.19C4588.8,3599.7 4589.55,3605.61 4589.02,3611.91C4588.49,3618.22 4586.27,3624.66 4582.36,3631.26ZM4523.63,3622.16L4545.52,3585.2C4540.31,3582.25 4535.12,3581.72 4529.96,3583.61C4524.81,3585.49 4520.76,3588.91 4517.83,3593.86C4515.32,3598.09 4514.32,3602.78 4514.81,3607.95C4515.3,3613.11 4518.24,3617.85 4523.63,3622.16Z" style="fill:rgb(26,24,23);fill-rule:nonzero;"/>
                    <path d="M4619.51,3563.46L4533.82,3538.89L4540.12,3516.95L4549.97,3519.77C4546.76,3515.73 4544.82,3511.19 4544.15,3506.14C4543.48,3501.08 4543.86,3496.08 4545.28,3491.13C4547.13,3484.68 4550.21,3479.05 4554.52,3474.24C4558.82,3469.43 4564.3,3466.3 4570.95,3464.84C4566.48,3460.44 4563.51,3455.26 4562.05,3449.29C4560.58,3443.32 4560.72,3437.29 4562.47,3431.18C4564.35,3424.62 4567.42,3419.05 4571.66,3414.47C4575.9,3409.89 4581.23,3406.83 4587.65,3405.31C4594.07,3403.79 4601.43,3404.21 4609.72,3406.59L4660.34,3421.11L4654.05,3443.05L4606.54,3429.42C4600.09,3427.57 4594.52,3427.66 4589.83,3429.68C4585.13,3431.7 4581.86,3435.93 4580.01,3442.38C4578.2,3448.72 4578.73,3454.04 4581.6,3458.36C4584.48,3462.67 4589.14,3465.75 4595.59,3467.6L4643.1,3481.23L4636.81,3503.17L4589.3,3489.54C4582.73,3487.66 4577.11,3487.82 4572.42,3490.03C4567.74,3492.24 4564.52,3496.4 4562.77,3502.5C4561.28,3507.68 4561.63,3512.68 4563.8,3517.47C4565.98,3522.28 4570.81,3525.75 4578.3,3527.89L4625.81,3541.52L4619.51,3563.46Z" style="fill:rgb(26,24,23);fill-rule:nonzero;"/>
                </g>
                <g transform="matrix(1.2148,-1.033,1.04486,1.22874,7545.92,1383.67)">
                    <path d="M4364.8,2813.31L4432.39,2704.16L4394.36,2681.05L4406.83,2660.92L4506.92,2721.77L4494.46,2741.9L4456.24,2718.67L4388.66,2827.81L4364.8,2813.31Z" style="fill:rgb(26,24,23);fill-rule:nonzero;"/>
                    <path d="M4428.1,2852.71L4531.24,2740.64L4551.76,2759.18L4513.16,2801.13C4519.4,2799.93 4525.72,2800.51 4532.12,2802.87C4538.53,2805.24 4544.1,2808.56 4548.84,2812.84C4558.1,2821.21 4562.97,2831.04 4563.44,2842.31C4563.92,2853.59 4558.99,2864.83 4548.68,2876.04L4505.65,2922.79L4485.13,2904.24L4525.65,2860.22C4531.16,2854.24 4534.07,2848.03 4534.39,2841.57C4534.7,2835.11 4531.9,2829.21 4525.98,2823.86C4520.05,2818.5 4513.81,2816.23 4507.24,2817.04C4500.67,2817.85 4494.64,2821.25 4489.14,2827.22L4448.62,2871.25L4428.1,2852.71Z" style="fill:rgb(26,24,23);fill-rule:nonzero;"/>
                    <path d="M4548.54,2982.74C4541.92,2973.58 4538.22,2964.26 4537.44,2954.76C4536.67,2945.27 4538.46,2936.22 4542.82,2927.61C4547.18,2919.01 4553.74,2911.59 4562.5,2905.36C4571.86,2898.71 4581.34,2894.82 4590.93,2893.7C4600.52,2892.57 4609.66,2893.99 4618.35,2897.94C4627.05,2901.89 4634.58,2908.27 4640.95,2917.08C4647.24,2925.76 4650.84,2934.71 4651.77,2943.92C4652.69,2953.13 4651.18,2961.94 4647.22,2970.35C4643.26,2978.76 4636.96,2986.04 4628.31,2992.18C4626.77,2993.28 4625.22,2994.29 4623.65,2995.23C4622.08,2996.16 4620.56,2996.97 4619.09,2997.67L4572.19,2932.87C4568.3,2936.17 4565.44,2939.85 4563.62,2943.9C4561.8,2947.95 4561.15,2952.14 4561.69,2956.47C4562.22,2960.8 4563.93,2964.96 4566.82,2968.95C4569.79,2973.06 4573.25,2975.98 4577.2,2977.71C4581.14,2979.44 4585.59,2979.88 4590.53,2979.03L4607.99,3003.15C4601.59,3005.21 4594.82,3006.02 4587.69,3005.58C4580.55,3005.14 4573.6,3003.1 4566.84,2999.47C4560.08,2995.83 4553.98,2990.25 4548.54,2982.74ZM4587.42,2922.32L4617.88,2964.4C4623.72,2960.07 4626.85,2954.6 4627.27,2947.99C4627.69,2941.39 4625.86,2935.26 4621.78,2929.63C4618.3,2924.82 4613.56,2921.43 4607.56,2919.47C4601.57,2917.51 4594.86,2918.46 4587.42,2922.32Z" style="fill:rgb(26,24,23);fill-rule:nonzero;"/>
                    <g transform="matrix(1,0,0,1,1.14107,5.3121)">
                        <path d="M4635.47,3136.1L4796.75,3159.43L4803.18,3189.97L4664.77,3275.24L4658.69,3246.39L4690.27,3227.69L4677.99,3169.37L4641.45,3164.53L4635.47,3136.1ZM4701.65,3172.45L4710.71,3215.5L4768.45,3180.99L4701.65,3172.45Z" style="fill:rgb(26,24,23);fill-rule:nonzero;"/>
                    </g>
                    <path d="M4660.15,3338.01C4660.25,3329.92 4661.83,3322.35 4664.91,3315.31C4667.98,3308.27 4672.31,3302.51 4677.91,3298.02C4683.5,3293.53 4690.02,3291.12 4697.46,3290.77L4697.13,3318.5C4692.45,3319.17 4688.78,3321.4 4686.11,3325.2C4683.44,3329 4682.08,3333.28 4682.02,3338.05C4681.97,3342.09 4682.84,3345.89 4684.62,3349.45C4686.4,3353.01 4689.26,3354.81 4693.19,3354.86C4696.26,3354.9 4698.68,3353.62 4700.46,3351.05C4702.24,3348.47 4703.66,3345.45 4704.72,3341.99C4705.78,3338.54 4706.69,3335.37 4707.46,3332.49C4709.29,3325.29 4711.45,3318.74 4713.92,3312.85C4716.4,3306.96 4719.81,3302.3 4724.15,3298.89C4728.49,3295.47 4734.23,3293.8 4741.38,3293.89C4748.37,3293.97 4754.33,3296.02 4759.24,3300.05C4764.15,3304.08 4767.84,3309.4 4770.31,3316C4772.78,3322.6 4773.97,3329.73 4773.88,3337.38C4773.74,3349.37 4770.56,3359.45 4764.34,3367.61C4758.12,3375.77 4749.03,3380.14 4737.06,3380.72L4737.38,3354.51C4742.05,3354.13 4745.6,3352.26 4748.05,3348.89C4750.49,3345.53 4751.75,3341.32 4751.81,3336.26C4751.86,3332.22 4751.17,3328.6 4749.75,3325.4C4748.33,3322.21 4745.58,3320.59 4741.5,3320.54C4738.58,3320.51 4736.2,3321.78 4734.34,3324.36C4732.49,3326.93 4731,3330.02 4729.86,3333.62C4728.72,3337.22 4727.78,3340.39 4727.01,3343.12C4725.03,3350.61 4722.76,3357.19 4720.22,3362.87C4717.67,3368.54 4714.27,3373.02 4710,3376.29C4705.73,3379.56 4700.03,3381.23 4692.88,3381.29C4685.74,3381.21 4679.71,3379.15 4674.8,3375.12C4669.89,3371.09 4666.2,3365.81 4663.73,3359.28C4661.25,3352.75 4660.06,3345.66 4660.15,3338.01Z" style="fill:rgb(26,24,23);fill-rule:nonzero;"/>
                    <path d="M4652.99,3437.82C4654.81,3426.41 4658.98,3418.25 4665.52,3413.35C4672.06,3408.44 4680.94,3406.87 4692.17,3408.62L4742.5,3416.48L4744.68,3402.78L4767.8,3406.39L4765.62,3420.09L4791.76,3424.17L4787.4,3451.56L4761.26,3447.48L4757.41,3471.67L4734.3,3468.06L4738.15,3443.88L4687.6,3435.98C4683.54,3435.35 4680.62,3435.99 4678.86,3437.91C4677.09,3439.83 4675.94,3442.5 4675.39,3445.92L4673.39,3458.55L4650.27,3454.94L4652.99,3437.82Z" style="fill:rgb(26,24,23);fill-rule:nonzero;"/>
                    <g transform="matrix(1,0,0,1,-0.34401,8.75917)">
                        <path d="M4645.33,3475.35L4749,3506.94L4740.84,3533.24L4725.37,3528.53C4730.11,3533.9 4733.15,3539.82 4734.5,3546.27C4735.86,3552.73 4735.48,3559.34 4733.38,3566.11L4705.37,3557.57L4707.56,3550.53C4710.17,3542.11 4710.1,3535.21 4707.35,3529.84C4704.59,3524.46 4698.48,3520.33 4689,3517.44L4637.17,3501.64L4645.33,3475.35Z" style="fill:rgb(26,24,23);fill-rule:nonzero;"/>
                    </g>
                    <path d="M4598.12,3592.38C4602.98,3582.68 4609.44,3575.09 4617.48,3569.62C4625.52,3564.14 4634.46,3561.17 4644.31,3560.7C4654.15,3560.22 4664.1,3562.47 4674.15,3567.42C4684.72,3572.63 4692.67,3579.41 4698.01,3587.76C4703.34,3596.12 4706.09,3605.14 4706.28,3614.83C4706.46,3624.52 4704.22,3634.02 4699.54,3643.33C4694.67,3653.03 4688.2,3660.65 4680.13,3666.19C4672.06,3671.73 4663.11,3674.87 4653.3,3675.6C4643.49,3676.33 4633.43,3674.15 4623.12,3669.07C4613.33,3664.25 4605.69,3657.74 4600.19,3649.55C4594.7,3641.35 4591.7,3632.33 4591.19,3622.48C4590.68,3612.63 4592.99,3602.6 4598.12,3592.38ZM4619.65,3603.48C4617.06,3608.65 4616.14,3613.81 4616.9,3618.94C4617.66,3624.07 4619.74,3628.85 4623.14,3633.27C4626.54,3637.69 4630.92,3641.21 4636.27,3643.85C4642.4,3646.87 4648.23,3648.25 4653.73,3647.98C4659.24,3647.71 4664.08,3646.18 4668.25,3643.4C4672.41,3640.61 4675.67,3636.89 4678,3632.23C4680.53,3627.19 4681.52,3622.15 4680.95,3617.11C4680.39,3612.07 4678.45,3607.41 4675.15,3603.12C4671.85,3598.83 4667.33,3595.27 4661.59,3592.44C4655.84,3589.61 4650.18,3588.24 4644.61,3588.31C4639.04,3588.39 4634.07,3589.77 4629.7,3592.46C4625.34,3595.15 4621.99,3598.82 4619.65,3603.48Z" style="fill:rgb(26,24,23);fill-rule:nonzero;"/>
                    <path d="M4532.84,3694.95C4537.86,3688.57 4543.73,3683.49 4550.48,3679.72C4557.22,3675.95 4564.19,3673.95 4571.38,3673.73C4578.57,3673.51 4585.24,3675.49 4591.38,3679.67L4574.19,3701.56C4570.07,3699.3 4565.78,3698.87 4561.34,3700.3C4556.89,3701.72 4553.19,3704.32 4550.24,3708.08C4547.73,3711.28 4546.11,3714.82 4545.35,3718.72C4544.6,3722.63 4545.77,3725.78 4548.88,3728.17C4551.3,3730.03 4554,3730.47 4556.99,3729.48C4559.99,3728.49 4562.96,3726.94 4565.91,3724.82C4568.86,3722.71 4571.53,3720.73 4573.89,3718.89C4579.75,3714.26 4585.46,3710.33 4591.03,3707.12C4596.59,3703.91 4602.15,3702.24 4607.69,3702.12C4613.23,3702 4618.83,3704.11 4624.47,3708.45C4629.99,3712.71 4633.48,3717.91 4634.93,3724.06C4636.38,3730.22 4636.08,3736.66 4634.02,3743.4C4631.96,3750.14 4628.56,3756.53 4623.82,3762.58C4616.39,3772.04 4607.71,3778.16 4597.78,3780.93C4587.84,3783.71 4577.93,3781.75 4568.05,3775.05L4584.29,3754.35C4588.24,3756.85 4592.22,3757.49 4596.22,3756.27C4600.22,3755.05 4603.79,3752.45 4606.92,3748.46C4609.43,3745.26 4611.09,3741.97 4611.91,3738.58C4612.72,3735.18 4611.52,3732.24 4608.3,3729.76C4606,3727.99 4603.32,3727.57 4600.27,3728.51C4597.22,3729.46 4594.15,3731.02 4591.05,3733.21C4587.95,3735.39 4585.26,3737.35 4582.98,3739.07C4576.83,3743.85 4571.01,3747.74 4565.52,3750.73C4560.03,3753.73 4554.59,3755.25 4549.19,3755.31C4543.8,3755.36 4538.23,3753.27 4532.5,3749.04C4526.86,3744.69 4523.32,3739.44 4521.87,3733.29C4520.41,3727.14 4520.7,3720.73 4522.71,3714.04C4524.72,3707.36 4528.1,3701 4532.84,3694.95Z" style="fill:rgb(26,24,23);fill-rule:nonzero;"/>
                    <g transform="matrix(1,0,0,1,-2.01637,2.34431)">
                        <path d="M4494.23,3745.85L4594.65,3860.32L4573.52,3878.51L4514.13,3810.81L4517.02,3868.6L4489.79,3892.06L4490.05,3820.35L4418.14,3811.37L4445.37,3787.92L4503.37,3798.55L4473.1,3764.04L4494.23,3745.85Z" style="fill:rgb(26,24,23);fill-rule:nonzero;"/>
                    </g>
                    <path d="M4370.61,3785.25L4376.29,3842.68L4465.78,3910.04L4438.63,3925.42L4377.65,3875.6L4389.45,3953.26L4363.82,3967.78L4344.98,3799.76L4370.61,3785.25Z" style="fill:rgb(26,24,23);fill-rule:nonzero;"/>
                </g>
                <g transform="matrix(1.01224,0,0,1.01224,-185.15,-44.1195)">
                    <g transform="matrix(0.551475,0.226348,-0.338632,0.825045,8994.28,-3087.66)">
                        <path d="M14987,2016.23C14987,2016.23 14992.9,2078.35 14998.3,2134.03C15003.1,2184.24 15059.9,2225.32 15134.4,2232.49C15175.5,2236.45 15210.6,2239.83 15210.6,2239.83C15210.6,2239.83 15175.2,2243.23 15133.9,2247.21C15059.7,2254.36 15003.2,2295.27 14998.3,2345.27C14993,2401.03 14987,2463.42 14987,2463.42C14987,2463.42 14980.9,2401.03 14975.6,2345.27C14970.8,2295.27 14914.2,2254.36 14840,2247.21C14798.7,2243.23 14763.4,2239.83 14763.4,2239.83C14763.4,2239.83 14798.7,2236.42 14840,2232.44C14914.2,2225.29 14970.8,2184.39 14975.6,2134.39C14980.9,2078.62 14987,2016.23 14987,2016.23Z" style="fill:rgb(26,24,23);"/>
                    </g>
                    <g transform="matrix(0.286509,0.117595,-0.17593,0.428637,12838.8,-765.299)">
                        <path d="M14987,2016.23C14987,2016.23 14992.9,2078.35 14998.3,2134.03C15003.1,2184.24 15059.9,2225.32 15134.4,2232.49C15175.5,2236.45 15210.6,2239.83 15210.6,2239.83C15210.6,2239.83 15175.2,2243.23 15133.9,2247.21C15059.7,2254.36 15003.2,2295.27 14998.3,2345.27C14993,2401.03 14987,2463.42 14987,2463.42C14987,2463.42 14980.9,2401.03 14975.6,2345.27C14970.8,2295.27 14914.2,2254.36 14840,2247.21C14798.7,2243.23 14763.4,2239.83 14763.4,2239.83C14763.4,2239.83 14798.7,2236.42 14840,2232.44C14914.2,2225.29 14970.8,2184.39 14975.6,2134.39C14980.9,2078.62 14987,2016.23 14987,2016.23Z" style="fill:rgb(26,24,23);"/>
                    </g>
                    <g transform="matrix(0.286509,0.117595,-0.17593,0.428637,12314.1,-433.322)">
                        <path d="M14987,2016.23C14987,2016.23 14992.9,2078.35 14998.3,2134.03C15003.1,2184.24 15059.9,2225.32 15134.4,2232.49C15175.5,2236.45 15210.6,2239.83 15210.6,2239.83C15210.6,2239.83 15175.2,2243.23 15133.9,2247.21C15059.7,2254.36 15003.2,2295.27 14998.3,2345.27C14993,2401.03 14987,2463.42 14987,2463.42C14987,2463.42 14980.9,2401.03 14975.6,2345.27C14970.8,2295.27 14914.2,2254.36 14840,2247.21C14798.7,2243.23 14763.4,2239.83 14763.4,2239.83C14763.4,2239.83 14798.7,2236.42 14840,2232.44C14914.2,2225.29 14970.8,2184.39 14975.6,2134.39C14980.9,2078.62 14987,2016.23 14987,2016.23Z" style="fill:rgb(26,24,23);"/>
                    </g>
                </g>
            </g>
        </g>
    </g>
    <defs>
        <linearGradient id="_Linear1" x1="0" y1="0" x2="1" y2="0" gradientUnits="userSpaceOnUse" gradientTransform="matrix(-24.5512,-75.8176,-63.1326,20.2633,248.063,176.864)"><stop offset="0" style="stop-color:rgb(81,87,89);stop-opacity:1"/><stop offset="1" style="stop-color:rgb(162,165,170);stop-opacity:1"/></linearGradient>
        <linearGradient id="_Linear2" x1="0" y1="0" x2="1" y2="0" gradientUnits="userSpaceOnUse" gradientTransform="matrix(-24.2539,-76.3269,-63.6077,19.8606,164.231,206.866)"><stop offset="0" style="stop-color:rgb(154,160,162);stop-opacity:1"/><stop offset="0.56" style="stop-color:rgb(207,212,213);stop-opacity:1"/><stop offset="1" style="stop-color:rgb(230,234,235);stop-opacity:1"/></linearGradient>
        <linearGradient id="_Linear3" x1="0" y1="0" x2="1" y2="0" gradientUnits="userSpaceOnUse" gradientTransform="matrix(-19.7971,-58.8127,-48.8899,16.5955,119.527,215.187)"><stop offset="0" style="stop-color:rgb(81,87,89);stop-opacity:1"/><stop offset="1" style="stop-color:rgb(162,165,170);stop-opacity:1"/></linearGradient>
        <linearGradient id="_Linear4" x1="0" y1="0" x2="1" y2="0" gradientUnits="userSpaceOnUse" gradientTransform="matrix(-24.2539,-76.3269,-63.6077,19.8606,164.231,206.866)"><stop offset="0" style="stop-color:rgb(154,160,162);stop-opacity:1"/><stop offset="0.56" style="stop-color:rgb(207,212,213);stop-opacity:1"/><stop offset="1" style="stop-color:rgb(230,234,235);stop-opacity:1"/></linearGradient>
        <linearGradient id="_Linear5" x1="0" y1="0" x2="1" y2="0" gradientUnits="userSpaceOnUse" gradientTransform="matrix(-29.4826,-92.5296,-77.1014,24.17,289.286,177.588)"><stop offset="0" style="stop-color:rgb(81,87,89);stop-opacity:1"/><stop offset="1" style="stop-color:rgb(162,165,170);stop-opacity:1"/></linearGradient>
    </defs>
</svg>
