<?xml version="1.0" encoding="UTF-8" standalone="no"?>
<!DOCTYPE svg PUBLIC "-//W3C//DTD SVG 1.1//EN" "http://www.w3.org/Graphics/SVG/1.1/DTD/svg11.dtd">
<svg width="100%" height="100%" viewBox="0 0 2481 2481" version="1.1" xmlns="http://www.w3.org/2000/svg" xmlns:xlink="http://www.w3.org/1999/xlink" xml:space="preserve" xmlns:serif="http://www.serif.com/" style="fill-rule:evenodd;clip-rule:evenodd;stroke-linejoin:round;stroke-miterlimit:2;">
    <g transform="matrix(1,0,0,1,-3388.9,-3199.15)">
        <g id="specials" transform="matrix(1,0,0,1,-8847.44,3182.81)">
            <rect x="12236.3" y="16.332" width="2480.34" height="2480.7" style="fill:none;"/>
            <clipPath id="_clip1">
                <rect x="12236.3" y="16.332" width="2480.34" height="2480.7"/>
            </clipPath>
            <g clip-path="url(#_clip1)">
                <g transform="matrix(1.03136,0,0,1.02766,-421.058,-34.576)">
                    <rect x="12239.3" y="16.724" width="2472.76" height="2482.77" style="fill:rgb(23,23,23);"/>
                </g>
                <g transform="matrix(0.763564,0,0,0.763564,3184.79,291.897)">
                    <circle cx="13478.7" cy="1263.42" r="1240.16" style="fill:rgb(37,37,37);"/>
                </g>
                <g id="Astrobot" transform="matrix(1.24967,0,0,1.24967,-3369.59,-240.378)">
                    <g transform="matrix(1.00669,0,0,0.987902,6265.81,-3131.97)">
                        <path d="M7686.96,4277.43L7686.96,4614.34C7686.96,4655.57 7654.12,4689.04 7613.66,4689.04L6719.93,4689.04C6679.48,4689.04 6646.64,4655.57 6646.64,4614.34L6646.64,4277.43C6646.64,4236.21 6679.48,4202.74 6719.93,4202.74L7613.66,4202.74C7654.12,4202.74 7686.96,4236.21 7686.96,4277.43Z" style="fill:rgb(200,37,40);"/>
                    </g>
                    <g transform="matrix(1.00738,0,0,1.00366,6261.74,-3194.28)">
                        <path d="M7591.45,4124.89L7591.45,4748.64C7591.45,4786.08 7561.17,4816.47 7523.88,4816.47L6808.05,4816.47C6770.75,4816.47 6740.47,4786.08 6740.47,4748.64L6740.47,4124.89C6740.47,4087.45 6770.75,4057.06 6808.05,4057.06L7523.88,4057.06C7561.17,4057.06 7591.45,4087.45 7591.45,4124.89Z" style="fill:rgb(146,164,173);"/>
                    </g>
                    <g transform="matrix(-1.08406,1.3276e-16,-1.82024e-16,-1.48634,21222.3,8309.69)">
                        <path d="M7282.63,4679.39L7032.61,4679.39C7032.42,4676.52 7032.32,4673.65 7032.32,4670.79C7032.32,4601.63 7088.47,4545.48 7157.62,4545.48C7226.78,4545.48 7282.92,4601.63 7282.92,4670.79C7282.92,4673.65 7282.82,4676.52 7282.63,4679.39Z" style="fill:rgb(200,37,40);"/>
                        <path d="M7282.63,4679.39L7032.61,4679.39C7032.42,4676.52 7032.32,4673.65 7032.32,4670.79C7032.32,4601.63 7088.47,4545.48 7157.62,4545.48C7226.78,4545.48 7282.92,4601.63 7282.92,4670.79C7282.92,4673.65 7282.82,4676.52 7282.63,4679.39ZM7264.06,4665.71C7262.54,4630.3 7245.14,4598.99 7218.31,4579.32C7201.25,4566.81 7180.37,4559.16 7157.62,4559.16C7134.87,4559.16 7113.99,4566.81 7096.93,4579.32C7070.11,4598.99 7052.7,4630.3 7051.18,4665.71L7264.06,4665.71Z" style="fill:rgb(39,37,36);"/>
                    </g>
                    <g transform="matrix(1.1024,0,0,1.1024,-1366.08,-117.273)">
                        <g id="emoji_u2b50.svg" transform="matrix(2.08333,0,0,2.08333,13639.8,1120.45)">
                            <g transform="matrix(1,0,0,1,-64,-64)">
                                <g>
                                    <path d="M68.05,7.23L81.51,37.93C82.54,40.28 84.77,41.89 87.33,42.12L120.12,45.06C123.83,45.6 125.31,50.15 122.62,52.77L97.92,73.52C95.92,75.2 95.01,77.84 95.56,80.39L102.74,114C103.37,117.69 99.5,120.51 96.18,118.76L67.56,102C65.36,100.71 62.64,100.71 60.44,102L31.82,118.75C28.51,120.49 24.63,117.68 25.26,113.99L32.44,80.38C32.98,77.83 32.08,75.19 30.08,73.51L5.37,52.78C2.69,50.17 4.17,45.61 7.87,45.07L40.66,42.13C43.22,41.9 45.45,40.29 46.48,37.94L59.94,7.24C61.61,3.88 66.39,3.88 68.05,7.23Z" style="fill:rgb(253,216,53);fill-rule:nonzero;"/>
                                    <g>
                                        <path d="M67.07,39.77L64.79,17.15C64.7,15.89 64.44,13.73 66.46,13.73C68.06,13.73 68.93,17.06 68.93,17.06L75.77,35.22C78.35,42.13 77.29,44.5 74.8,45.9C71.94,47.5 67.72,46.25 67.07,39.77Z" style="fill:rgb(255,255,141);fill-rule:nonzero;"/>
                                    </g>
                                    <g>
                                        <path d="M95.28,71.51L114.9,56.2C115.87,55.39 117.62,54.1 116.22,52.63C115.11,51.47 112.11,53.14 112.11,53.14L94.94,59.85C89.82,61.62 86.42,64.24 86.12,67.54C85.73,71.94 89.68,75.33 95.28,71.51Z" style="fill:rgb(244,180,0);fill-rule:nonzero;"/>
                                    </g>
                                </g>
                            </g>
                        </g>
                        <g id="emoji_u2b50.svg1" serif:id="emoji_u2b50.svg" transform="matrix(2.08333,0,0,2.08333,13306.5,1120.45)">
                            <g transform="matrix(1,0,0,1,-64,-64)">
                                <g>
                                    <path d="M68.05,7.23L81.51,37.93C82.54,40.28 84.77,41.89 87.33,42.12L120.12,45.06C123.83,45.6 125.31,50.15 122.62,52.77L97.92,73.52C95.92,75.2 95.01,77.84 95.56,80.39L102.74,114C103.37,117.69 99.5,120.51 96.18,118.76L67.56,102C65.36,100.71 62.64,100.71 60.44,102L31.82,118.75C28.51,120.49 24.63,117.68 25.26,113.99L32.44,80.38C32.98,77.83 32.08,75.19 30.08,73.51L5.37,52.78C2.69,50.17 4.17,45.61 7.87,45.07L40.66,42.13C43.22,41.9 45.45,40.29 46.48,37.94L59.94,7.24C61.61,3.88 66.39,3.88 68.05,7.23Z" style="fill:rgb(253,216,53);fill-rule:nonzero;"/>
                                    <g>
                                        <path d="M67.07,39.77L64.79,17.15C64.7,15.89 64.44,13.73 66.46,13.73C68.06,13.73 68.93,17.06 68.93,17.06L75.77,35.22C78.35,42.13 77.29,44.5 74.8,45.9C71.94,47.5 67.72,46.25 67.07,39.77Z" style="fill:rgb(255,255,141);fill-rule:nonzero;"/>
                                    </g>
                                    <g>
                                        <path d="M95.28,71.51L114.9,56.2C115.87,55.39 117.62,54.1 116.22,52.63C115.11,51.47 112.11,53.14 112.11,53.14L94.94,59.85C89.82,61.62 86.42,64.24 86.12,67.54C85.73,71.94 89.68,75.33 95.28,71.51Z" style="fill:rgb(244,180,0);fill-rule:nonzero;"/>
                                    </g>
                                </g>
                            </g>
                        </g>
                        <g transform="matrix(1.03012,0,0,1.04583,8576.94,-3382.73)">
                            <path d="M4541.27,4244.4L4566.38,4188.75L4570.56,4182.25L4576.32,4177.29L4583.26,4174.12L4590.98,4173.01L4598.71,4174.12L4605.65,4177.29L4611.41,4182.25L4615.59,4188.75L4640.7,4244.4L4703.09,4251.28L4710.38,4253.15L4716.71,4256.9L4721.73,4262.24L4725.08,4268.88L4726.38,4276.19L4725.55,4283.42L4722.7,4290.13L4717.96,4295.9L4671.27,4338.38L4683.96,4399.63L4684.39,4407.15L4682.67,4414.32L4678.98,4420.74L4673.49,4425.98L4666.71,4429.44L4659.36,4430.85L4651.9,4430.16L4644.8,4427.37L4590.98,4396.66L4537.41,4427.23L4530.28,4430.04L4522.78,4430.72L4515.4,4429.32L4508.58,4425.83L4503.07,4420.58L4499.36,4414.13L4497.64,4406.91L4498.07,4399.36L4510.7,4338.38L4464.34,4296.2L4459.56,4290.39L4456.7,4283.63L4455.86,4276.34L4457.17,4268.97L4460.55,4262.28L4465.6,4256.9L4471.98,4253.12L4479.33,4251.23L4541.27,4244.4ZM4583.02,4196.03L4556.47,4254.85C4554.73,4258.7 4551.04,4261.36 4546.79,4261.83L4481.35,4269.04C4478.16,4269.4 4475.46,4271.55 4474.46,4274.56C4473.46,4277.57 4474.33,4280.88 4476.69,4283.03L4526.37,4328.23C4528.99,4330.61 4530.15,4334.17 4529.44,4337.61L4515.9,4402.95C4515.24,4406.12 4516.54,4409.39 4519.21,4411.28C4521.88,4413.17 4525.44,4413.34 4528.28,4411.72L4587.16,4378.13C4589.53,4376.78 4592.44,4376.78 4594.81,4378.13L4653.93,4411.86C4656.73,4413.46 4660.23,4413.29 4662.86,4411.42C4665.49,4409.56 4666.77,4406.35 4666.12,4403.22L4652.61,4338.03C4651.85,4334.33 4653.1,4330.5 4655.92,4327.94L4705.61,4282.73C4707.91,4280.63 4708.77,4277.41 4707.79,4274.47C4706.81,4271.54 4704.18,4269.44 4701.07,4269.09L4633.61,4261.65C4630.33,4261.29 4627.49,4259.24 4626.15,4256.27L4598.95,4196.03C4597.56,4192.93 4594.43,4190.93 4590.98,4190.93C4587.54,4190.93 4584.41,4192.93 4583.02,4196.03Z" style="fill:rgb(39,37,36);"/>
                        </g>
                        <g transform="matrix(1.03012,0,0,1.04583,8910.94,-3382.73)">
                            <path d="M4541.27,4244.4L4566.38,4188.75L4570.56,4182.25L4576.32,4177.29L4583.26,4174.12L4590.98,4173.01L4598.71,4174.12L4605.65,4177.29L4611.41,4182.25L4615.59,4188.75L4640.7,4244.4L4703.09,4251.28L4710.38,4253.15L4716.71,4256.9L4721.73,4262.24L4725.08,4268.88L4726.38,4276.19L4725.55,4283.42L4722.7,4290.13L4717.96,4295.9L4671.27,4338.38L4683.96,4399.63L4684.39,4407.15L4682.67,4414.32L4678.98,4420.74L4673.49,4425.98L4666.71,4429.44L4659.36,4430.85L4651.9,4430.16L4644.8,4427.37L4590.98,4396.66L4537.41,4427.23L4530.28,4430.04L4522.78,4430.72L4515.4,4429.32L4508.58,4425.83L4503.07,4420.58L4499.36,4414.13L4497.64,4406.91L4498.07,4399.36L4510.7,4338.38L4464.34,4296.2L4459.56,4290.39L4456.7,4283.63L4455.86,4276.34L4457.17,4268.97L4460.55,4262.28L4465.6,4256.9L4471.98,4253.12L4479.33,4251.23L4541.27,4244.4ZM4583.02,4196.03L4556.47,4254.85C4554.73,4258.7 4551.04,4261.36 4546.79,4261.83L4481.35,4269.04C4478.16,4269.4 4475.46,4271.55 4474.46,4274.56C4473.46,4277.57 4474.33,4280.88 4476.69,4283.03L4526.37,4328.23C4528.99,4330.61 4530.15,4334.17 4529.44,4337.61L4515.9,4402.95C4515.24,4406.12 4516.54,4409.39 4519.21,4411.28C4521.88,4413.17 4525.44,4413.34 4528.28,4411.72L4587.16,4378.13C4589.53,4376.78 4592.44,4376.78 4594.81,4378.13L4653.93,4411.86C4656.73,4413.46 4660.23,4413.29 4662.86,4411.42C4665.49,4409.56 4666.77,4406.35 4666.12,4403.22L4652.61,4338.03C4651.85,4334.33 4653.1,4330.5 4655.92,4327.94L4705.61,4282.73C4707.91,4280.63 4708.77,4277.41 4707.79,4274.47C4706.81,4271.54 4704.18,4269.44 4701.07,4269.09L4633.61,4261.65C4630.33,4261.29 4627.49,4259.24 4626.15,4256.27L4598.95,4196.03C4597.56,4192.93 4594.43,4190.93 4590.98,4190.93C4587.54,4190.93 4584.41,4192.93 4583.02,4196.03Z" style="fill:rgb(39,37,36);"/>
                        </g>
                    </g>
                    <g transform="matrix(1.00409,0,0,1.00409,6259.84,-3223.74)">
                        <circle cx="7191.52" cy="3887.44" r="85.619" style="fill:rgb(146,164,173);"/>
                    </g>
                    <g transform="matrix(0.43953,0,0,0.43953,10319.9,-1029.03)">
                        <circle cx="7191.52" cy="3887.44" r="85.619" style="fill:rgb(200,37,40);"/>
                    </g>
                    <g transform="matrix(1,0,0,1,6317.33,-3182.81)">
                        <rect x="7136.56" y="3927.12" width="50.805" height="162.824" style="fill:rgb(146,164,173);"/>
                    </g>
                </g>
            </g>
        </g>
    </g>
</svg>
