<?xml version="1.0" encoding="UTF-8" standalone="no"?>
<!DOCTYPE svg PUBLIC "-//W3C//DTD SVG 1.1//EN" "http://www.w3.org/Graphics/SVG/1.1/DTD/svg11.dtd">
<svg width="100%" height="100%" viewBox="0 0 2481 2481" version="1.1" xmlns="http://www.w3.org/2000/svg" xmlns:xlink="http://www.w3.org/1999/xlink" xml:space="preserve" xmlns:serif="http://www.serif.com/" style="fill-rule:evenodd;clip-rule:evenodd;stroke-linecap:round;stroke-linejoin:round;stroke-miterlimit:1.5;">
    <g transform="matrix(1,0,0,1,-5857.95,-3199.15)">
        <g id="ICONS" transform="matrix(1,0,0,1,-6378.39,3182.81)">
            <rect x="12236.3" y="16.332" width="2480.34" height="2480.7" style="fill:none;"/>
            <clipPath id="_clip1">
                <rect x="12236.3" y="16.332" width="2480.34" height="2480.7"/>
            </clipPath>
            <g clip-path="url(#_clip1)">
                <g transform="matrix(1.03136,0,0,1.02766,-421.058,-34.576)">
                    <rect x="12239.3" y="16.724" width="2472.76" height="2482.77" style="fill:rgb(23,23,23);"/>
                </g>
                <g id="TELESCOPE" transform="matrix(0.557128,0,0,0.557128,6593.47,1105.8)">
                    <g transform="matrix(-2.04241,-0.334381,-0.0938338,1.7839,14592.1,1015.05)">
                        <path d="M164.124,211.771L139.129,129.257C139.129,129.257 131.234,132.262 124.224,134.93C115.272,138.336 109.195,147.384 108.389,158.509C107.918,165.399 108.481,173.798 111.507,183.225C114.228,191.702 118.015,198.462 121.894,203.728C129.415,213.877 140.964,218.505 151.275,215.503C157.693,213.644 164.124,211.771 164.124,211.771Z" style="fill:url(#_Linear2);"/>
                    </g>
                    <g transform="matrix(-3.62373,-0.593272,-0.166484,3.16506,14720.1,765.118)">
                        <path d="M196.551,202.329L168.313,118.15C168.313,118.15 132.362,131.833 118.741,137.017C115.096,138.403 112.291,141.572 111.009,145.751C108.664,153.559 106.284,167.364 111.507,183.225C116.716,199.042 125.509,208.898 131.644,214.216C135.516,217.499 140.289,218.686 144.583,217.436C159.469,213.127 196.551,202.329 196.551,202.329Z" style="fill:url(#_Linear3);"/>
                    </g>
                    <g transform="matrix(-3.62373,-0.593272,-0.166484,3.16506,14720.1,765.118)">
                        <path d="M120.847,202.113C124.581,207.494 128.469,211.463 131.644,214.216C135.516,217.499 140.289,218.686 144.583,217.436C159.469,213.127 196.551,202.329 196.551,202.329L188.617,178.677L120.847,202.113Z" style="fill:rgb(156,161,164);"/>
                    </g>
                    <g transform="matrix(-5.89667,-0.965395,-0.270909,5.15031,14688.5,301.451)">
                        <path d="M113.152,140.85C113.152,140.85 103.691,144.809 98.464,146.997C96.036,148.013 94.229,150.259 93.514,153.151C91.974,159.382 90.596,171.54 96.213,188.36C101.794,205.07 110.079,214.87 115.168,219.666C117.725,222.057 121.016,222.912 123.914,221.939C128.964,220.246 136.737,217.636 136.737,217.636L113.152,140.85Z" style="fill:url(#_Linear4);"/>
                    </g>
                    <g transform="matrix(-5.89667,-0.965395,-0.270909,5.15031,14688.5,301.451)">
                        <path d="M231.698,94.027C231.698,94.027 134.979,130.836 116.592,137.834C114.542,138.614 112.917,140.315 112.052,142.586C109.575,149.365 105.481,164.927 111.507,183.225C117.651,201.88 128.781,212.243 134.653,216.649C136.932,218.333 139.618,218.89 142.044,218.184C161.942,212.407 259.217,184.08 259.217,184.08L231.698,94.027Z" style="fill:url(#_Linear5);"/>
                    </g>
                    <g transform="matrix(-5.89667,-0.965395,-0.270909,5.15031,14688.5,301.451)">
                        <path d="M123.819,206.082C127.885,211.116 131.863,214.555 134.653,216.649C136.932,218.333 139.618,218.89 142.044,218.184C161.942,212.407 259.217,184.08 259.217,184.08L252.493,162.077L123.819,206.082Z" style="fill:rgb(156,161,164);"/>
                    </g>
                    <g transform="matrix(2.04578,-1.10671e-16,-3.40691e-16,2.04578,7500.94,-158.091)">
                        <path d="M2896.96,433.197L3081.45,522.081" style="fill:none;stroke:white;stroke-width:41.67px;"/>
                    </g>
                    <g transform="matrix(-5.89667,-0.965395,-0.270909,5.15031,14716.5,317.017)">
                        <path d="M300.686,60.191L234.634,85.941C234.634,85.941 221.441,114.376 233.022,145.422C244.973,177.462 263.938,187.131 264.903,187.348C265.869,187.566 332.884,169.381 332.884,169.381L300.686,60.191Z" style="fill:rgb(38,38,38);"/>
                    </g>
                    <g transform="matrix(-5.89667,-0.965395,-0.270909,5.15031,14688.5,301.451)">
                        <path d="M302.382,59.27C302.382,59.27 251.457,79.318 237.911,84.651C235.723,85.512 234.001,87.357 233.099,89.805C230.019,98.612 223.996,121.224 233.022,145.422C242.31,170.322 255.897,182.13 262.177,186.268C263.977,187.454 264.973,188.007 266.718,187.824C276.362,185.378 338.851,168.987 338.851,168.987L302.382,59.27Z" style="fill:url(#_Linear6);"/>
                    </g>
                    <g transform="matrix(-6.4344,-2.96317,-2.62806,5.69913,15184.3,835.487)">
                        <ellipse cx="324.869" cy="124.092" rx="21.046" ry="46.502" style="fill:rgb(209,216,219);"/>
                    </g>
                    <g transform="matrix(-4.71109,-2.16955,-1.92419,4.17275,14545.5,769.05)">
                        <ellipse cx="324.869" cy="124.092" rx="21.046" ry="46.502" style="fill:rgb(32,36,38);"/>
                    </g>
                    <g transform="matrix(1.69989,0.150446,0.0673442,1.50266,10842.8,-1080.89)">
                        <path d="M1178.04,941.448C1178.04,941.448 1136.95,924.681 1097.67,1011.48C1059.92,1094.91 1091.83,1114.7 1093.59,1113.4C1111.89,1099.98 1167.61,1030.64 1178.04,941.448Z" style="fill:white;"/>
                    </g>
                    <g transform="matrix(2.04578,0,0,2.04578,5217.46,-1558.17)">
                        <path d="M3761.47,1094.21C3755.21,1091.24 3747.72,1093.63 3744.33,1099.67C3735.84,1114.12 3718.14,1140.28 3692.33,1160.59C3692.34,1160.58 3838.31,1222.78 3870.16,1236.35C3874.22,1238.08 3878.88,1237.62 3882.52,1235.12C3890.89,1229.22 3906.95,1215.53 3926.04,1187.1C3927.92,1184.32 3928.59,1180.9 3927.91,1177.61C3927.22,1174.32 3925.23,1171.45 3922.39,1169.66C3889.47,1154.04 3794.15,1109.48 3761.47,1094.21Z" style="fill:rgb(45,51,58);"/>
                    </g>
                    <g transform="matrix(1.73161,0,0,8.13619,6480.44,-20927)">
                        <path d="M4022.63,2842.51C4016.79,2842.11 4007.37,2840.95 4007.37,2839.58L4007.37,2765.4L4075.41,2765.4L4075.36,2839.53C4075.2,2841.04 4066,2842.27 4060.41,2842.53L4060.41,2879.04L4022.63,2879.04L4022.63,2842.51Z" style="fill:rgb(155,181,195);"/>
                    </g>
                    <g transform="matrix(4.57766,0,0,4.57766,-64597.9,-11256.2)">
                        <path d="M16996.4,2802.43L16947.9,2901.75C16947.9,2901.75 16946.2,2903.83 16947.9,2910.2C16947.6,2910.9 16901.7,3004.43 16901.7,3004.43L16916.9,3004.43L16960.1,2916.98C16960.1,2916.98 16965.4,2915.25 16966.7,2912.33C16967.3,2910.95 17020.5,2802.45 17020.5,2802.45L16996.4,2802.43Z" style="fill:rgb(158,181,195);"/>
                    </g>
                    <g transform="matrix(2.09503,0,0,2.04578,5019.52,-1558.17)">
                        <path d="M4045.21,1457.62L4045.21,1530.69L3889.56,1530.69C3884.55,1530.69 3880.49,1526.53 3880.49,1521.4L3880.49,1502.81C3880.49,1497.68 3884.55,1493.51 3889.56,1493.51L3989.67,1493.51L3989.67,1457.62L4045.21,1457.62Z" style="fill:rgb(155,181,195);"/>
                    </g>
                    <g transform="matrix(2.09503,0,0,2.04578,5019.52,-1558.17)">
                        <path d="M3989.67,1448.34L3989.67,1448.29C3969.12,1448.26 3963.62,1448.23 3963.04,1448.23L3971.68,1406.62C3971.68,1399.14 3977.61,1393.06 3984.92,1393.06L4032.1,1393.06L4032.1,1448.34L3989.67,1448.34Z" style="fill:rgb(158,181,195);"/>
                    </g>
                    <g transform="matrix(2.04729,0,0,2.04711,11544.9,-1477.48)">
                        <path d="M811.016,1490.29L865.063,1490.35L845.409,1530.34C845.409,1530.34 842.141,1503.09 807.866,1496.9C808.106,1496.31 811.016,1490.29 811.016,1490.29Z" style="fill:rgb(86,122,142);"/>
                    </g>
                    <g transform="matrix(-6.06772,0,0,6.06772,14657.8,-92.8091)">
                        <path d="M198.704,228.221L209.175,228.221L209.175,213.454C210.802,212.216 212.47,210.329 213.846,208.24C216.212,204.647 215.192,197.469 215.129,196.945C206.095,196.905 203.429,194.985 200.887,192.615C198.345,190.244 196.027,187.771 188.987,187.658C182.111,187.171 177.746,190.099 175.216,192.817C174.973,193.026 174.746,193.231 174.537,193.428C172.355,195.478 171.099,198.429 171.19,202.803C171.306,208.352 173.824,211.753 176.603,213.779C177.421,214.413 178.308,214.928 179.24,215.308C179.427,215.392 179.613,215.472 179.795,215.546L179.885,227.202L179.898,228.182L176.602,228.182C174.069,228.182 172.012,230.23 172.012,232.753L168.85,246.856C169.051,246.856 170.898,246.848 177.945,246.838L177.945,246.84L177.742,246.84L177.594,262.023L177.945,262.027L177.945,262.048L143.403,262.048C141.666,262.048 140.256,263.453 140.256,265.182L140.256,271.451C140.256,273.18 141.666,274.585 143.403,274.585L150.815,274.593L114.156,349.66C114.156,349.66 112.801,351.241 114.197,356.036C113.934,356.561 79.469,426.826 79.469,426.826L90.923,426.824L123.356,361.144C123.356,361.144 127.362,359.837 128.355,357.633C128.81,356.622 167.03,278.668 169.021,274.613L184.468,274.629C184.468,274.629 184.491,288.3 184.532,288.294C184.517,315.663 184.49,374.41 184.541,374.913C184.828,376.825 188.896,377.947 188.896,377.947C188.896,377.947 190.06,378.221 191.906,378.252C191.99,326.131 192.098,300.709 192.184,287.641C195.37,287.488 199.435,287.417 204.175,287.599C204.094,287.401 204.104,274.599 204.104,274.599L198.704,274.606L198.704,263.121L198.704,260.603C199.758,250.873 210.916,250.135 210.916,250.135L210.923,246.788L198.704,246.807L198.704,228.221Z" style="fill:rgb(86,122,142);"/>
                    </g>
                    <g transform="matrix(2.04578,0,0,2.04578,3071.49,-4511.86)">
                        <path d="M5144.2,2732.48C5133.84,2723.42 5112.68,2711.12 5085.23,2728.91C5056.24,2747.69 5067.78,2781.92 5069.74,2785.66C5071.48,2788.99 5075.99,2796.46 5083.53,2799.24C5067.92,2798.58 5053.17,2797.91 5052.97,2797.73C5045.85,2797.35 5036.27,2788.47 5029.25,2777.82C5022.24,2767.16 5025.26,2745.87 5025.45,2744.31C5052.24,2744.2 5060.15,2738.5 5067.69,2731.47C5075.23,2724.44 5082.1,2717.1 5102.98,2716.77C5123.72,2715.3 5136.76,2724.3 5144.2,2732.48Z" style="fill:rgb(54,80,97);"/>
                    </g>
                    <g transform="matrix(2.04578,0,0,2.04578,11545.5,-1475.68)">
                        <path d="M988.067,1315.29L987.799,1352.74L953.098,1352.66L953.098,1316.59C961.188,1317.29 972.38,1318.23 976.391,1318.18C978.414,1318.16 982.895,1317.41 988.067,1315.29Z" style="fill:rgb(54,80,97);"/>
                    </g>
                    <g transform="matrix(2.5021,0.599495,-0.640863,2.67476,5507.62,-8763.39)">
                        <ellipse cx="3937.37" cy="2822.13" rx="25.282" ry="26.635" style="fill:rgb(54,80,97);"/>
                    </g>
                </g>
                <g id="Cosmology" transform="matrix(2.54799,0,0,2.54799,2312.25,-29463.6)">
                    <g transform="matrix(-0.407713,-0.354417,0.317457,-0.365196,1497.34,17801.2)">
                        <path d="M3190.51,12157C3217.51,12231.6 3265.55,12261.6 3257.99,12319.2C3253.09,12356.4 3219.61,12379.9 3197.06,12396.8C3174.03,12414 3142.11,12465.8 3141.09,12501.8C3140.07,12537.8 3158.02,12567.6 3158.02,12567.6" style="fill:none;stroke:rgb(158,181,195);stroke-width:36.71px;"/>
                    </g>
                    <g transform="matrix(0.951995,0.306113,-0.306113,0.951995,3956,-710.391)">
                        <g transform="matrix(0.569514,0,0,0.569514,2348.17,5281.48)">
                            <path d="M3210.18,11237.9C3317.74,11254.4 3414.8,11329.7 3442.94,11456C3455.46,11512.2 3454.08,11590.6 3426.11,11661.8C3385.98,11764.1 3285.33,11904.4 3188.8,11928.9C3145.39,11939.9 3115.37,11918.5 3078.86,11890.6C3076.58,11888.9 3073.76,11886.7 3070.49,11884C3071.33,11884.2 3072.15,11884.3 3072.95,11884.5C3090.42,11887.7 3327.99,11770.6 3358.87,11595.3C3400.97,11356.4 3275.76,11264.7 3210.18,11237.9Z" style="fill:rgb(86,122,142);"/>
                        </g>
                        <g transform="matrix(1.63766,0.338745,-0.734232,3.54963,-11710.3,-26705)">
                            <circle cx="13998.1" cy="9535.81" r="49.065" style="fill:url(#_Radial7);"/>
                        </g>
                        <g transform="matrix(0.900821,0,0,0.900821,1299.85,1326.8)">
                            <path d="M3145.58,11927.8C3145.58,11927.8 3146.51,11939.3 3145.65,11944C3145.09,11947.1 3136.16,11955.1 3130,11960.4C3128.69,11961.5 3128.04,11963.2 3128.28,11964.9C3128.51,11966.6 3129.6,11968.1 3131.16,11968.8C3138.72,11972.2 3151.45,11976.8 3164.49,11976.1C3177.47,11975.5 3189.95,11970.7 3197.36,11967.3C3198.95,11966.5 3200.08,11965.1 3200.38,11963.3C3200.68,11961.6 3200.12,11959.8 3198.87,11958.6C3193.14,11952.7 3184.7,11943.9 3184.24,11941.4C3183.53,11937.7 3184.23,11927.2 3184.23,11927.2L3145.58,11927.8Z" style="fill:rgb(86,122,142);"/>
                        </g>
                        <g transform="matrix(0.900821,0,0,0.900821,1299.85,1326.8)">
                            <path d="M3146.05,11929.7C3146.05,11929.7 3160.78,11935.6 3184.28,11930.4C3184.16,11934.8 3184.51,11941.4 3184.51,11941.4C3184.51,11941.4 3172.87,11954.6 3163.2,11954.3C3153.52,11954 3146.29,11942.9 3146.29,11942.9L3146.05,11929.7Z" style="fill:rgb(33,70,94);"/>
                        </g>
                        <g transform="matrix(0.569514,0,0,0.569514,2348.17,5281.48)">
                            <path d="M3070.49,11884C3021.18,11844.3 2867.82,11703.6 2891.6,11485.2C2916.95,11252.2 3131.44,11234.7 3161.7,11234.4C3177.97,11234.3 3194.19,11235.4 3210.18,11237.9C3275.76,11264.7 3391.03,11347.7 3373.51,11571C3358.17,11766.3 3251.68,11913 3194.41,11927.7C3134.72,11948.2 3075.35,11887.6 3073.47,11886.3C3073.01,11886 3071.55,11884.9 3070.49,11884Z" style="fill:url(#_Linear8);"/>
                        </g>
                    </g>
                    <g transform="matrix(11.0372,0,0,11.0372,-138036,-98118.9)">
                        <circle cx="12891.5" cy="9957.75" r="9.952" style="fill:url(#_Radial9);"/>
                    </g>
                </g>
            </g>
        </g>
    </g>
    <defs>
        <linearGradient id="_Linear2" x1="0" y1="0" x2="1" y2="0" gradientUnits="userSpaceOnUse" gradientTransform="matrix(-24.5512,-75.8176,-63.1326,20.2633,248.063,176.864)"><stop offset="0" style="stop-color:rgb(81,87,89);stop-opacity:1"/><stop offset="1" style="stop-color:rgb(162,165,170);stop-opacity:1"/></linearGradient>
        <linearGradient id="_Linear3" x1="0" y1="0" x2="1" y2="0" gradientUnits="userSpaceOnUse" gradientTransform="matrix(-24.2539,-76.3269,-63.6077,19.8606,164.231,206.866)"><stop offset="0" style="stop-color:rgb(154,160,162);stop-opacity:1"/><stop offset="0.56" style="stop-color:rgb(207,212,213);stop-opacity:1"/><stop offset="1" style="stop-color:rgb(230,234,235);stop-opacity:1"/></linearGradient>
        <linearGradient id="_Linear4" x1="0" y1="0" x2="1" y2="0" gradientUnits="userSpaceOnUse" gradientTransform="matrix(-19.7971,-58.8127,-48.8899,16.5955,119.527,215.187)"><stop offset="0" style="stop-color:rgb(81,87,89);stop-opacity:1"/><stop offset="1" style="stop-color:rgb(162,165,170);stop-opacity:1"/></linearGradient>
        <linearGradient id="_Linear5" x1="0" y1="0" x2="1" y2="0" gradientUnits="userSpaceOnUse" gradientTransform="matrix(-24.2539,-76.3269,-63.6077,19.8606,164.231,206.866)"><stop offset="0" style="stop-color:rgb(154,160,162);stop-opacity:1"/><stop offset="0.56" style="stop-color:rgb(207,212,213);stop-opacity:1"/><stop offset="1" style="stop-color:rgb(230,234,235);stop-opacity:1"/></linearGradient>
        <linearGradient id="_Linear6" x1="0" y1="0" x2="1" y2="0" gradientUnits="userSpaceOnUse" gradientTransform="matrix(-29.4826,-92.5296,-77.1014,24.17,289.286,177.588)"><stop offset="0" style="stop-color:rgb(81,87,89);stop-opacity:1"/><stop offset="1" style="stop-color:rgb(162,165,170);stop-opacity:1"/></linearGradient>
        <radialGradient id="_Radial7" cx="0" cy="0" r="1" gradientUnits="userSpaceOnUse" gradientTransform="matrix(40.3978,14.1771,-14.1771,40.3978,13999.3,9536.97)"><stop offset="0" style="stop-color:rgb(33,70,94);stop-opacity:1"/><stop offset="1" style="stop-color:rgb(33,70,94);stop-opacity:0"/></radialGradient>
        <linearGradient id="_Linear8" x1="0" y1="0" x2="1" y2="0" gradientUnits="userSpaceOnUse" gradientTransform="matrix(-387.911,-325.816,325.816,-387.911,3361.18,11710.4)"><stop offset="0" style="stop-color:rgb(106,141,159);stop-opacity:1"/><stop offset="0.53" style="stop-color:rgb(162,191,201);stop-opacity:1"/><stop offset="1" style="stop-color:rgb(183,210,217);stop-opacity:1"/></linearGradient>
        <radialGradient id="_Radial9" cx="0" cy="0" r="1" gradientUnits="userSpaceOnUse" gradientTransform="matrix(3.60976,7.125,-7.125,3.60976,12891.7,9957.59)"><stop offset="0" style="stop-color:rgb(226,237,239);stop-opacity:1"/><stop offset="1" style="stop-color:rgb(226,237,239);stop-opacity:0"/></radialGradient>
    </defs>
</svg>
