<?xml version="1.0" encoding="UTF-8" standalone="no"?>
<!DOCTYPE svg PUBLIC "-//W3C//DTD SVG 1.1//EN" "http://www.w3.org/Graphics/SVG/1.1/DTD/svg11.dtd">
<svg width="100%" height="100%" viewBox="0 0 2481 2481" version="1.1" xmlns="http://www.w3.org/2000/svg" xmlns:xlink="http://www.w3.org/1999/xlink" xml:space="preserve" xmlns:serif="http://www.serif.com/" style="fill-rule:evenodd;clip-rule:evenodd;stroke-linecap:round;stroke-linejoin:round;stroke-miterlimit:1.5;">
    <g transform="matrix(1,0,0,1,-5857.95,-3199.15)">
        <g id="ICONS" transform="matrix(1,0,0,1,-6378.39,3182.81)">
            <rect x="12236.3" y="16.332" width="2480.34" height="2480.7" style="fill:none;"/>
            <clipPath id="_clip1">
                <rect x="12236.3" y="16.332" width="2480.34" height="2480.7"/>
            </clipPath>
            <g clip-path="url(#_clip1)">
                <g transform="matrix(1.03136,0,0,1.02766,-421.058,-34.576)">
                    <rect x="12239.3" y="16.724" width="2472.76" height="2482.77" style="fill:rgb(23,23,23);"/>
                </g>
                <g id="TELESCOPE" transform="matrix(0.557128,0,0,0.557128,6593.47,1105.8)">
                    <g transform="matrix(-2.04241,-0.334381,-0.0938338,1.7839,14592.1,1015.05)">
                        <path d="M164.124,211.771L139.129,129.257C139.129,129.257 131.234,132.262 124.224,134.93C115.272,138.336 109.195,147.384 108.389,158.509C107.918,165.399 108.481,173.798 111.507,183.225C114.228,191.702 118.015,198.462 121.894,203.728C129.415,213.877 140.964,218.505 151.275,215.503C157.693,213.644 164.124,211.771 164.124,211.771Z" style="fill:url(#_Linear2);"/>
                    </g>
                    <g transform="matrix(-3.62373,-0.593272,-0.166484,3.16506,14720.1,765.118)">
                        <path d="M196.551,202.329L168.313,118.15C168.313,118.15 132.362,131.833 118.741,137.017C115.096,138.403 112.291,141.572 111.009,145.751C108.664,153.559 106.284,167.364 111.507,183.225C116.716,199.042 125.509,208.898 131.644,214.216C135.516,217.499 140.289,218.686 144.583,217.436C159.469,213.127 196.551,202.329 196.551,202.329Z" style="fill:url(#_Linear3);"/>
                    </g>
                    <g transform="matrix(-3.62373,-0.593272,-0.166484,3.16506,14720.1,765.118)">
                        <path d="M120.847,202.113C124.581,207.494 128.469,211.463 131.644,214.216C135.516,217.499 140.289,218.686 144.583,217.436C159.469,213.127 196.551,202.329 196.551,202.329L188.617,178.677L120.847,202.113Z" style="fill:rgb(156,161,164);"/>
                    </g>
                    <g transform="matrix(-5.89667,-0.965395,-0.270909,5.15031,14688.5,301.451)">
                        <path d="M113.152,140.85C113.152,140.85 103.691,144.809 98.464,146.997C96.036,148.013 94.229,150.259 93.514,153.151C91.974,159.382 90.596,171.54 96.213,188.36C101.794,205.07 110.079,214.87 115.168,219.666C117.725,222.057 121.016,222.912 123.914,221.939C128.964,220.246 136.737,217.636 136.737,217.636L113.152,140.85Z" style="fill:url(#_Linear4);"/>
                    </g>
                    <g transform="matrix(-5.89667,-0.965395,-0.270909,5.15031,14688.5,301.451)">
                        <path d="M231.698,94.027C231.698,94.027 134.979,130.836 116.592,137.834C114.542,138.614 112.917,140.315 112.052,142.586C109.575,149.365 105.481,164.927 111.507,183.225C117.651,201.88 128.781,212.243 134.653,216.649C136.932,218.333 139.618,218.89 142.044,218.184C161.942,212.407 259.217,184.08 259.217,184.08L231.698,94.027Z" style="fill:url(#_Linear5);"/>
                    </g>
                    <g transform="matrix(-5.89667,-0.965395,-0.270909,5.15031,14688.5,301.451)">
                        <path d="M123.819,206.082C127.885,211.116 131.863,214.555 134.653,216.649C136.932,218.333 139.618,218.89 142.044,218.184C161.942,212.407 259.217,184.08 259.217,184.08L252.493,162.077L123.819,206.082Z" style="fill:rgb(156,161,164);"/>
                    </g>
                    <g transform="matrix(2.04578,-1.10671e-16,-3.40691e-16,2.04578,7500.94,-158.091)">
                        <path d="M2896.96,433.197L3081.45,522.081" style="fill:none;stroke:white;stroke-width:41.67px;"/>
                    </g>
                    <g transform="matrix(-5.89667,-0.965395,-0.270909,5.15031,14716.5,317.017)">
                        <path d="M300.686,60.191L234.634,85.941C234.634,85.941 221.441,114.376 233.022,145.422C244.973,177.462 263.938,187.131 264.903,187.348C265.869,187.566 332.884,169.381 332.884,169.381L300.686,60.191Z" style="fill:rgb(38,38,38);"/>
                    </g>
                    <g transform="matrix(-5.89667,-0.965395,-0.270909,5.15031,14688.5,301.451)">
                        <path d="M302.382,59.27C302.382,59.27 251.457,79.318 237.911,84.651C235.723,85.512 234.001,87.357 233.099,89.805C230.019,98.612 223.996,121.224 233.022,145.422C242.31,170.322 255.897,182.13 262.177,186.268C263.977,187.454 264.973,188.007 266.718,187.824C276.362,185.378 338.851,168.987 338.851,168.987L302.382,59.27Z" style="fill:url(#_Linear6);"/>
                    </g>
                    <g transform="matrix(-6.4344,-2.96317,-2.62806,5.69913,15184.3,835.487)">
                        <ellipse cx="324.869" cy="124.092" rx="21.046" ry="46.502" style="fill:rgb(209,216,219);"/>
                    </g>
                    <g transform="matrix(-4.71109,-2.16955,-1.92419,4.17275,14545.5,769.05)">
                        <ellipse cx="324.869" cy="124.092" rx="21.046" ry="46.502" style="fill:rgb(32,36,38);"/>
                    </g>
                    <g transform="matrix(1.69989,0.150446,0.0673442,1.50266,10842.8,-1080.89)">
                        <path d="M1178.04,941.448C1178.04,941.448 1136.95,924.681 1097.67,1011.48C1059.92,1094.91 1091.83,1114.7 1093.59,1113.4C1111.89,1099.98 1167.61,1030.64 1178.04,941.448Z" style="fill:white;"/>
                    </g>
                    <g transform="matrix(2.04578,0,0,2.04578,5217.46,-1558.17)">
                        <path d="M3761.47,1094.21C3755.21,1091.24 3747.72,1093.63 3744.33,1099.67C3735.84,1114.12 3718.14,1140.28 3692.33,1160.59C3692.34,1160.58 3838.31,1222.78 3870.16,1236.35C3874.22,1238.08 3878.88,1237.62 3882.52,1235.12C3890.89,1229.22 3906.95,1215.53 3926.04,1187.1C3927.92,1184.32 3928.59,1180.9 3927.91,1177.61C3927.22,1174.32 3925.23,1171.45 3922.39,1169.66C3889.47,1154.04 3794.15,1109.48 3761.47,1094.21Z" style="fill:rgb(45,51,58);"/>
                    </g>
                    <g transform="matrix(1.73161,0,0,8.13619,6480.44,-20927)">
                        <path d="M4022.63,2842.51C4016.79,2842.11 4007.37,2840.95 4007.37,2839.58L4007.37,2765.4L4075.41,2765.4L4075.36,2839.53C4075.2,2841.04 4066,2842.27 4060.41,2842.53L4060.41,2879.04L4022.63,2879.04L4022.63,2842.51Z" style="fill:rgb(155,181,195);"/>
                    </g>
                    <g transform="matrix(4.57766,0,0,4.57766,-64597.9,-11256.2)">
                        <path d="M16996.4,2802.43L16947.9,2901.75C16947.9,2901.75 16946.2,2903.83 16947.9,2910.2C16947.6,2910.9 16901.7,3004.43 16901.7,3004.43L16916.9,3004.43L16960.1,2916.98C16960.1,2916.98 16965.4,2915.25 16966.7,2912.33C16967.3,2910.95 17020.5,2802.45 17020.5,2802.45L16996.4,2802.43Z" style="fill:rgb(158,181,195);"/>
                    </g>
                    <g transform="matrix(2.09503,0,0,2.04578,5019.52,-1558.17)">
                        <path d="M4045.21,1457.62L4045.21,1530.69L3889.56,1530.69C3884.55,1530.69 3880.49,1526.53 3880.49,1521.4L3880.49,1502.81C3880.49,1497.68 3884.55,1493.51 3889.56,1493.51L3989.67,1493.51L3989.67,1457.62L4045.21,1457.62Z" style="fill:rgb(155,181,195);"/>
                    </g>
                    <g transform="matrix(2.09503,0,0,2.04578,5019.52,-1558.17)">
                        <path d="M3989.67,1448.34L3989.67,1448.29C3969.12,1448.26 3963.62,1448.23 3963.04,1448.23L3971.68,1406.62C3971.68,1399.14 3977.61,1393.06 3984.92,1393.06L4032.1,1393.06L4032.1,1448.34L3989.67,1448.34Z" style="fill:rgb(158,181,195);"/>
                    </g>
                    <g transform="matrix(2.04729,0,0,2.04711,11544.9,-1477.48)">
                        <path d="M811.016,1490.29L865.063,1490.35L845.409,1530.34C845.409,1530.34 842.141,1503.09 807.866,1496.9C808.106,1496.31 811.016,1490.29 811.016,1490.29Z" style="fill:rgb(86,122,142);"/>
                    </g>
                    <g transform="matrix(-6.06772,0,0,6.06772,14657.8,-92.8091)">
                        <path d="M198.704,228.221L209.175,228.221L209.175,213.454C210.802,212.216 212.47,210.329 213.846,208.24C216.212,204.647 215.192,197.469 215.129,196.945C206.095,196.905 203.429,194.985 200.887,192.615C198.345,190.244 196.027,187.771 188.987,187.658C182.111,187.171 177.746,190.099 175.216,192.817C174.973,193.026 174.746,193.231 174.537,193.428C172.355,195.478 171.099,198.429 171.19,202.803C171.306,208.352 173.824,211.753 176.603,213.779C177.421,214.413 178.308,214.928 179.24,215.308C179.427,215.392 179.613,215.472 179.795,215.546L179.885,227.202L179.898,228.182L176.602,228.182C174.069,228.182 172.012,230.23 172.012,232.753L168.85,246.856C169.051,246.856 170.898,246.848 177.945,246.838L177.945,246.84L177.742,246.84L177.594,262.023L177.945,262.027L177.945,262.048L143.403,262.048C141.666,262.048 140.256,263.453 140.256,265.182L140.256,271.451C140.256,273.18 141.666,274.585 143.403,274.585L150.815,274.593L114.156,349.66C114.156,349.66 112.801,351.241 114.197,356.036C113.934,356.561 79.469,426.826 79.469,426.826L90.923,426.824L123.356,361.144C123.356,361.144 127.362,359.837 128.355,357.633C128.81,356.622 167.03,278.668 169.021,274.613L184.468,274.629C184.468,274.629 184.491,288.3 184.532,288.294C184.517,315.663 184.49,374.41 184.541,374.913C184.828,376.825 188.896,377.947 188.896,377.947C188.896,377.947 190.06,378.221 191.906,378.252C191.99,326.131 192.098,300.709 192.184,287.641C195.37,287.488 199.435,287.417 204.175,287.599C204.094,287.401 204.104,274.599 204.104,274.599L198.704,274.606L198.704,263.121L198.704,260.603C199.758,250.873 210.916,250.135 210.916,250.135L210.923,246.788L198.704,246.807L198.704,228.221Z" style="fill:rgb(86,122,142);"/>
                    </g>
                    <g transform="matrix(2.04578,0,0,2.04578,3071.49,-4511.86)">
                        <path d="M5144.2,2732.48C5133.84,2723.42 5112.68,2711.12 5085.23,2728.91C5056.24,2747.69 5067.78,2781.92 5069.74,2785.66C5071.48,2788.99 5075.99,2796.46 5083.53,2799.24C5067.92,2798.58 5053.17,2797.91 5052.97,2797.73C5045.85,2797.35 5036.27,2788.47 5029.25,2777.82C5022.24,2767.16 5025.26,2745.87 5025.45,2744.31C5052.24,2744.2 5060.15,2738.5 5067.69,2731.47C5075.23,2724.44 5082.1,2717.1 5102.98,2716.77C5123.72,2715.3 5136.76,2724.3 5144.2,2732.48Z" style="fill:rgb(54,80,97);"/>
                    </g>
                    <g transform="matrix(2.04578,0,0,2.04578,11545.5,-1475.68)">
                        <path d="M988.067,1315.29L987.799,1352.74L953.098,1352.66L953.098,1316.59C961.188,1317.29 972.38,1318.23 976.391,1318.18C978.414,1318.16 982.895,1317.41 988.067,1315.29Z" style="fill:rgb(54,80,97);"/>
                    </g>
                    <g transform="matrix(2.5021,0.599495,-0.640863,2.67476,5507.62,-8763.39)">
                        <ellipse cx="3937.37" cy="2822.13" rx="25.282" ry="26.635" style="fill:rgb(54,80,97);"/>
                    </g>
                </g>
                <g transform="matrix(4.35809,0,0,5.74018,-27131.7,-47417.2)">
                    <g transform="matrix(0.660501,0,0,0.660501,3088.31,2821.82)">
                        <g transform="matrix(2.60138,0,0,1.97503,-21401.8,-10478.8)">
                            <path d="M11819.3,9571.97L11900.2,9583.05C11900.2,9583.05 11904.1,9583.79 11904.7,9585.47C11905.3,9587.15 11909.6,9602.35 11902.2,9610.98C11900.6,9611.52 11852.4,9629.86 11823.1,9641.01C11810.2,9645.91 11801,9649.42 11801,9649.42L11800.9,9647.14L11802.9,9630.5L11798.1,9623.21L11713,9599.97L11712.4,9598.01L11819.3,9571.97Z" style="fill:rgb(151,173,186);"/>
                        </g>
                        <g transform="matrix(4.22619,0,0,3.20862,-41674.5,-22153.7)">
                            <path d="M12019.9,9542.56L12060.5,9563.77L12118.9,9536.98L12019.9,9542.56Z" style="fill:url(#_Linear7);"/>
                        </g>
                        <g transform="matrix(2.60138,0,0,1.97503,-21401.8,-10478.8)">
                            <path d="M11713.9,9601.49L11713.9,9627.32L11798.1,9647.55C11798.1,9647.55 11803.1,9643.53 11803.2,9635.85C11803.3,9628.18 11798.2,9622.56 11798.2,9622.56L11713.9,9601.49Z" style="fill:rgb(232,229,228);"/>
                        </g>
                        <g transform="matrix(3.9385,0,0,2.9902,-38155.2,-20137.2)">
                            <path d="M11990.8,9576.3C11990.8,9576.3 12038.8,9588.97 12041.7,9590.08C12044.6,9591.19 12042.2,9599.66 12042.2,9599.66L12045.8,9600.77L12048.5,9598.58C12048.5,9598.58 12051.3,9593.09 12048.4,9589.03C12045.5,9584.97 11990.7,9571.83 11990.7,9571.83L11990.8,9576.3Z" style="fill:rgb(168,168,168);"/>
                        </g>
                        <g transform="matrix(2.60138,0,0,1.97503,-21401.8,-10478.8)">
                            <path d="M11797.3,9605.57L11733.5,9583.16C11733.5,9583.16 11728.8,9576.62 11728.7,9571.84C11728.5,9567.05 11734.2,9557.18 11736.9,9558.43C11739.6,9559.69 11797.2,9580.52 11797.2,9580.52L11906.7,9551.19L11822.5,9540.85L11733.6,9556.36C11733.6,9556.36 11723.3,9557.6 11723.9,9571.07C11724.5,9584.53 11728.1,9585.86 11729.6,9586.71C11729.9,9586.73 11797.1,9611.97 11797.1,9611.97L11797.3,9605.57Z" style="fill:rgb(73,103,121);"/>
                        </g>
                        <g transform="matrix(4.22619,0,0,3.20862,-41626.9,-22228.6)">
                            <path d="M12019.9,9542.56L12062.6,9556.49L12098,9539.31L12019.9,9542.56Z" style="fill:rgb(31,48,64);fill-opacity:0.3;"/>
                        </g>
                        <g transform="matrix(3.9385,0,0,2.9902,-38155.2,-20137.2)">
                            <path d="M12115.3,9541.91L12115.3,9556.55L12045.8,9574.62L12002.7,9559.36L11999.8,9551.83L12004.1,9543.33L12045.3,9559.41L12115.3,9541.91Z" style="fill:rgb(232,229,228);"/>
                        </g>
                        <g transform="matrix(2.60138,0,0,1.97503,-21401.8,-10478.8)">
                            <path d="M11826.2,9568.01L11740.2,9550.44C11740.2,9550.44 11731.4,9545.98 11732.5,9537.85C11733.6,9529.71 11738.7,9524.62 11740.1,9523.89C11741.5,9523.15 11826.6,9541.73 11826.6,9541.73C11826.6,9541.73 11820.1,9549.71 11821.6,9557.24C11822.5,9562.04 11826.2,9568.01 11826.2,9568.01Z" style="fill:rgb(117,148,162);"/>
                        </g>
                        <g transform="matrix(4.22619,0,0,3.20862,-41626.9,-22228.6)">
                            <path d="M12010.4,9526.28L12008.4,9529.7L12061.2,9540.23C12061.2,9540.23 12062.2,9537.89 12062.6,9537.24C12063.1,9536.59 12010.4,9526.28 12010.4,9526.28Z" style="fill:rgb(151,173,186);"/>
                        </g>
                        <g transform="matrix(4.22619,0,0,3.20862,-41637,-22230.3)">
                            <path d="M12051.9,9548.79C12051.9,9548.79 12050.1,9545.08 12051.3,9540.36C12052.6,9535.63 12055.5,9533.33 12055.5,9533.33L12051.6,9532.57C12051.6,9532.57 12048.2,9535.84 12047.6,9538.77C12046.1,9545.26 12048.9,9548.22 12048.9,9548.22L12051.9,9548.79Z" style="fill:rgb(86,122,142);"/>
                        </g>
                        <g transform="matrix(4.22619,0,0,3.20862,-41741,-22247)">
                            <path d="M12051.9,9548.9C12051.9,9548.9 12050.1,9545.08 12051.3,9540.36C12052.6,9535.63 12055.5,9533.33 12055.5,9533.33L12052.4,9532.76C12052.4,9532.76 12048.9,9536.09 12048.3,9539.02C12046.8,9545.51 12048.9,9548.22 12048.9,9548.22L12051.9,9548.9Z" style="fill:rgb(86,122,142);"/>
                        </g>
                        <g transform="matrix(3.9385,0,0,2.9902,-38155.2,-20137.2)">
                            <path d="M12099.2,9520.19L12099.2,9534.2C12099.2,9534.2 12067.9,9549.45 12065.5,9548.13C12063,9546.82 12061.7,9542.81 12061.7,9542.81L12062.8,9535.47L12069.2,9532.08L12099.2,9520.19Z" style="fill:rgb(232,229,228);"/>
                        </g>
                        <g transform="matrix(2.60138,0,0,1.97503,-21401.8,-10478.8)">
                            <path d="M11826.6,9541.73L11880.6,9519.7L11795,9502.26L11739.9,9523.92L11826.6,9541.73Z" style="fill:rgb(191,204,212);"/>
                        </g>
                        <g transform="matrix(4.56219,0.327913,-0.462408,3.70835,-41294.9,-30949.3)">
                            <path d="M12075.4,9525.01L12081.6,9521.06L12083.6,9521.27L12076.5,9525.19L12075.4,9525.01Z" style="fill:rgb(117,148,162);"/>
                        </g>
                        <g transform="matrix(4.56219,0.327913,-0.462408,3.70835,-41276.9,-30946.2)">
                            <path d="M12075.4,9524.86L12081.5,9521.14L12083.6,9521.27L12076.5,9525.19L12075.4,9524.86Z" style="fill:rgb(117,148,162);"/>
                        </g>
                        <g transform="matrix(2.60138,0,0,1.97503,-21401.8,-10478.8)">
                            <path d="M11880.6,9519.7L11881,9523.59L11827.9,9545.88C11827.9,9545.88 11818.6,9553.35 11826.7,9563.39C11827.5,9563.55 11880.7,9542.1 11880.7,9542.1L11880.8,9547.06L11826.5,9568.88C11826.5,9568.88 11820,9566.03 11819.1,9558.2C11818.5,9552.87 11819.8,9545.12 11825.5,9542.24C11827.2,9541.27 11880.6,9519.7 11880.6,9519.7Z" style="fill:rgb(31,48,64);"/>
                        </g>
                        <g transform="matrix(2.60138,0,0,1.97503,-21401.8,-10478.8)">
                            <path d="M11797.3,9578.84L11906.4,9550.73L11907,9555.82L11797.5,9585.03L11736.2,9563.29C11736.2,9563.29 11726.9,9567.38 11732.2,9582.74C11724.8,9577.32 11723.8,9562.82 11735.4,9557.28C11739,9559.27 11797.3,9578.84 11797.3,9578.84Z" style="fill:rgb(31,48,64);"/>
                        </g>
                        <g transform="matrix(2.60138,0,0,1.97503,-21401.8,-10478.8)">
                            <path d="M11906.4,9574.51L11906.4,9579.68L11797.1,9611.93L11797.2,9605.49L11906.4,9574.51Z" style="fill:rgb(31,48,64);"/>
                        </g>
                        <g transform="matrix(2.60138,0,0,1.97503,-21401.8,-10478.8)">
                            <path d="M11712.4,9598.36L11798.1,9620.65C11798.1,9620.65 11803.2,9621.58 11804,9625.07C11804.7,9628.55 11809.5,9637.9 11801.2,9649.54C11800.4,9649.39 11712.4,9628.74 11712.4,9628.74L11712.3,9624.54L11797.3,9644.33C11797.3,9644.33 11798,9644.2 11798.2,9643.84C11798.4,9643.49 11801,9640.31 11800.7,9634.9C11800.4,9629.48 11799.6,9627.12 11797.7,9626.41C11795.9,9625.7 11712.2,9602.43 11712.2,9602.43L11712.4,9598.36Z" style="fill:rgb(54,80,97);"/>
                        </g>
                    </g>
                    <g transform="matrix(2.60138,0,0,1.97503,-22113.3,-10478.8)">
                        <path d="M12049.5,9585.96C12049.5,9585.96 12051.7,9590.73 12051.2,9595.1C12050.7,9599.78 12048.5,9603.53 12048.5,9603.53L12050.3,9602.81L12115.4,9578.27C12115.4,9578.27 12116.4,9576.93 12117.1,9574.96C12117.9,9572.98 12118.3,9570.36 12118.1,9568.17C12117.7,9563.77 12116.9,9561.55 12116.9,9561.55L12049.5,9585.96Z" style="fill:url(#_Linear8);"/>
                    </g>
                    <g transform="matrix(2.7914,0,0,2.1193,-24406.3,-11860.2)">
                        <path d="M12072.4,9583.82L12072.5,9586.74L12104.2,9575.55L12104.4,9571.43L12072.4,9583.82Z" style="fill:rgb(73,103,121);"/>
                    </g>
                    <g transform="matrix(2.60138,0,0,1.97503,-22113.3,-10478.8)">
                        <path d="M12003.2,9559.1C12003.2,9559.1 12004,9549.76 12007.7,9550.54C12011.4,9551.32 12036.8,9560.24 12039,9561.34C12041.1,9562.44 12044.9,9561.91 12045.9,9574.15C12047.2,9565.09 12048.6,9562.32 12051.5,9561.83C12054.3,9561.33 12112.1,9546.74 12112.1,9546.74C12112.1,9546.74 12115,9547.61 12115.1,9548.13C12115.2,9548.66 12115.5,9542.24 12115.5,9542.24L12046,9560.86L12005.7,9546.34C12005.7,9546.34 11998.7,9549.87 12003.2,9559.1Z" style="fill:rgb(194,194,194);"/>
                    </g>
                    <g transform="matrix(2.60138,0,0,1.97503,-22112.9,-10478.8)">
                        <path d="M12045.8,9560.78L12045.8,9572.92C12044.7,9561.94 12041,9562.4 12039,9561.34C12036.8,9560.24 12011.4,9551.32 12007.7,9550.54C12004,9549.76 12003.2,9559.1 12003.2,9559.1C11998.7,9549.87 12005.7,9546.34 12005.7,9546.34L12045.8,9560.78Z" style="fill:rgb(168,168,168);"/>
                    </g>
                </g>
                <g transform="matrix(1,0,0,1,6378.39,-3182.81)">
                    <path d="M6881.07,3762.61C6881.07,3762.61 6890.8,3728.42 6913.4,3714.07C6933.26,3707.45 7288.95,3557.39 7288.95,3557.39L7288.69,3586.09C7288.69,3586.09 6938.71,3726.55 6922.65,3735.01C6898.37,3747.81 6881.07,3762.61 6881.07,3762.61Z" style="fill:rgb(194,194,194);"/>
                </g>
            </g>
        </g>
    </g>
    <defs>
        <linearGradient id="_Linear2" x1="0" y1="0" x2="1" y2="0" gradientUnits="userSpaceOnUse" gradientTransform="matrix(-24.5512,-75.8176,-63.1326,20.2633,248.063,176.864)"><stop offset="0" style="stop-color:rgb(81,87,89);stop-opacity:1"/><stop offset="1" style="stop-color:rgb(162,165,170);stop-opacity:1"/></linearGradient>
        <linearGradient id="_Linear3" x1="0" y1="0" x2="1" y2="0" gradientUnits="userSpaceOnUse" gradientTransform="matrix(-24.2539,-76.3269,-63.6077,19.8606,164.231,206.866)"><stop offset="0" style="stop-color:rgb(154,160,162);stop-opacity:1"/><stop offset="0.56" style="stop-color:rgb(207,212,213);stop-opacity:1"/><stop offset="1" style="stop-color:rgb(230,234,235);stop-opacity:1"/></linearGradient>
        <linearGradient id="_Linear4" x1="0" y1="0" x2="1" y2="0" gradientUnits="userSpaceOnUse" gradientTransform="matrix(-19.7971,-58.8127,-48.8899,16.5955,119.527,215.187)"><stop offset="0" style="stop-color:rgb(81,87,89);stop-opacity:1"/><stop offset="1" style="stop-color:rgb(162,165,170);stop-opacity:1"/></linearGradient>
        <linearGradient id="_Linear5" x1="0" y1="0" x2="1" y2="0" gradientUnits="userSpaceOnUse" gradientTransform="matrix(-24.2539,-76.3269,-63.6077,19.8606,164.231,206.866)"><stop offset="0" style="stop-color:rgb(154,160,162);stop-opacity:1"/><stop offset="0.56" style="stop-color:rgb(207,212,213);stop-opacity:1"/><stop offset="1" style="stop-color:rgb(230,234,235);stop-opacity:1"/></linearGradient>
        <linearGradient id="_Linear6" x1="0" y1="0" x2="1" y2="0" gradientUnits="userSpaceOnUse" gradientTransform="matrix(-29.4826,-92.5296,-77.1014,24.17,289.286,177.588)"><stop offset="0" style="stop-color:rgb(81,87,89);stop-opacity:1"/><stop offset="1" style="stop-color:rgb(162,165,170);stop-opacity:1"/></linearGradient>
        <linearGradient id="_Linear7" x1="0" y1="0" x2="1" y2="0" gradientUnits="userSpaceOnUse" gradientTransform="matrix(-0.881323,12.5549,-12.5549,-0.881323,12062.1,9546.94)"><stop offset="0" style="stop-color:rgb(31,48,64);stop-opacity:0.3"/><stop offset="1" style="stop-color:rgb(31,48,64);stop-opacity:0"/></linearGradient>
        <linearGradient id="_Linear8" x1="0" y1="0" x2="1" y2="0" gradientUnits="userSpaceOnUse" gradientTransform="matrix(2.62076,7.55221,-7.55221,2.62076,12083,9583.87)"><stop offset="0" style="stop-color:rgb(86,122,142);stop-opacity:1"/><stop offset="1" style="stop-color:rgb(37,63,77);stop-opacity:1"/></linearGradient>
    </defs>
</svg>
