<?xml version="1.0" encoding="UTF-8" standalone="no"?>
<!DOCTYPE svg PUBLIC "-//W3C//DTD SVG 1.1//EN" "http://www.w3.org/Graphics/SVG/1.1/DTD/svg11.dtd">
<svg width="100%" height="100%" viewBox="0 0 2481 2481" version="1.1" xmlns="http://www.w3.org/2000/svg" xmlns:xlink="http://www.w3.org/1999/xlink" xml:space="preserve" xmlns:serif="http://www.serif.com/" style="fill-rule:evenodd;clip-rule:evenodd;stroke-linecap:round;stroke-linejoin:round;stroke-miterlimit:1.5;">
    <g transform="matrix(1,0,0,1,-5857.95,-3199.15)">
        <g id="ICONS" transform="matrix(1,0,0,1,-6378.39,3182.81)">
            <rect x="12236.3" y="16.332" width="2480.34" height="2480.7" style="fill:none;"/>
            <clipPath id="_clip1">
                <rect x="12236.3" y="16.332" width="2480.34" height="2480.7"/>
            </clipPath>
            <g clip-path="url(#_clip1)">
                <g transform="matrix(1.03136,0,0,1.02766,-421.058,-34.576)">
                    <rect x="12239.3" y="16.724" width="2472.76" height="2482.77" style="fill:rgb(23,23,23);"/>
                </g>
                <g id="TELESCOPE" transform="matrix(0.557128,0,0,0.557128,6593.47,1105.8)">
                    <g transform="matrix(-2.04241,-0.334381,-0.0938338,1.7839,14592.1,1015.05)">
                        <path d="M164.124,211.771L139.129,129.257C139.129,129.257 131.234,132.262 124.224,134.93C115.272,138.336 109.195,147.384 108.389,158.509C107.918,165.399 108.481,173.798 111.507,183.225C114.228,191.702 118.015,198.462 121.894,203.728C129.415,213.877 140.964,218.505 151.275,215.503C157.693,213.644 164.124,211.771 164.124,211.771Z" style="fill:url(#_Linear2);"/>
                    </g>
                    <g transform="matrix(-3.62373,-0.593272,-0.166484,3.16506,14720.1,765.118)">
                        <path d="M196.551,202.329L168.313,118.15C168.313,118.15 132.362,131.833 118.741,137.017C115.096,138.403 112.291,141.572 111.009,145.751C108.664,153.559 106.284,167.364 111.507,183.225C116.716,199.042 125.509,208.898 131.644,214.216C135.516,217.499 140.289,218.686 144.583,217.436C159.469,213.127 196.551,202.329 196.551,202.329Z" style="fill:url(#_Linear3);"/>
                    </g>
                    <g transform="matrix(-3.62373,-0.593272,-0.166484,3.16506,14720.1,765.118)">
                        <path d="M120.847,202.113C124.581,207.494 128.469,211.463 131.644,214.216C135.516,217.499 140.289,218.686 144.583,217.436C159.469,213.127 196.551,202.329 196.551,202.329L188.617,178.677L120.847,202.113Z" style="fill:rgb(156,161,164);"/>
                    </g>
                    <g transform="matrix(-5.89667,-0.965395,-0.270909,5.15031,14688.5,301.451)">
                        <path d="M113.152,140.85C113.152,140.85 103.691,144.809 98.464,146.997C96.036,148.013 94.229,150.259 93.514,153.151C91.974,159.382 90.596,171.54 96.213,188.36C101.794,205.07 110.079,214.87 115.168,219.666C117.725,222.057 121.016,222.912 123.914,221.939C128.964,220.246 136.737,217.636 136.737,217.636L113.152,140.85Z" style="fill:url(#_Linear4);"/>
                    </g>
                    <g transform="matrix(-5.89667,-0.965395,-0.270909,5.15031,14688.5,301.451)">
                        <path d="M231.698,94.027C231.698,94.027 134.979,130.836 116.592,137.834C114.542,138.614 112.917,140.315 112.052,142.586C109.575,149.365 105.481,164.927 111.507,183.225C117.651,201.88 128.781,212.243 134.653,216.649C136.932,218.333 139.618,218.89 142.044,218.184C161.942,212.407 259.217,184.08 259.217,184.08L231.698,94.027Z" style="fill:url(#_Linear5);"/>
                    </g>
                    <g transform="matrix(-5.89667,-0.965395,-0.270909,5.15031,14688.5,301.451)">
                        <path d="M123.819,206.082C127.885,211.116 131.863,214.555 134.653,216.649C136.932,218.333 139.618,218.89 142.044,218.184C161.942,212.407 259.217,184.08 259.217,184.08L252.493,162.077L123.819,206.082Z" style="fill:rgb(156,161,164);"/>
                    </g>
                    <g transform="matrix(2.04578,-1.10671e-16,-3.40691e-16,2.04578,7500.94,-158.091)">
                        <path d="M2896.96,433.197L3081.45,522.081" style="fill:none;stroke:white;stroke-width:41.67px;"/>
                    </g>
                    <g transform="matrix(-5.89667,-0.965395,-0.270909,5.15031,14716.5,317.017)">
                        <path d="M300.686,60.191L234.634,85.941C234.634,85.941 221.441,114.376 233.022,145.422C244.973,177.462 263.938,187.131 264.903,187.348C265.869,187.566 332.884,169.381 332.884,169.381L300.686,60.191Z" style="fill:rgb(38,38,38);"/>
                    </g>
                    <g transform="matrix(-5.89667,-0.965395,-0.270909,5.15031,14688.5,301.451)">
                        <path d="M302.382,59.27C302.382,59.27 251.457,79.318 237.911,84.651C235.723,85.512 234.001,87.357 233.099,89.805C230.019,98.612 223.996,121.224 233.022,145.422C242.31,170.322 255.897,182.13 262.177,186.268C263.977,187.454 264.973,188.007 266.718,187.824C276.362,185.378 338.851,168.987 338.851,168.987L302.382,59.27Z" style="fill:url(#_Linear6);"/>
                    </g>
                    <g transform="matrix(-6.4344,-2.96317,-2.62806,5.69913,15184.3,835.487)">
                        <ellipse cx="324.869" cy="124.092" rx="21.046" ry="46.502" style="fill:rgb(209,216,219);"/>
                    </g>
                    <g transform="matrix(-4.71109,-2.16955,-1.92419,4.17275,14545.5,769.05)">
                        <ellipse cx="324.869" cy="124.092" rx="21.046" ry="46.502" style="fill:rgb(32,36,38);"/>
                    </g>
                    <g transform="matrix(1.69989,0.150446,0.0673442,1.50266,10842.8,-1080.89)">
                        <path d="M1178.04,941.448C1178.04,941.448 1136.95,924.681 1097.67,1011.48C1059.92,1094.91 1091.83,1114.7 1093.59,1113.4C1111.89,1099.98 1167.61,1030.64 1178.04,941.448Z" style="fill:white;"/>
                    </g>
                    <g transform="matrix(2.04578,0,0,2.04578,5217.46,-1558.17)">
                        <path d="M3761.47,1094.21C3755.21,1091.24 3747.72,1093.63 3744.33,1099.67C3735.84,1114.12 3718.14,1140.28 3692.33,1160.59C3692.34,1160.58 3838.31,1222.78 3870.16,1236.35C3874.22,1238.08 3878.88,1237.62 3882.52,1235.12C3890.89,1229.22 3906.95,1215.53 3926.04,1187.1C3927.92,1184.32 3928.59,1180.9 3927.91,1177.61C3927.22,1174.32 3925.23,1171.45 3922.39,1169.66C3889.47,1154.04 3794.15,1109.48 3761.47,1094.21Z" style="fill:rgb(45,51,58);"/>
                    </g>
                    <g transform="matrix(1.73161,0,0,8.13619,6480.44,-20927)">
                        <path d="M4022.63,2842.51C4016.79,2842.11 4007.37,2840.95 4007.37,2839.58L4007.37,2765.4L4075.41,2765.4L4075.36,2839.53C4075.2,2841.04 4066,2842.27 4060.41,2842.53L4060.41,2879.04L4022.63,2879.04L4022.63,2842.51Z" style="fill:rgb(155,181,195);"/>
                    </g>
                    <g transform="matrix(4.57766,0,0,4.57766,-64597.9,-11256.2)">
                        <path d="M16996.4,2802.43L16947.9,2901.75C16947.9,2901.75 16946.2,2903.83 16947.9,2910.2C16947.6,2910.9 16901.7,3004.43 16901.7,3004.43L16916.9,3004.43L16960.1,2916.98C16960.1,2916.98 16965.4,2915.25 16966.7,2912.33C16967.3,2910.95 17020.5,2802.45 17020.5,2802.45L16996.4,2802.43Z" style="fill:rgb(158,181,195);"/>
                    </g>
                    <g transform="matrix(2.09503,0,0,2.04578,5019.52,-1558.17)">
                        <path d="M4045.21,1457.62L4045.21,1530.69L3889.56,1530.69C3884.55,1530.69 3880.49,1526.53 3880.49,1521.4L3880.49,1502.81C3880.49,1497.68 3884.55,1493.51 3889.56,1493.51L3989.67,1493.51L3989.67,1457.62L4045.21,1457.62Z" style="fill:rgb(155,181,195);"/>
                    </g>
                    <g transform="matrix(2.09503,0,0,2.04578,5019.52,-1558.17)">
                        <path d="M3989.67,1448.34L3989.67,1448.29C3969.12,1448.26 3963.62,1448.23 3963.04,1448.23L3971.68,1406.62C3971.68,1399.14 3977.61,1393.06 3984.92,1393.06L4032.1,1393.06L4032.1,1448.34L3989.67,1448.34Z" style="fill:rgb(158,181,195);"/>
                    </g>
                    <g transform="matrix(2.04729,0,0,2.04711,11544.9,-1477.48)">
                        <path d="M811.016,1490.29L865.063,1490.35L845.409,1530.34C845.409,1530.34 842.141,1503.09 807.866,1496.9C808.106,1496.31 811.016,1490.29 811.016,1490.29Z" style="fill:rgb(86,122,142);"/>
                    </g>
                    <g transform="matrix(-6.06772,0,0,6.06772,14657.8,-92.8091)">
                        <path d="M198.704,228.221L209.175,228.221L209.175,213.454C210.802,212.216 212.47,210.329 213.846,208.24C216.212,204.647 215.192,197.469 215.129,196.945C206.095,196.905 203.429,194.985 200.887,192.615C198.345,190.244 196.027,187.771 188.987,187.658C182.111,187.171 177.746,190.099 175.216,192.817C174.973,193.026 174.746,193.231 174.537,193.428C172.355,195.478 171.099,198.429 171.19,202.803C171.306,208.352 173.824,211.753 176.603,213.779C177.421,214.413 178.308,214.928 179.24,215.308C179.427,215.392 179.613,215.472 179.795,215.546L179.885,227.202L179.898,228.182L176.602,228.182C174.069,228.182 172.012,230.23 172.012,232.753L168.85,246.856C169.051,246.856 170.898,246.848 177.945,246.838L177.945,246.84L177.742,246.84L177.594,262.023L177.945,262.027L177.945,262.048L143.403,262.048C141.666,262.048 140.256,263.453 140.256,265.182L140.256,271.451C140.256,273.18 141.666,274.585 143.403,274.585L150.815,274.593L114.156,349.66C114.156,349.66 112.801,351.241 114.197,356.036C113.934,356.561 79.469,426.826 79.469,426.826L90.923,426.824L123.356,361.144C123.356,361.144 127.362,359.837 128.355,357.633C128.81,356.622 167.03,278.668 169.021,274.613L184.468,274.629C184.468,274.629 184.491,288.3 184.532,288.294C184.517,315.663 184.49,374.41 184.541,374.913C184.828,376.825 188.896,377.947 188.896,377.947C188.896,377.947 190.06,378.221 191.906,378.252C191.99,326.131 192.098,300.709 192.184,287.641C195.37,287.488 199.435,287.417 204.175,287.599C204.094,287.401 204.104,274.599 204.104,274.599L198.704,274.606L198.704,263.121L198.704,260.603C199.758,250.873 210.916,250.135 210.916,250.135L210.923,246.788L198.704,246.807L198.704,228.221Z" style="fill:rgb(86,122,142);"/>
                    </g>
                    <g transform="matrix(2.04578,0,0,2.04578,3071.49,-4511.86)">
                        <path d="M5144.2,2732.48C5133.84,2723.42 5112.68,2711.12 5085.23,2728.91C5056.24,2747.69 5067.78,2781.92 5069.74,2785.66C5071.48,2788.99 5075.99,2796.46 5083.53,2799.24C5067.92,2798.58 5053.17,2797.91 5052.97,2797.73C5045.85,2797.35 5036.27,2788.47 5029.25,2777.82C5022.24,2767.16 5025.26,2745.87 5025.45,2744.31C5052.24,2744.2 5060.15,2738.5 5067.69,2731.47C5075.23,2724.44 5082.1,2717.1 5102.98,2716.77C5123.72,2715.3 5136.76,2724.3 5144.2,2732.48Z" style="fill:rgb(54,80,97);"/>
                    </g>
                    <g transform="matrix(2.04578,0,0,2.04578,11545.5,-1475.68)">
                        <path d="M988.067,1315.29L987.799,1352.74L953.098,1352.66L953.098,1316.59C961.188,1317.29 972.38,1318.23 976.391,1318.18C978.414,1318.16 982.895,1317.41 988.067,1315.29Z" style="fill:rgb(54,80,97);"/>
                    </g>
                    <g transform="matrix(2.5021,0.599495,-0.640863,2.67476,5507.62,-8763.39)">
                        <ellipse cx="3937.37" cy="2822.13" rx="25.282" ry="26.635" style="fill:rgb(54,80,97);"/>
                    </g>
                </g>
                <g id="Exoplanets" transform="matrix(7.51944,0,0,7.45546,-77110.1,-55631.4)">
                    <g transform="matrix(1,0,0,1,-170.294,-6.04252)">
                        <g transform="matrix(1.95823,0,0,1.97503,-13083.5,-10478.8)">
                            <circle cx="12902.2" cy="9138.92" r="37.536" style="fill:url(#_Linear7);"/>
                        </g>
                        <g transform="matrix(0.132989,0,0,0.13413,11273.3,7040.97)">
                            <path d="M7129.37,3484.57C7282.94,3582.8 7384.83,3754.86 7384.83,3950.52C7384.83,4255.57 7137.17,4503.24 6832.11,4503.24C6791.85,4503.24 6752.59,4498.92 6714.76,4490.73C6722.78,4481.42 6737.7,4472.39 6741.11,4463.34C6742.87,4458.68 6732.03,4452.5 6735.6,4449.46C6737.37,4447.96 6754.04,4450.57 6755.64,4449.4C6768.29,4440.1 6772.75,4429.15 6771.01,4417.2C6770.49,4413.63 6763.69,4409.96 6763.57,4406.23C6763.46,4402.48 6777.1,4397.38 6776.33,4393.68C6775.17,4388.11 6766.43,4382.5 6765.58,4377.38C6764.62,4371.58 6750.69,4374.72 6735.25,4383.19C6730.81,4385.63 6728.67,4393.76 6723.68,4395.77C6720.26,4397.15 6715.89,4385.5 6712.38,4387.11C6705,4390.49 6700.89,4399.01 6693.11,4402.08C6682.77,4406.17 6671.47,4399.66 6662.03,4403.87C6657.72,4405.79 6661.68,4417.32 6657.62,4418.9C6650.39,4421.72 6641.04,4415.61 6635.35,4417.32C6624.55,4420.58 6618.5,4425.83 6616.98,4421.24C6615.92,4418.05 6605.86,4414.58 6600.28,4409.23C6595.02,4404.19 6594.44,4397.31 6586.83,4393.05C6582.01,4390.35 6574.36,4392.75 6569.83,4389.94C6563.69,4386.13 6568.51,4374.82 6561.76,4371.07C6533.4,4355.32 6500.85,4348.11 6485.92,4343.41C6469.5,4338.23 6468.45,4302.16 6473.52,4265.1C6474.29,4259.49 6470.32,4249.28 6471.6,4243.97C6473.3,4236.95 6492.78,4231.42 6494.11,4225.41C6497.11,4211.86 6492.64,4200.36 6492.81,4197.43C6493.1,4192.6 6469.85,4180.5 6464.51,4177.74C6456.15,4173.43 6449.01,4163.78 6439.87,4162.4C6434.41,4161.58 6433.78,4132.3 6440.24,4120.53C6443.57,4114.48 6455.72,4108.43 6458.84,4102.34C6460.8,4098.52 6455.82,4092.11 6457.7,4088.62C6460.09,4084.19 6470.19,4082.79 6471.69,4079.1C6474.07,4073.24 6475.05,4068.56 6473.67,4065.82C6470.93,4060.36 6471.06,4050.64 6478.82,4044.78C6485.06,4040.08 6500.59,4045.77 6508.58,4041.87C6518.88,4036.85 6526.04,4026.27 6530.76,4024.38C6536.64,4022.01 6526.24,4019.78 6517.12,4001.75C6515.24,3998.04 6517.42,3981.28 6515.38,3977.41C6513.16,3973.22 6500.57,3969.68 6499.22,3965.46C6494.58,3950.92 6514.04,3936.74 6510.26,3927.2C6506.14,3916.79 6516.15,3938.12 6529.27,3943.6C6535.29,3946.1 6542.93,3935.18 6549.35,3933.54C6554.26,3932.3 6558.03,3939.7 6562.36,3943.51C6566.46,3947.12 6559.38,3970.71 6562.99,3972.79C6568.23,3975.81 6572.72,3960.83 6575.75,3960.45C6580.63,3959.85 6591.67,3981.58 6590.52,3990.8C6589.36,4000.17 6575.98,3997.14 6576.85,4009.51C6577.21,4014.68 6596,4017.34 6595.74,4022.41C6595.53,4026.69 6582.14,4028.54 6582.07,4032.58C6581.95,4039.29 6582.12,4045.54 6582.82,4050.8C6583.69,4057.33 6562.73,4073.2 6565.06,4080.99C6567.22,4088.2 6592.87,4087.31 6588.86,4094.04C6586.07,4098.71 6581.84,4103.09 6572.89,4106.91C6565.69,4109.99 6571.74,4121.67 6566.03,4127.56C6560.27,4133.5 6534.17,4120.11 6528.94,4127.84C6522.75,4136.99 6558,4145.69 6557.76,4155.33C6557.41,4169.43 6543.25,4178.8 6537.92,4193.94C6535.83,4199.89 6592.2,4193.87 6592.39,4201.05C6592.64,4210.59 6616.94,4174.15 6617.34,4182.25C6618.75,4211.24 6619.92,4181.55 6628.2,4158.3C6631.46,4149.15 6648.42,4142.2 6647.9,4138.4C6647.35,4134.35 6650.91,4148.16 6661.58,4160.46C6663.35,4162.5 6675.25,4157.77 6678.19,4158.3C6683.71,4159.29 6687.46,4167.93 6692.11,4170.41C6695.8,4172.39 6713.32,4166.92 6716.56,4169.47C6744.16,4191.16 6742.69,4238.3 6759.41,4241.8C6793.36,4248.89 6802.2,4205.53 6786.66,4190.78C6772.94,4177.77 6777.87,4157.69 6776.46,4129.7C6776.28,4125.97 6755.83,4106.24 6752.47,4107.04C6749.69,4107.69 6744.89,4103.11 6742.01,4104.2C6736.58,4106.28 6731.16,4117.65 6725.87,4119.32C6712.81,4123.45 6700.63,4117.47 6695.85,4117.77C6691.09,4118.06 6682.34,4106.73 6670.99,4099.71C6668.66,4098.27 6662.93,4106.39 6660.58,4104.9C6658.77,4103.75 6648.97,4101.72 6647.27,4100.39C6641.31,4095.72 6647.3,4091.17 6645.33,4085.39C6641.94,4075.45 6634.69,4063.86 6644.52,4056.11C6649.61,4052.1 6670.76,4049.57 6674.95,4048.86C6680.57,4047.91 6686.38,4053.45 6692.15,4053.2C6704.11,4052.68 6712.75,4045.92 6722.24,4044.84C6733.2,4043.59 6744.25,4047.87 6745.9,4045.07C6747.24,4042.81 6752.75,4039.19 6753.07,4034.8C6753.52,4028.61 6735.94,4023.32 6740.72,4015.64C6743.11,4011.78 6752.53,4013.82 6762.31,4009.61C6767.69,4007.29 6767.95,3999.09 6773.68,3995.38C6779.27,3991.76 6790.32,3992.61 6796.15,3991.03C6808.77,3987.62 6818.1,3989.16 6825.13,3993.74C6829.25,3996.42 6824.91,4003.83 6827.65,4008.2C6830.34,4012.51 6858.62,4008.71 6860.76,4013.71C6861.65,4015.78 6858.92,4023.33 6853.54,4026.21C6848.63,4028.84 6841.06,4026.8 6841.11,4028.93C6841.24,4035.47 6847.02,4036.74 6848.59,4042.67C6851.97,4055.35 6853.09,4070.4 6857.84,4070.75C6859.94,4070.9 6870.42,4063.17 6874.27,4065.9C6877.94,4068.5 6870.32,4074.37 6874.69,4078.87C6899.91,4104.8 6944.61,4152.79 6938.45,4141.85C6930.1,4127.01 7022.33,4136.31 7048.43,4134.98C7074.52,4133.65 7166.5,4209.11 7177.44,4212.17C7188.38,4215.23 7157.52,4161.7 7143.7,4142.9C7129.88,4124.1 7106.19,4118.15 7113.97,4096.28C7116.18,4090.05 7137.15,4105.22 7147.69,4103.06C7158.11,4100.93 7158.05,4081.4 7170.25,4083.58C7189.02,4086.92 7207,4098.49 7207,4098.49C7207,4098.49 7222.24,4084.11 7224.36,4069.73C7226.14,4057.66 7214.13,4046.34 7220.48,4036.29C7229.06,4022.71 7253.71,4028.94 7255.62,4017.26C7257.2,4007.51 7233.94,4008.22 7231.26,4002.3C7227.65,3994.31 7233.58,3968.57 7250.21,3958.98C7261.86,3952.25 7282.63,3961.69 7292.49,3955.45C7311.74,3943.25 7312.01,3932.28 7312.01,3932.28L7334.7,3830.93C7334.7,3830.93 7315.88,3806.92 7294.05,3806.92C7272.22,3806.92 7274.74,3791.72 7264.22,3791.59C7261.9,3791.57 7231.17,3767.51 7227.27,3744.31C7225.6,3734.39 7212.32,3743.82 7201.43,3736.79C7194.17,3732.1 7192.56,3720.82 7183.28,3716.63C7176.42,3713.53 7168.17,3723.38 7160.1,3720.4C7149.74,3716.58 7168.82,3695.31 7159.79,3691C7155.35,3688.88 7150.48,3707.93 7146,3706.36C7137.81,3703.51 7131.37,3695.56 7123.19,3695.46C7105.23,3695.25 7107.32,3711.39 7103.17,3720.5C7098.95,3729.77 7088.69,3732.1 7094.03,3743.59C7101.91,3760.58 7122.08,3775.9 7118.35,3777.47C7116.54,3778.23 7111.01,3787.53 7107.8,3797.7C7103.53,3811.24 7090.85,3799.19 7084.62,3801.43C7077.69,3803.94 7077.22,3810.53 7072.37,3816.44C7068.53,3821.11 7074.02,3830 7069.98,3834.7C7066.67,3838.56 7055.11,3827.61 7049.88,3830.63C7045.63,3833.1 7047.54,3849.53 7045.5,3852.55C7042.74,3856.61 7054.51,3866.92 7053.36,3871.2C7049.59,3885.16 7039.06,3891.99 7037.57,3888.24C7036.2,3884.81 7031.44,3875.9 7024.77,3878.44C7018.04,3881 7009.37,3895.03 7000.31,3895.45C6995.06,3895.7 6988.84,3904.94 6983.54,3903.68C6976.41,3901.97 6978.9,3890.62 6972.82,3885.49C6967.43,3880.94 6953.33,3882.53 6949.2,3881.36C6944.88,3880.12 6955.04,3875.99 6952.94,3869.8C6951.04,3864.21 6939.61,3858.59 6937.66,3850.29C6935.67,3841.82 6943.26,3830.63 6949.85,3820.69C6954.49,3813.7 6947.95,3802.22 6950.02,3793.86C6952.11,3785.43 6946.84,3773.29 6951.13,3765.56C6955.2,3758.22 6968.84,3755.24 6970.27,3749.04C6971.37,3744.24 6965.49,3739.86 6965.14,3736.01C6964.03,3723.93 6956.94,3704.58 6946.22,3700.24C6933.51,3695.1 6916.09,3705.93 6903.24,3702.25C6891.94,3699.03 6885.06,3687.08 6882.72,3683.93C6879.56,3679.69 6870.34,3698.45 6853.89,3710.15C6849.26,3713.44 6840.15,3707.08 6835.21,3710.59C6830.53,3713.92 6831.6,3725.36 6826.92,3728.49C6813.78,3737.28 6795.39,3736.39 6786.49,3737.7C6775.24,3739.35 6789.79,3727.53 6791.15,3714.98C6792.2,3705.35 6778.69,3698.87 6776.85,3691.17C6775.29,3684.61 6785.42,3676.07 6785.42,3676C6785.42,3675.74 6759.51,3633.64 6759.51,3633.64C6759.51,3633.64 6838.9,3535.05 6852.03,3533.25C6865.15,3531.45 6935.32,3524.26 6935.32,3524.26C6935.32,3524.26 6974.64,3506.77 6984.15,3485.54C6993.66,3464.31 7046.37,3497.75 7080.64,3497.75C7095.01,3497.75 7113.15,3491.65 7129.37,3484.57Z" style="fill:url(#_Linear8);"/>
                        </g>
                        <g transform="matrix(0.128708,-0.00658023,0.00286032,0.0569118,11322.9,7335.4)">
                            <path d="M6814.74,3753.77C6763.88,3726.34 6676.92,3735.37 6682.86,3793.32C6688.81,3851.26 6659.53,3871.77 6616.37,3886.22C6573.21,3900.68 6532.64,3940.67 6578.6,3944.81C6624.55,3948.95 6626.47,3938.2 6661.6,3973.93C6696.74,4009.65 6667.03,4066.1 6736.76,4063.51C6806.49,4060.93 6916.62,4107.26 6905.48,4055.81C6894.33,4004.35 6939.84,4004.09 6950.97,3932.44C6990.63,3677.11 6967,3877.03 6923.82,3874.14C6880.65,3871.24 6865.61,3781.19 6814.74,3753.77Z" style="fill:url(#_Radial9);"/>
                        </g>
                    </g>
                    <g transform="matrix(0.132989,0,0,0.13413,11103,7034.92)">
                        <path d="M7186.11,3526.16C7171.36,3530.6 7158.33,3537.1 7155.49,3546.44C7153.36,3553.44 7131.06,3551.48 7124.13,3556.22C7107.57,3567.54 7100.11,3581.31 7097.49,3588.51C7093.76,3598.72 7058.04,3620.39 7058.04,3620.39C7058.04,3620.39 7064.69,3641.45 7092.94,3646.44C7103.58,3648.32 7119.53,3628.66 7133.22,3626.97C7148.1,3625.14 7160.31,3641.36 7160.15,3646.24C7159.47,3667.51 7225.57,3617.62 7219.7,3657.37C7217.55,3671.99 7198.85,3677.12 7196.57,3688.47C7192.65,3707.98 7205.53,3729.32 7205.53,3729.32C7205.53,3729.32 7218.73,3722.08 7229.3,3725.05C7234.03,3726.39 7234.96,3735.38 7239.6,3738.3C7244.46,3741.36 7255.98,3764.3 7265.11,3760.14C7274.27,3755.96 7280.4,3729.18 7289.35,3720.06C7298.91,3710.29 7311.2,3718.56 7318.12,3726.91C7325.23,3735.48 7334.31,3738.76 7343.04,3739.45C7308.56,3656.17 7254.29,3583.11 7186.11,3526.16ZM7384.48,3970.39L7317.96,3981.11C7317.96,3981.11 7255.14,3984.7 7265.59,4012.86C7276.04,4041.02 7245.62,4083.94 7256.82,4106.95C7268.02,4129.95 7287.77,4196.09 7276.08,4194.19C7273.92,4193.84 7255.55,4206.77 7249.47,4203.5C7243.21,4200.14 7249.14,4180.53 7240.83,4176.84C7235.59,4174.52 7230.16,4172.42 7224.8,4170.87C7220.52,4169.64 7204.75,4164.6 7201.29,4163.58C7189.31,4160.08 7180.6,4167.42 7180.6,4167.42L7190.64,4190.83L7178.65,4209.07C7178.65,4209.07 7169.23,4204.68 7155.14,4191.43C7152.51,4188.95 7152.63,4178.06 7149.44,4175.63C7147.71,4174.31 7138.9,4171.68 7137.12,4170.44C7134.65,4168.71 7121.23,4163.15 7117.84,4160.75C7113.62,4157.77 7108.07,4139.95 7102.09,4135.97C7092.63,4129.7 7083.97,4142.1 7081.9,4142.1C7079.27,4142.1 7067.27,4114.59 7057.33,4113.2C7035.98,4110.21 7010.35,4132 7010.35,4132L6995.77,4148.84L6994.65,4128.62L6978.16,4132.08C6978.16,4132.08 6959.06,4144.84 6955.22,4151.65C6950.55,4159.93 6954.08,4171.39 6954.4,4180.53C6954.89,4194.26 6939.05,4192.97 6943.02,4199.27C6943.48,4199.99 6931.63,4209.84 6932.58,4211.9C6935.23,4217.64 6951.4,4218.77 6949.52,4223.09C6946.81,4229.31 6934.1,4226.4 6931.43,4236.8C6929.28,4245.17 6920.32,4276.26 6918.49,4280.95C6915.04,4289.8 6924.8,4302.53 6919.99,4309.41C6916.93,4313.77 6904.45,4314.17 6901.2,4317.38C6898.49,4320.06 6905.88,4332.73 6902.87,4334.18C6898.98,4336.04 6890.85,4325.73 6886.59,4325.39C6878.5,4324.76 6870.39,4314.96 6862.69,4312.67C6854.06,4310.11 6845.94,4314.9 6838.98,4311.08C6820.05,4300.71 6808.53,4289.41 6809.15,4301.67C6809.51,4308.82 6797.55,4317.22 6795.14,4328.65C6794.46,4331.86 6792.6,4348.34 6792.4,4352.08C6792.14,4357.16 6799.06,4380.71 6804.86,4384.24C6824.75,4396.32 6794.34,4419.92 6794.34,4419.92L6772.91,4424.47C6772.91,4424.47 6789.15,4431.21 6809.28,4435.04C6811.39,4435.44 6817.98,4421.72 6820.13,4422.1C6830.09,4423.85 6830.74,4434.79 6838.31,4440.05C6843.15,4443.41 6849.49,4431.66 6854.69,4433.66C6859.77,4435.6 6863.77,4451.29 6864.28,4454.31C6868.02,4476.39 6939.6,4480.85 6939.6,4480.85L6946.39,4491.39C7190.43,4440 7375.38,4227.41 7384.48,3970.39Z" style="fill:url(#_Linear10);"/>
                    </g>
                    <g transform="matrix(0.132989,0,0,0.13413,10254.8,7461.83)">
                        <g transform="matrix(1.97224,-0.646367,0.163208,0.49799,-767.54,3187.23)">
                            <path d="M6808.33,3831.25C6757.47,3803.83 6676.92,3735.37 6682.86,3793.32C6688.81,3851.26 6659.53,3871.77 6616.37,3886.22C6573.21,3900.68 6532.64,3940.67 6578.6,3944.81C6624.55,3948.95 6626.47,3938.2 6661.6,3973.93C6696.74,4009.65 6667.03,4066.1 6736.76,4063.51C6806.49,4060.93 6916.62,4107.26 6905.48,4055.81C6894.33,4004.35 6776.04,3934.72 6851.74,3934.12C6927.43,3933.52 6967,3877.03 6923.82,3874.14C6880.65,3871.24 6859.19,3858.68 6808.33,3831.25Z" style="fill:url(#_Radial11);"/>
                        </g>
                        <g transform="matrix(1.78549,-1.05809,0.196855,0.332185,636.335,6556.67)">
                            <path d="M6814.74,3753.77C6763.88,3726.34 6676.92,3735.37 6682.86,3793.32C6688.81,3851.26 6659.53,3871.77 6616.37,3886.22C6573.21,3900.68 6532.64,3940.67 6578.6,3944.81C6624.55,3948.95 6626.47,3938.2 6661.6,3973.93C6696.74,4009.65 6667.03,4066.1 6736.76,4063.51C6806.49,4060.93 6916.62,4107.26 6905.48,4055.81C6894.33,4004.35 6939.84,4004.09 6950.97,3932.44C6990.63,3677.11 6967,3877.03 6923.82,3874.14C6880.65,3871.24 6865.61,3781.19 6814.74,3753.77Z" style="fill:url(#_Radial12);"/>
                        </g>
                        <g transform="matrix(0.833667,-0.494035,0.216592,0.365492,7012.58,2409.81)">
                            <path d="M6814.74,3753.77C6763.88,3726.34 6676.92,3735.37 6682.86,3793.32C6688.81,3851.26 6659.53,3871.77 6616.37,3886.22C6573.21,3900.68 6532.64,3940.67 6578.6,3944.81C6624.55,3948.95 6626.47,3938.2 6661.6,3973.93C6696.74,4009.65 6667.03,4066.1 6736.76,4063.51C6806.49,4060.93 6916.62,4107.26 6905.48,4055.81C6894.33,4004.35 6939.84,4004.09 6950.97,3932.44C6990.63,3677.11 6967,3877.03 6923.82,3874.14C6880.65,3871.24 6865.61,3781.19 6814.74,3753.77Z" style="fill:url(#_Radial13);"/>
                        </g>
                        <g transform="matrix(0.967815,-0.0490586,0.021508,0.424304,6293.58,-338.085)">
                            <path d="M6814.74,3753.77C6763.88,3726.34 6676.92,3735.37 6682.86,3793.32C6688.81,3851.26 6659.53,3871.77 6616.37,3886.22C6573.21,3900.68 6532.64,3940.67 6578.6,3944.81C6624.55,3948.95 6626.47,3938.2 6661.6,3973.93C6696.74,4009.65 6667.03,4066.1 6736.76,4063.51C6806.49,4060.93 6916.62,4107.26 6905.48,4055.81C6894.33,4004.35 6939.84,4004.09 6950.97,3932.44C6990.63,3677.11 6967,3877.03 6923.82,3874.14C6880.65,3871.24 6865.61,3781.19 6814.74,3753.77Z" style="fill:url(#_Radial14);"/>
                        </g>
                        <g transform="matrix(1.64744,-0.605732,0.103564,0.281668,1673.09,4108.39)">
                            <path d="M6814.74,3753.77C6763.88,3726.34 6676.92,3735.37 6682.86,3793.32C6688.81,3851.26 6659.53,3871.77 6616.37,3886.22C6573.21,3900.68 6532.64,3940.67 6578.6,3944.81C6624.55,3948.95 6626.47,3938.2 6661.6,3973.93C6696.74,4009.65 6667.03,4066.1 6736.76,4063.51C6806.49,4060.93 6916.62,4107.26 6905.48,4055.81C6894.33,4004.35 6939.84,4004.09 6950.97,3932.44C6990.63,3677.11 6967,3877.03 6923.82,3874.14C6880.65,3871.24 6865.61,3781.19 6814.74,3753.77Z" style="fill:url(#_Radial15);"/>
                        </g>
                        <g transform="matrix(1.1458,-0.375518,0.0918545,0.280272,5129.32,1963.3)">
                            <path d="M6808.33,3831.25C6757.47,3803.83 6676.92,3735.37 6682.86,3793.32C6688.81,3851.26 6659.53,3871.77 6616.37,3886.22C6573.21,3900.68 6532.64,3940.67 6578.6,3944.81C6624.55,3948.95 6626.47,3938.2 6661.6,3973.93C6696.74,4009.65 6667.03,4066.1 6736.76,4063.51C6806.49,4060.93 6916.62,4107.26 6905.48,4055.81C6894.33,4004.35 6989.96,4059.91 7065.65,4059.31C7141.35,4058.71 6967,3877.03 6923.82,3874.14C6880.65,3871.24 6859.19,3858.68 6808.33,3831.25Z" style="fill:url(#_Radial16);"/>
                        </g>
                        <g transform="matrix(1.9509,-0.639374,0.0918545,0.280272,-506.579,3929.69)">
                            <path d="M6812.83,3636.91C6761.96,3609.49 6676.92,3735.37 6682.86,3793.32C6688.81,3851.26 6659.53,3871.77 6616.37,3886.22C6573.21,3900.68 6532.64,3940.67 6578.6,3944.81C6624.55,3948.95 6626.47,3938.2 6661.6,3973.93C6696.74,4009.65 6667.03,4066.1 6736.76,4063.51C6806.49,4060.93 6916.62,4107.26 6905.48,4055.81C6894.33,4004.35 6989.96,4059.91 7065.65,4059.31C7141.35,4058.71 6967,3877.03 6923.82,3874.14C6880.65,3871.24 6863.69,3664.34 6812.83,3636.91Z" style="fill:url(#_Radial17);"/>
                        </g>
                    </g>
                    <g transform="matrix(0.0786756,0.00426282,-0.00385595,0.0723929,11945,7117.37)">
                        <circle cx="974.575" cy="5317.67" r="299.048" style="fill:rgb(56,81,96);fill-opacity:0.7;"/>
                    </g>
                    <g transform="matrix(0.0838423,0.00454276,-0.00450411,0.0845617,11936.2,7046.99)">
                        <circle cx="974.575" cy="5317.67" r="299.048" style="fill:url(#_Linear18);"/>
                    </g>
                    <g transform="matrix(0.059545,0.00322628,-0.00319883,0.060056,11909.3,7349.61)">
                        <circle cx="974.575" cy="5317.67" r="299.048" style="fill:url(#_Linear19);"/>
                    </g>
                    <g transform="matrix(0.227901,0,0,0.229856,11810,6365.15)">
                        <path d="M650.943,5438.64C647.141,5440.21 671.94,5462.05 677.841,5466.44C727.178,5451.9 839.005,5429.9 956.703,5384.1C1065.05,5341.94 1141.85,5313.73 1203.63,5274.52C1209.92,5234.45 1204.85,5177.9 1203.2,5169.38C1145.21,5200.84 1062.43,5249.48 943.826,5307.84C816.015,5370.72 717.655,5422.09 650.943,5438.64Z" style="fill:rgb(56,81,96);fill-opacity:0.6;"/>
                    </g>
                    <g transform="matrix(0.23421,0,0,0.23622,11798.3,6323.99)">
                        <path d="M428.857,5504.53C434.13,5522.19 538.04,5563.36 960.331,5350.52C1417.92,5119.87 1409.37,5028.66 1402.28,5016.46C1395.19,5004.25 1349.01,4984.12 1153.29,5051.4C1165.45,5066.55 1172.73,5077.08 1173.04,5078.42C1173.36,5079.77 1264.68,5051.17 1280.08,5078.23C1295.47,5105.3 1201.92,5205 949.249,5329.32C696.573,5453.64 562.787,5474.69 549.903,5442.79C537.018,5410.89 604.713,5363.11 614.435,5356.9C613.356,5353.27 605.307,5324.58 604.582,5322.32C603.933,5324.18 410.84,5444.2 428.857,5504.53Z" style="fill:rgb(63,90,104);"/>
                    </g>
                </g>
            </g>
        </g>
    </g>
    <defs>
        <linearGradient id="_Linear2" x1="0" y1="0" x2="1" y2="0" gradientUnits="userSpaceOnUse" gradientTransform="matrix(-24.5512,-75.8176,-63.1326,20.2633,248.063,176.864)"><stop offset="0" style="stop-color:rgb(81,87,89);stop-opacity:1"/><stop offset="1" style="stop-color:rgb(162,165,170);stop-opacity:1"/></linearGradient>
        <linearGradient id="_Linear3" x1="0" y1="0" x2="1" y2="0" gradientUnits="userSpaceOnUse" gradientTransform="matrix(-24.2539,-76.3269,-63.6077,19.8606,164.231,206.866)"><stop offset="0" style="stop-color:rgb(154,160,162);stop-opacity:1"/><stop offset="0.56" style="stop-color:rgb(207,212,213);stop-opacity:1"/><stop offset="1" style="stop-color:rgb(230,234,235);stop-opacity:1"/></linearGradient>
        <linearGradient id="_Linear4" x1="0" y1="0" x2="1" y2="0" gradientUnits="userSpaceOnUse" gradientTransform="matrix(-19.7971,-58.8127,-48.8899,16.5955,119.527,215.187)"><stop offset="0" style="stop-color:rgb(81,87,89);stop-opacity:1"/><stop offset="1" style="stop-color:rgb(162,165,170);stop-opacity:1"/></linearGradient>
        <linearGradient id="_Linear5" x1="0" y1="0" x2="1" y2="0" gradientUnits="userSpaceOnUse" gradientTransform="matrix(-24.2539,-76.3269,-63.6077,19.8606,164.231,206.866)"><stop offset="0" style="stop-color:rgb(154,160,162);stop-opacity:1"/><stop offset="0.56" style="stop-color:rgb(207,212,213);stop-opacity:1"/><stop offset="1" style="stop-color:rgb(230,234,235);stop-opacity:1"/></linearGradient>
        <linearGradient id="_Linear6" x1="0" y1="0" x2="1" y2="0" gradientUnits="userSpaceOnUse" gradientTransform="matrix(-29.4826,-92.5296,-77.1014,24.17,289.286,177.588)"><stop offset="0" style="stop-color:rgb(81,87,89);stop-opacity:1"/><stop offset="1" style="stop-color:rgb(162,165,170);stop-opacity:1"/></linearGradient>
        <linearGradient id="_Linear7" x1="0" y1="0" x2="1" y2="0" gradientUnits="userSpaceOnUse" gradientTransform="matrix(42.3936,48.7495,-48.7495,42.3936,12887.8,9116.84)"><stop offset="0" style="stop-color:rgb(218,230,228);stop-opacity:1"/><stop offset="0.57" style="stop-color:rgb(127,155,168);stop-opacity:1"/><stop offset="1" style="stop-color:rgb(86,122,142);stop-opacity:1"/></linearGradient>
        <linearGradient id="_Linear8" x1="0" y1="0" x2="1" y2="0" gradientUnits="userSpaceOnUse" gradientTransform="matrix(567.074,540.087,-540.087,567.074,6679.66,3801.56)"><stop offset="0" style="stop-color:rgb(147,173,187);stop-opacity:1"/><stop offset="1" style="stop-color:rgb(49,85,104);stop-opacity:1"/></linearGradient>
        <radialGradient id="_Radial9" cx="0" cy="0" r="1" gradientUnits="userSpaceOnUse" gradientTransform="matrix(111.516,118.071,-118.071,111.516,6757.28,3914.21)"><stop offset="0" style="stop-color:rgb(102,133,149);stop-opacity:1"/><stop offset="1" style="stop-color:rgb(102,133,149);stop-opacity:0"/></radialGradient>
        <linearGradient id="_Linear10" x1="0" y1="0" x2="1" y2="0" gradientUnits="userSpaceOnUse" gradientTransform="matrix(330.407,534.112,-534.112,330.407,6929.31,3894.82)"><stop offset="0" style="stop-color:rgb(70,101,117);stop-opacity:1"/><stop offset="0.57" style="stop-color:rgb(60,90,106);stop-opacity:1"/><stop offset="0.79" style="stop-color:rgb(40,66,83);stop-opacity:1"/><stop offset="1" style="stop-color:rgb(21,44,62);stop-opacity:1"/></linearGradient>
        <radialGradient id="_Radial11" cx="0" cy="0" r="1" gradientUnits="userSpaceOnUse" gradientTransform="matrix(111.516,118.071,-118.071,111.516,6757.28,3914.21)"><stop offset="0" style="stop-color:rgb(205,219,219);stop-opacity:1"/><stop offset="1" style="stop-color:rgb(205,219,219);stop-opacity:0"/></radialGradient>
        <radialGradient id="_Radial12" cx="0" cy="0" r="1" gradientUnits="userSpaceOnUse" gradientTransform="matrix(111.516,118.071,-118.071,111.516,6757.28,3914.21)"><stop offset="0" style="stop-color:rgb(102,133,149);stop-opacity:1"/><stop offset="1" style="stop-color:rgb(102,133,149);stop-opacity:0"/></radialGradient>
        <radialGradient id="_Radial13" cx="0" cy="0" r="1" gradientUnits="userSpaceOnUse" gradientTransform="matrix(111.516,118.071,-118.071,111.516,6757.28,3914.21)"><stop offset="0" style="stop-color:rgb(102,133,149);stop-opacity:1"/><stop offset="1" style="stop-color:rgb(102,133,149);stop-opacity:0"/></radialGradient>
        <radialGradient id="_Radial14" cx="0" cy="0" r="1" gradientUnits="userSpaceOnUse" gradientTransform="matrix(111.516,118.071,-118.071,111.516,6757.28,3914.21)"><stop offset="0" style="stop-color:rgb(102,133,149);stop-opacity:1"/><stop offset="1" style="stop-color:rgb(102,133,149);stop-opacity:0"/></radialGradient>
        <radialGradient id="_Radial15" cx="0" cy="0" r="1" gradientUnits="userSpaceOnUse" gradientTransform="matrix(111.516,118.071,-118.071,111.516,6757.28,3914.21)"><stop offset="0" style="stop-color:rgb(102,133,149);stop-opacity:1"/><stop offset="1" style="stop-color:rgb(102,133,149);stop-opacity:0"/></radialGradient>
        <radialGradient id="_Radial16" cx="0" cy="0" r="1" gradientUnits="userSpaceOnUse" gradientTransform="matrix(111.516,118.071,-118.071,111.516,6757.28,3914.21)"><stop offset="0" style="stop-color:rgb(218,230,228);stop-opacity:1"/><stop offset="1" style="stop-color:rgb(218,230,228);stop-opacity:0"/></radialGradient>
        <radialGradient id="_Radial17" cx="0" cy="0" r="1" gradientUnits="userSpaceOnUse" gradientTransform="matrix(111.516,118.071,-118.071,111.516,6757.28,3914.21)"><stop offset="0" style="stop-color:rgb(206,220,220);stop-opacity:1"/><stop offset="1" style="stop-color:rgb(206,220,220);stop-opacity:0"/></radialGradient>
        <linearGradient id="_Linear18" x1="0" y1="0" x2="1" y2="0" gradientUnits="userSpaceOnUse" gradientTransform="matrix(559.174,317.713,-317.713,559.174,820.977,5200.5)"><stop offset="0" style="stop-color:rgb(158,181,195);stop-opacity:1"/><stop offset="1" style="stop-color:rgb(86,122,142);stop-opacity:1"/></linearGradient>
        <linearGradient id="_Linear19" x1="0" y1="0" x2="1" y2="0" gradientUnits="userSpaceOnUse" gradientTransform="matrix(559.174,317.713,-317.713,559.174,820.977,5200.5)"><stop offset="0" style="stop-color:rgb(158,181,195);stop-opacity:1"/><stop offset="1" style="stop-color:rgb(86,122,142);stop-opacity:1"/></linearGradient>
    </defs>
</svg>
