<?xml version="1.0" encoding="UTF-8" standalone="no"?>
<!DOCTYPE svg PUBLIC "-//W3C//DTD SVG 1.1//EN" "http://www.w3.org/Graphics/SVG/1.1/DTD/svg11.dtd">
<svg width="100%" height="100%" viewBox="0 0 2481 2481" version="1.1" xmlns="http://www.w3.org/2000/svg" xmlns:xlink="http://www.w3.org/1999/xlink" xml:space="preserve" xmlns:serif="http://www.serif.com/" style="fill-rule:evenodd;clip-rule:evenodd;stroke-linecap:round;stroke-linejoin:round;stroke-miterlimit:1.5;">
    <g transform="matrix(1,0,0,1,0,-3199.15)">
        <g id="ICONS" transform="matrix(1,0,0,1,-12236.3,3182.81)">
            <rect x="12236.3" y="16.332" width="2480.34" height="2480.7" style="fill:none;"/>
            <clipPath id="_clip1">
                <rect x="12236.3" y="16.332" width="2480.34" height="2480.7"/>
            </clipPath>
            <g clip-path="url(#_clip1)">
                <g transform="matrix(1.03136,0,0,1.02766,-421.058,-34.576)">
                    <rect x="12239.3" y="16.724" width="2472.76" height="2482.77" style="fill:rgb(23,23,23);"/>
                </g>
                <g id="TELESCOPE" transform="matrix(0.557128,0,0,0.557128,6593.47,1105.8)">
                    <g transform="matrix(-2.04241,-0.334381,-0.0938338,1.7839,14592.1,1015.05)">
                        <path d="M164.124,211.771L139.129,129.257C139.129,129.257 131.234,132.262 124.224,134.93C115.272,138.336 109.195,147.384 108.389,158.509C107.918,165.399 108.481,173.798 111.507,183.225C114.228,191.702 118.015,198.462 121.894,203.728C129.415,213.877 140.964,218.505 151.275,215.503C157.693,213.644 164.124,211.771 164.124,211.771Z" style="fill:url(#_Linear2);"/>
                    </g>
                    <g transform="matrix(-3.62373,-0.593272,-0.166484,3.16506,14720.1,765.118)">
                        <path d="M196.551,202.329L168.313,118.15C168.313,118.15 132.362,131.833 118.741,137.017C115.096,138.403 112.291,141.572 111.009,145.751C108.664,153.559 106.284,167.364 111.507,183.225C116.716,199.042 125.509,208.898 131.644,214.216C135.516,217.499 140.289,218.686 144.583,217.436C159.469,213.127 196.551,202.329 196.551,202.329Z" style="fill:url(#_Linear3);"/>
                    </g>
                    <g transform="matrix(-3.62373,-0.593272,-0.166484,3.16506,14720.1,765.118)">
                        <path d="M120.847,202.113C124.581,207.494 128.469,211.463 131.644,214.216C135.516,217.499 140.289,218.686 144.583,217.436C159.469,213.127 196.551,202.329 196.551,202.329L188.617,178.677L120.847,202.113Z" style="fill:rgb(156,161,164);"/>
                    </g>
                    <g transform="matrix(-5.89667,-0.965395,-0.270909,5.15031,14688.5,301.451)">
                        <path d="M113.152,140.85C113.152,140.85 103.691,144.809 98.464,146.997C96.036,148.013 94.229,150.259 93.514,153.151C91.974,159.382 90.596,171.54 96.213,188.36C101.794,205.07 110.079,214.87 115.168,219.666C117.725,222.057 121.016,222.912 123.914,221.939C128.964,220.246 136.737,217.636 136.737,217.636L113.152,140.85Z" style="fill:url(#_Linear4);"/>
                    </g>
                    <g transform="matrix(-5.89667,-0.965395,-0.270909,5.15031,14688.5,301.451)">
                        <path d="M231.698,94.027C231.698,94.027 134.979,130.836 116.592,137.834C114.542,138.614 112.917,140.315 112.052,142.586C109.575,149.365 105.481,164.927 111.507,183.225C117.651,201.88 128.781,212.243 134.653,216.649C136.932,218.333 139.618,218.89 142.044,218.184C161.942,212.407 259.217,184.08 259.217,184.08L231.698,94.027Z" style="fill:url(#_Linear5);"/>
                    </g>
                    <g transform="matrix(-5.89667,-0.965395,-0.270909,5.15031,14688.5,301.451)">
                        <path d="M123.819,206.082C127.885,211.116 131.863,214.555 134.653,216.649C136.932,218.333 139.618,218.89 142.044,218.184C161.942,212.407 259.217,184.08 259.217,184.08L252.493,162.077L123.819,206.082Z" style="fill:rgb(156,161,164);"/>
                    </g>
                    <g transform="matrix(2.04578,-1.10671e-16,-3.40691e-16,2.04578,7500.94,-158.091)">
                        <path d="M2896.96,433.197L3081.45,522.081" style="fill:none;stroke:white;stroke-width:41.67px;"/>
                    </g>
                    <g transform="matrix(-5.89667,-0.965395,-0.270909,5.15031,14716.5,317.017)">
                        <path d="M300.686,60.191L234.634,85.941C234.634,85.941 221.441,114.376 233.022,145.422C244.973,177.462 263.938,187.131 264.903,187.348C265.869,187.566 332.884,169.381 332.884,169.381L300.686,60.191Z" style="fill:rgb(38,38,38);"/>
                    </g>
                    <g transform="matrix(-5.89667,-0.965395,-0.270909,5.15031,14688.5,301.451)">
                        <path d="M302.382,59.27C302.382,59.27 251.457,79.318 237.911,84.651C235.723,85.512 234.001,87.357 233.099,89.805C230.019,98.612 223.996,121.224 233.022,145.422C242.31,170.322 255.897,182.13 262.177,186.268C263.977,187.454 264.973,188.007 266.718,187.824C276.362,185.378 338.851,168.987 338.851,168.987L302.382,59.27Z" style="fill:url(#_Linear6);"/>
                    </g>
                    <g transform="matrix(-6.4344,-2.96317,-2.62806,5.69913,15184.3,835.487)">
                        <ellipse cx="324.869" cy="124.092" rx="21.046" ry="46.502" style="fill:rgb(209,216,219);"/>
                    </g>
                    <g transform="matrix(-4.71109,-2.16955,-1.92419,4.17275,14545.5,769.05)">
                        <ellipse cx="324.869" cy="124.092" rx="21.046" ry="46.502" style="fill:rgb(32,36,38);"/>
                    </g>
                    <g transform="matrix(1.69989,0.150446,0.0673442,1.50266,10842.8,-1080.89)">
                        <path d="M1178.04,941.448C1178.04,941.448 1136.95,924.681 1097.67,1011.48C1059.92,1094.91 1091.83,1114.7 1093.59,1113.4C1111.89,1099.98 1167.61,1030.64 1178.04,941.448Z" style="fill:white;"/>
                    </g>
                    <g transform="matrix(2.04578,0,0,2.04578,5217.46,-1558.17)">
                        <path d="M3761.47,1094.21C3755.21,1091.24 3747.72,1093.63 3744.33,1099.67C3735.84,1114.12 3718.14,1140.28 3692.33,1160.59C3692.34,1160.58 3838.31,1222.78 3870.16,1236.35C3874.22,1238.08 3878.88,1237.62 3882.52,1235.12C3890.89,1229.22 3906.95,1215.53 3926.04,1187.1C3927.92,1184.32 3928.59,1180.9 3927.91,1177.61C3927.22,1174.32 3925.23,1171.45 3922.39,1169.66C3889.47,1154.04 3794.15,1109.48 3761.47,1094.21Z" style="fill:rgb(45,51,58);"/>
                    </g>
                    <g transform="matrix(1.73161,0,0,8.13619,6480.44,-20927)">
                        <path d="M4022.63,2842.51C4016.79,2842.11 4007.37,2840.95 4007.37,2839.58L4007.37,2765.4L4075.41,2765.4L4075.36,2839.53C4075.2,2841.04 4066,2842.27 4060.41,2842.53L4060.41,2879.04L4022.63,2879.04L4022.63,2842.51Z" style="fill:rgb(155,181,195);"/>
                    </g>
                    <g transform="matrix(4.57766,0,0,4.57766,-64597.9,-11256.2)">
                        <path d="M16996.4,2802.43L16947.9,2901.75C16947.9,2901.75 16946.2,2903.83 16947.9,2910.2C16947.6,2910.9 16901.7,3004.43 16901.7,3004.43L16916.9,3004.43L16960.1,2916.98C16960.1,2916.98 16965.4,2915.25 16966.7,2912.33C16967.3,2910.95 17020.5,2802.45 17020.5,2802.45L16996.4,2802.43Z" style="fill:rgb(158,181,195);"/>
                    </g>
                    <g transform="matrix(2.09503,0,0,2.04578,5019.52,-1558.17)">
                        <path d="M4045.21,1457.62L4045.21,1530.69L3889.56,1530.69C3884.55,1530.69 3880.49,1526.53 3880.49,1521.4L3880.49,1502.81C3880.49,1497.68 3884.55,1493.51 3889.56,1493.51L3989.67,1493.51L3989.67,1457.62L4045.21,1457.62Z" style="fill:rgb(155,181,195);"/>
                    </g>
                    <g transform="matrix(2.09503,0,0,2.04578,5019.52,-1558.17)">
                        <path d="M3989.67,1448.34L3989.67,1448.29C3969.12,1448.26 3963.62,1448.23 3963.04,1448.23L3971.68,1406.62C3971.68,1399.14 3977.61,1393.06 3984.92,1393.06L4032.1,1393.06L4032.1,1448.34L3989.67,1448.34Z" style="fill:rgb(158,181,195);"/>
                    </g>
                    <g transform="matrix(2.04729,0,0,2.04711,11544.9,-1477.48)">
                        <path d="M811.016,1490.29L865.063,1490.35L845.409,1530.34C845.409,1530.34 842.141,1503.09 807.866,1496.9C808.106,1496.31 811.016,1490.29 811.016,1490.29Z" style="fill:rgb(86,122,142);"/>
                    </g>
                    <g transform="matrix(-6.06772,0,0,6.06772,14657.8,-92.8091)">
                        <path d="M198.704,228.221L209.175,228.221L209.175,213.454C210.802,212.216 212.47,210.329 213.846,208.24C216.212,204.647 215.192,197.469 215.129,196.945C206.095,196.905 203.429,194.985 200.887,192.615C198.345,190.244 196.027,187.771 188.987,187.658C182.111,187.171 177.746,190.099 175.216,192.817C174.973,193.026 174.746,193.231 174.537,193.428C172.355,195.478 171.099,198.429 171.19,202.803C171.306,208.352 173.824,211.753 176.603,213.779C177.421,214.413 178.308,214.928 179.24,215.308C179.427,215.392 179.613,215.472 179.795,215.546L179.885,227.202L179.898,228.182L176.602,228.182C174.069,228.182 172.012,230.23 172.012,232.753L168.85,246.856C169.051,246.856 170.898,246.848 177.945,246.838L177.945,246.84L177.742,246.84L177.594,262.023L177.945,262.027L177.945,262.048L143.403,262.048C141.666,262.048 140.256,263.453 140.256,265.182L140.256,271.451C140.256,273.18 141.666,274.585 143.403,274.585L150.815,274.593L114.156,349.66C114.156,349.66 112.801,351.241 114.197,356.036C113.934,356.561 79.469,426.826 79.469,426.826L90.923,426.824L123.356,361.144C123.356,361.144 127.362,359.837 128.355,357.633C128.81,356.622 167.03,278.668 169.021,274.613L184.468,274.629C184.468,274.629 184.491,288.3 184.532,288.294C184.517,315.663 184.49,374.41 184.541,374.913C184.828,376.825 188.896,377.947 188.896,377.947C188.896,377.947 190.06,378.221 191.906,378.252C191.99,326.131 192.098,300.709 192.184,287.641C195.37,287.488 199.435,287.417 204.175,287.599C204.094,287.401 204.104,274.599 204.104,274.599L198.704,274.606L198.704,263.121L198.704,260.603C199.758,250.873 210.916,250.135 210.916,250.135L210.923,246.788L198.704,246.807L198.704,228.221Z" style="fill:rgb(86,122,142);"/>
                    </g>
                    <g transform="matrix(2.04578,0,0,2.04578,3071.49,-4511.86)">
                        <path d="M5144.2,2732.48C5133.84,2723.42 5112.68,2711.12 5085.23,2728.91C5056.24,2747.69 5067.78,2781.92 5069.74,2785.66C5071.48,2788.99 5075.99,2796.46 5083.53,2799.24C5067.92,2798.58 5053.17,2797.91 5052.97,2797.73C5045.85,2797.35 5036.27,2788.47 5029.25,2777.82C5022.24,2767.16 5025.26,2745.87 5025.45,2744.31C5052.24,2744.2 5060.15,2738.5 5067.69,2731.47C5075.23,2724.44 5082.1,2717.1 5102.98,2716.77C5123.72,2715.3 5136.76,2724.3 5144.2,2732.48Z" style="fill:rgb(54,80,97);"/>
                    </g>
                    <g transform="matrix(2.04578,0,0,2.04578,11545.5,-1475.68)">
                        <path d="M988.067,1315.29L987.799,1352.74L953.098,1352.66L953.098,1316.59C961.188,1317.29 972.38,1318.23 976.391,1318.18C978.414,1318.16 982.895,1317.41 988.067,1315.29Z" style="fill:rgb(54,80,97);"/>
                    </g>
                    <g transform="matrix(2.5021,0.599495,-0.640863,2.67476,5507.62,-8763.39)">
                        <ellipse cx="3937.37" cy="2822.13" rx="25.282" ry="26.635" style="fill:rgb(54,80,97);"/>
                    </g>
                </g>
                <g id="Astro-Instrumentation" serif:id="Astro Instrumentation" transform="matrix(0.992358,0,0,1.00022,87.8161,-1.75476)">
                    <g transform="matrix(2.06895,0,0,2.06895,-35025,-33386.5)">
                        <path d="M23284.8,16475L23600.5,16142.2L23706.3,16142.2L23295.3,16499.7L23284.8,16475Z" style="fill:rgb(217,101,38);"/>
                    </g>
                    <g transform="matrix(2.06895,0,0,2.06895,-35025,-33386.5)">
                        <path d="M23296.2,16497L23706.3,16142.2L23806.1,16142.2L23307.2,16519.1L23296.2,16497Z" style="fill:rgb(230,169,26);"/>
                    </g>
                    <g transform="matrix(1.22554,0,0,1.22554,-17728.9,-19790.5)">
                        <path d="M25061.2,16462.1C25058.8,16457.6 25054,16454.8 25048.9,16454.7C25043.7,16454.7 25039,16457.5 25036.6,16462.1C25036.6,16462.1 24787.6,16923 24723.2,17042.2C24719.6,17048.8 24719.4,17056.6 24722.5,17063.4C24725.7,17070.2 24731.8,17075.1 24739.1,17076.7C24823.1,17094.7 25048.9,17143.2 25048.9,17143.2L25063.5,17130.6L25067.7,16474.4C25067.7,16474.4 25064.8,16468.8 25061.2,16462.1Z" style="fill:url(#_Linear7);"/>
                    </g>
                    <g transform="matrix(-1.22554,0,0,1.22554,43668.9,-19790.5)">
                        <path d="M25049.7,16454.7C25046.9,16454.7 25042.7,16455.5 25038.6,16459.7C25038.4,16459.8 25038.1,16460.2 25038.1,16460.2C25038.1,16460.2 24774,16948.4 24723.5,17041.6C24719.9,17048.3 24719.6,17056.4 24722.8,17063.3C24726,17070.2 24732.3,17075.2 24739.7,17076.8C24824.4,17095 25049.8,17143.4 25049.8,17143.4L25049.7,16454.8C25049.7,16454.8 25049.7,16454.8 25049.7,16454.7Z" style="fill:url(#_Linear8);"/>
                    </g>
                    <g transform="matrix(1.5057,0,0,1.5057,-23757.9,-24496.9)">
                        <path d="M24232.6,16809.6L23897.2,16704L23883.8,16651.7L24257.1,16764.6L24232.6,16809.6Z" style="fill:white;"/>
                    </g>
                    <g transform="matrix(1.83369,0,0,2.28548,-29571.4,-36959.6)">
                        <path d="M23086.1,16496.8L23197.9,16456.6L23269.3,16430.7L23368.1,16577.5L23200,16549.3L23065.5,16526.7L23086.1,16496.8Z" style="fill:rgb(155,199,224);"/>
                    </g>
                    <g transform="matrix(2.06895,0,0,2.06895,-35025,-33386.5)">
                        <path d="M23259.4,16423.6L23476.9,16142.7L23608,16142.7L23285.7,16476.5L23259.4,16423.6Z" style="fill:rgb(191,38,38);"/>
                    </g>
                    <g transform="matrix(2.06895,0,0,2.06895,-35025,-33386.5)">
                        <path d="M23303.1,16520L23801.3,16141.9L23829.2,16141.9C23829.2,16141.9 23878.8,16134.6 23894.2,16139.5C23894.7,16139.8 23313,16535.5 23313,16535.5L23303.1,16520Z" style="fill:rgb(143,217,38);"/>
                    </g>
                    <g transform="matrix(2.06895,0,0,2.06895,-35025,-33386.5)">
                        <path d="M23313.4,16533.7L23896.4,16136.1C23896.4,16136.1 24013.8,16109.5 24041.7,16129C24036.9,16133.3 23323.2,16551.8 23323.2,16551.8L23313.4,16533.7Z" style="fill:rgb(38,185,217);"/>
                    </g>
                    <g transform="matrix(2.06895,0,0,2.06895,-35025,-33386.5)">
                        <path d="M23323.4,16550.5L24025.6,16137.5C24025.6,16137.5 24073,16144.7 24104.1,16177.6C24098,16182.8 23334.2,16571.9 23334.2,16571.9L23323.4,16550.5Z" style="fill:rgb(38,123,217);"/>
                    </g>
                    <g transform="matrix(2.06895,0,0,2.06895,-35025,-33386.5)">
                        <path d="M23331,16572.4L24059.1,16196.9C24059.1,16196.9 24049.9,16273.6 24057.6,16327.4C24054.9,16329.7 23346.7,16585.6 23346.7,16585.6L23331,16572.4Z" style="fill:rgb(87,51,204);"/>
                    </g>
                    <g transform="matrix(1.80966,0,0,2.28548,-29010.1,-36959.6)">
                        <path d="M23197.7,16549.2L23197.4,16456.3L23268.1,16430.7L23368.2,16577.5L23197.7,16549.2Z" style="fill:rgb(120,175,202);"/>
                    </g>
                    <g transform="matrix(1,0,0,1,12.0933,0)">
                        <g opacity="0.37">
                            <g transform="matrix(1,0,0,1,6378.39,-3182.81)">
                                <path d="M6707.05,3775.7L6370.84,3926.44L6362.06,3942.53L6764.6,3882.35L6707.05,3775.7Z" style="fill:rgb(191,38,38);"/>
                            </g>
                            <g transform="matrix(1,0,0,1,6378.39,-3182.81)">
                                <path d="M6764.6,3882.35L6362.42,3941.5L6356.17,3952.83L6788.69,3923.8L6764.6,3882.35Z" style="fill:rgb(217,101,38);"/>
                            </g>
                            <g transform="matrix(1,0,0,1,6378.39,-3182.81)">
                                <path d="M6788.69,3923.8L6357.06,3950.78L6352.57,3959.64L6810.8,3965.77L6788.69,3923.8Z" style="fill:rgb(230,169,26);"/>
                            </g>
                            <g transform="matrix(1,0,0,1,6378.39,-3182.81)">
                                <path d="M6810.8,3965.77L6354.02,3956.37L6348.72,3966.24L6828.4,3999.79L6810.8,3965.77Z" style="fill:rgb(143,217,38);"/>
                            </g>
                            <g transform="matrix(1,0,0,1,6378.39,-3182.81)">
                                <path d="M6828.4,3999.79L6349.09,3965.74L6345.2,3972.29L6848.49,4034.06L6828.4,3999.79Z" style="fill:rgb(38,185,217);"/>
                            </g>
                            <g transform="matrix(1,0,0,1,6378.39,-3182.81)">
                                <path d="M6848.49,4034.06L6345.63,3971.98L6338.91,3983.1L6870.63,4076.71L6848.49,4034.06Z" style="fill:rgb(38,123,217);"/>
                            </g>
                            <g transform="matrix(1,0,0,1,6378.39,-3182.81)">
                                <path d="M6870.63,4076.71L6339.23,3983L6332.89,3994.71L6888.67,4110.77L6870.63,4076.71Z" style="fill:rgb(87,51,204);"/>
                            </g>
                        </g>
                    </g>
                    <g transform="matrix(1.0077,0,0,0.999779,6339.02,-3180.36)">
                        <path d="M6550.03,3667.19L6507.5,4303.22L6317.48,4248.65L6550.03,3667.19Z" style="fill:white;fill-opacity:0.3;"/>
                    </g>
                    <g transform="matrix(0.863401,0.360852,-0.4635,1.09164,5072.98,-14688.5)">
                        <circle cx="13998.1" cy="9535.81" r="49.065" style="fill:url(#_Radial9);"/>
                    </g>
                </g>
            </g>
        </g>
    </g>
    <defs>
        <linearGradient id="_Linear2" x1="0" y1="0" x2="1" y2="0" gradientUnits="userSpaceOnUse" gradientTransform="matrix(-24.5512,-75.8176,-63.1326,20.2633,248.063,176.864)"><stop offset="0" style="stop-color:rgb(81,87,89);stop-opacity:1"/><stop offset="1" style="stop-color:rgb(162,165,170);stop-opacity:1"/></linearGradient>
        <linearGradient id="_Linear3" x1="0" y1="0" x2="1" y2="0" gradientUnits="userSpaceOnUse" gradientTransform="matrix(-24.2539,-76.3269,-63.6077,19.8606,164.231,206.866)"><stop offset="0" style="stop-color:rgb(154,160,162);stop-opacity:1"/><stop offset="0.56" style="stop-color:rgb(207,212,213);stop-opacity:1"/><stop offset="1" style="stop-color:rgb(230,234,235);stop-opacity:1"/></linearGradient>
        <linearGradient id="_Linear4" x1="0" y1="0" x2="1" y2="0" gradientUnits="userSpaceOnUse" gradientTransform="matrix(-19.7971,-58.8127,-48.8899,16.5955,119.527,215.187)"><stop offset="0" style="stop-color:rgb(81,87,89);stop-opacity:1"/><stop offset="1" style="stop-color:rgb(162,165,170);stop-opacity:1"/></linearGradient>
        <linearGradient id="_Linear5" x1="0" y1="0" x2="1" y2="0" gradientUnits="userSpaceOnUse" gradientTransform="matrix(-24.2539,-76.3269,-63.6077,19.8606,164.231,206.866)"><stop offset="0" style="stop-color:rgb(154,160,162);stop-opacity:1"/><stop offset="0.56" style="stop-color:rgb(207,212,213);stop-opacity:1"/><stop offset="1" style="stop-color:rgb(230,234,235);stop-opacity:1"/></linearGradient>
        <linearGradient id="_Linear6" x1="0" y1="0" x2="1" y2="0" gradientUnits="userSpaceOnUse" gradientTransform="matrix(-29.4826,-92.5296,-77.1014,24.17,289.286,177.588)"><stop offset="0" style="stop-color:rgb(81,87,89);stop-opacity:1"/><stop offset="1" style="stop-color:rgb(162,165,170);stop-opacity:1"/></linearGradient>
        <linearGradient id="_Linear7" x1="0" y1="0" x2="1" y2="0" gradientUnits="userSpaceOnUse" gradientTransform="matrix(-226.491,-51.5827,51.9914,-224.711,25051.8,16908.6)"><stop offset="0" style="stop-color:rgb(200,227,236);stop-opacity:1"/><stop offset="0.51" style="stop-color:rgb(207,231,238);stop-opacity:1"/><stop offset="1" style="stop-color:rgb(230,243,243);stop-opacity:1"/></linearGradient>
        <linearGradient id="_Linear8" x1="0" y1="0" x2="1" y2="0" gradientUnits="userSpaceOnUse" gradientTransform="matrix(-235.718,-55.6871,-56.1284,233.864,25049.9,16862.6)"><stop offset="0" style="stop-color:rgb(155,199,224);stop-opacity:1"/><stop offset="1" style="stop-color:rgb(92,135,156);stop-opacity:1"/></linearGradient>
        <radialGradient id="_Radial9" cx="0" cy="0" r="1" gradientUnits="userSpaceOnUse" gradientTransform="matrix(39.7791,12.9665,-11.9192,39.4116,13999.3,9536.97)"><stop offset="0" style="stop-color:white;stop-opacity:1"/><stop offset="0.52" style="stop-color:white;stop-opacity:0.266667"/><stop offset="1" style="stop-color:white;stop-opacity:0"/></radialGradient>
    </defs>
</svg>
