<?xml version="1.0" encoding="UTF-8" standalone="no"?>
<!DOCTYPE svg PUBLIC "-//W3C//DTD SVG 1.1//EN" "http://www.w3.org/Graphics/SVG/1.1/DTD/svg11.dtd">
<svg width="100%" height="100%" viewBox="0 0 2481 2481" version="1.1" xmlns="http://www.w3.org/2000/svg" xmlns:xlink="http://www.w3.org/1999/xlink" xml:space="preserve" xmlns:serif="http://www.serif.com/" style="fill-rule:evenodd;clip-rule:evenodd;stroke-linecap:round;stroke-linejoin:round;stroke-miterlimit:1.5;">
    <g transform="matrix(1,0,0,1,-5857.95,-3199.15)">
        <g id="ICONS" transform="matrix(1,0,0,1,-6378.39,3182.81)">
            <rect x="12236.3" y="16.332" width="2480.34" height="2480.7" style="fill:none;"/>
            <clipPath id="_clip1">
                <rect x="12236.3" y="16.332" width="2480.34" height="2480.7"/>
            </clipPath>
            <g clip-path="url(#_clip1)">
                <g transform="matrix(1.03136,0,0,1.02766,-421.058,-34.576)">
                    <rect x="12239.3" y="16.724" width="2472.76" height="2482.77" style="fill:rgb(23,23,23);"/>
                </g>
                <g id="TELESCOPE" transform="matrix(0.557128,0,0,0.557128,6593.47,1105.8)">
                    <g transform="matrix(-2.04241,-0.334381,-0.0938338,1.7839,14592.1,1015.05)">
                        <path d="M164.124,211.771L139.129,129.257C139.129,129.257 131.234,132.262 124.224,134.93C115.272,138.336 109.195,147.384 108.389,158.509C107.918,165.399 108.481,173.798 111.507,183.225C114.228,191.702 118.015,198.462 121.894,203.728C129.415,213.877 140.964,218.505 151.275,215.503C157.693,213.644 164.124,211.771 164.124,211.771Z" style="fill:url(#_Linear2);"/>
                    </g>
                    <g transform="matrix(-3.62373,-0.593272,-0.166484,3.16506,14720.1,765.118)">
                        <path d="M196.551,202.329L168.313,118.15C168.313,118.15 132.362,131.833 118.741,137.017C115.096,138.403 112.291,141.572 111.009,145.751C108.664,153.559 106.284,167.364 111.507,183.225C116.716,199.042 125.509,208.898 131.644,214.216C135.516,217.499 140.289,218.686 144.583,217.436C159.469,213.127 196.551,202.329 196.551,202.329Z" style="fill:url(#_Linear3);"/>
                    </g>
                    <g transform="matrix(-3.62373,-0.593272,-0.166484,3.16506,14720.1,765.118)">
                        <path d="M120.847,202.113C124.581,207.494 128.469,211.463 131.644,214.216C135.516,217.499 140.289,218.686 144.583,217.436C159.469,213.127 196.551,202.329 196.551,202.329L188.617,178.677L120.847,202.113Z" style="fill:rgb(156,161,164);"/>
                    </g>
                    <g transform="matrix(-5.89667,-0.965395,-0.270909,5.15031,14688.5,301.451)">
                        <path d="M113.152,140.85C113.152,140.85 103.691,144.809 98.464,146.997C96.036,148.013 94.229,150.259 93.514,153.151C91.974,159.382 90.596,171.54 96.213,188.36C101.794,205.07 110.079,214.87 115.168,219.666C117.725,222.057 121.016,222.912 123.914,221.939C128.964,220.246 136.737,217.636 136.737,217.636L113.152,140.85Z" style="fill:url(#_Linear4);"/>
                    </g>
                    <g transform="matrix(-5.89667,-0.965395,-0.270909,5.15031,14688.5,301.451)">
                        <path d="M231.698,94.027C231.698,94.027 134.979,130.836 116.592,137.834C114.542,138.614 112.917,140.315 112.052,142.586C109.575,149.365 105.481,164.927 111.507,183.225C117.651,201.88 128.781,212.243 134.653,216.649C136.932,218.333 139.618,218.89 142.044,218.184C161.942,212.407 259.217,184.08 259.217,184.08L231.698,94.027Z" style="fill:url(#_Linear5);"/>
                    </g>
                    <g transform="matrix(-5.89667,-0.965395,-0.270909,5.15031,14688.5,301.451)">
                        <path d="M123.819,206.082C127.885,211.116 131.863,214.555 134.653,216.649C136.932,218.333 139.618,218.89 142.044,218.184C161.942,212.407 259.217,184.08 259.217,184.08L252.493,162.077L123.819,206.082Z" style="fill:rgb(156,161,164);"/>
                    </g>
                    <g transform="matrix(2.04578,-1.10671e-16,-3.40691e-16,2.04578,7500.94,-158.091)">
                        <path d="M2896.96,433.197L3081.45,522.081" style="fill:none;stroke:white;stroke-width:41.67px;"/>
                    </g>
                    <g transform="matrix(-5.89667,-0.965395,-0.270909,5.15031,14716.5,317.017)">
                        <path d="M300.686,60.191L234.634,85.941C234.634,85.941 221.441,114.376 233.022,145.422C244.973,177.462 263.938,187.131 264.903,187.348C265.869,187.566 332.884,169.381 332.884,169.381L300.686,60.191Z" style="fill:rgb(38,38,38);"/>
                    </g>
                    <g transform="matrix(-5.89667,-0.965395,-0.270909,5.15031,14688.5,301.451)">
                        <path d="M302.382,59.27C302.382,59.27 251.457,79.318 237.911,84.651C235.723,85.512 234.001,87.357 233.099,89.805C230.019,98.612 223.996,121.224 233.022,145.422C242.31,170.322 255.897,182.13 262.177,186.268C263.977,187.454 264.973,188.007 266.718,187.824C276.362,185.378 338.851,168.987 338.851,168.987L302.382,59.27Z" style="fill:url(#_Linear6);"/>
                    </g>
                    <g transform="matrix(-6.4344,-2.96317,-2.62806,5.69913,15184.3,835.487)">
                        <ellipse cx="324.869" cy="124.092" rx="21.046" ry="46.502" style="fill:rgb(209,216,219);"/>
                    </g>
                    <g transform="matrix(-4.71109,-2.16955,-1.92419,4.17275,14545.5,769.05)">
                        <ellipse cx="324.869" cy="124.092" rx="21.046" ry="46.502" style="fill:rgb(32,36,38);"/>
                    </g>
                    <g transform="matrix(1.69989,0.150446,0.0673442,1.50266,10842.8,-1080.89)">
                        <path d="M1178.04,941.448C1178.04,941.448 1136.95,924.681 1097.67,1011.48C1059.92,1094.91 1091.83,1114.7 1093.59,1113.4C1111.89,1099.98 1167.61,1030.64 1178.04,941.448Z" style="fill:white;"/>
                    </g>
                    <g transform="matrix(2.04578,0,0,2.04578,5217.46,-1558.17)">
                        <path d="M3761.47,1094.21C3755.21,1091.24 3747.72,1093.63 3744.33,1099.67C3735.84,1114.12 3718.14,1140.28 3692.33,1160.59C3692.34,1160.58 3838.31,1222.78 3870.16,1236.35C3874.22,1238.08 3878.88,1237.62 3882.52,1235.12C3890.89,1229.22 3906.95,1215.53 3926.04,1187.1C3927.92,1184.32 3928.59,1180.9 3927.91,1177.61C3927.22,1174.32 3925.23,1171.45 3922.39,1169.66C3889.47,1154.04 3794.15,1109.48 3761.47,1094.21Z" style="fill:rgb(45,51,58);"/>
                    </g>
                    <g transform="matrix(1.73161,0,0,8.13619,6480.44,-20927)">
                        <path d="M4022.63,2842.51C4016.79,2842.11 4007.37,2840.95 4007.37,2839.58L4007.37,2765.4L4075.41,2765.4L4075.36,2839.53C4075.2,2841.04 4066,2842.27 4060.41,2842.53L4060.41,2879.04L4022.63,2879.04L4022.63,2842.51Z" style="fill:rgb(155,181,195);"/>
                    </g>
                    <g transform="matrix(4.57766,0,0,4.57766,-64597.9,-11256.2)">
                        <path d="M16996.4,2802.43L16947.9,2901.75C16947.9,2901.75 16946.2,2903.83 16947.9,2910.2C16947.6,2910.9 16901.7,3004.43 16901.7,3004.43L16916.9,3004.43L16960.1,2916.98C16960.1,2916.98 16965.4,2915.25 16966.7,2912.33C16967.3,2910.95 17020.5,2802.45 17020.5,2802.45L16996.4,2802.43Z" style="fill:rgb(158,181,195);"/>
                    </g>
                    <g transform="matrix(2.09503,0,0,2.04578,5019.52,-1558.17)">
                        <path d="M4045.21,1457.62L4045.21,1530.69L3889.56,1530.69C3884.55,1530.69 3880.49,1526.53 3880.49,1521.4L3880.49,1502.81C3880.49,1497.68 3884.55,1493.51 3889.56,1493.51L3989.67,1493.51L3989.67,1457.62L4045.21,1457.62Z" style="fill:rgb(155,181,195);"/>
                    </g>
                    <g transform="matrix(2.09503,0,0,2.04578,5019.52,-1558.17)">
                        <path d="M3989.67,1448.34L3989.67,1448.29C3969.12,1448.26 3963.62,1448.23 3963.04,1448.23L3971.68,1406.62C3971.68,1399.14 3977.61,1393.06 3984.92,1393.06L4032.1,1393.06L4032.1,1448.34L3989.67,1448.34Z" style="fill:rgb(158,181,195);"/>
                    </g>
                    <g transform="matrix(2.04729,0,0,2.04711,11544.9,-1477.48)">
                        <path d="M811.016,1490.29L865.063,1490.35L845.409,1530.34C845.409,1530.34 842.141,1503.09 807.866,1496.9C808.106,1496.31 811.016,1490.29 811.016,1490.29Z" style="fill:rgb(86,122,142);"/>
                    </g>
                    <g transform="matrix(-6.06772,0,0,6.06772,14657.8,-92.8091)">
                        <path d="M198.704,228.221L209.175,228.221L209.175,213.454C210.802,212.216 212.47,210.329 213.846,208.24C216.212,204.647 215.192,197.469 215.129,196.945C206.095,196.905 203.429,194.985 200.887,192.615C198.345,190.244 196.027,187.771 188.987,187.658C182.111,187.171 177.746,190.099 175.216,192.817C174.973,193.026 174.746,193.231 174.537,193.428C172.355,195.478 171.099,198.429 171.19,202.803C171.306,208.352 173.824,211.753 176.603,213.779C177.421,214.413 178.308,214.928 179.24,215.308C179.427,215.392 179.613,215.472 179.795,215.546L179.885,227.202L179.898,228.182L176.602,228.182C174.069,228.182 172.012,230.23 172.012,232.753L168.85,246.856C169.051,246.856 170.898,246.848 177.945,246.838L177.945,246.84L177.742,246.84L177.594,262.023L177.945,262.027L177.945,262.048L143.403,262.048C141.666,262.048 140.256,263.453 140.256,265.182L140.256,271.451C140.256,273.18 141.666,274.585 143.403,274.585L150.815,274.593L114.156,349.66C114.156,349.66 112.801,351.241 114.197,356.036C113.934,356.561 79.469,426.826 79.469,426.826L90.923,426.824L123.356,361.144C123.356,361.144 127.362,359.837 128.355,357.633C128.81,356.622 167.03,278.668 169.021,274.613L184.468,274.629C184.468,274.629 184.491,288.3 184.532,288.294C184.517,315.663 184.49,374.41 184.541,374.913C184.828,376.825 188.896,377.947 188.896,377.947C188.896,377.947 190.06,378.221 191.906,378.252C191.99,326.131 192.098,300.709 192.184,287.641C195.37,287.488 199.435,287.417 204.175,287.599C204.094,287.401 204.104,274.599 204.104,274.599L198.704,274.606L198.704,263.121L198.704,260.603C199.758,250.873 210.916,250.135 210.916,250.135L210.923,246.788L198.704,246.807L198.704,228.221Z" style="fill:rgb(86,122,142);"/>
                    </g>
                    <g transform="matrix(2.04578,0,0,2.04578,3071.49,-4511.86)">
                        <path d="M5144.2,2732.48C5133.84,2723.42 5112.68,2711.12 5085.23,2728.91C5056.24,2747.69 5067.78,2781.92 5069.74,2785.66C5071.48,2788.99 5075.99,2796.46 5083.53,2799.24C5067.92,2798.58 5053.17,2797.91 5052.97,2797.73C5045.85,2797.35 5036.27,2788.47 5029.25,2777.82C5022.24,2767.16 5025.26,2745.87 5025.45,2744.31C5052.24,2744.2 5060.15,2738.5 5067.69,2731.47C5075.23,2724.44 5082.1,2717.1 5102.98,2716.77C5123.72,2715.3 5136.76,2724.3 5144.2,2732.48Z" style="fill:rgb(54,80,97);"/>
                    </g>
                    <g transform="matrix(2.04578,0,0,2.04578,11545.5,-1475.68)">
                        <path d="M988.067,1315.29L987.799,1352.74L953.098,1352.66L953.098,1316.59C961.188,1317.29 972.38,1318.23 976.391,1318.18C978.414,1318.16 982.895,1317.41 988.067,1315.29Z" style="fill:rgb(54,80,97);"/>
                    </g>
                    <g transform="matrix(2.5021,0.599495,-0.640863,2.67476,5507.62,-8763.39)">
                        <ellipse cx="3937.37" cy="2822.13" rx="25.282" ry="26.635" style="fill:rgb(54,80,97);"/>
                    </g>
                </g>
                <g id="Astro-Software---Methods" serif:id="Astro Software &amp; Methods" transform="matrix(2.43495,0,0,2.42402,11110.4,-55535.9)">
                    <g transform="matrix(0.950403,0,0,0.954688,88.1316,1124.75)">
                        <path d="M493.053,23154.1C496.767,23140.4 501.614,23127 507.549,23114.1L558.06,23122.2C566.793,23106.1 577.618,23091.2 590.254,23077.9L566.951,23032.4C581.612,23018.8 597.796,23007.1 615.175,22997.3L651.284,23033.6C667.826,23025.6 685.342,23020 703.375,23016.6L711.29,22966.1C724.2,22964.6 737.197,22964.1 750.167,22964.5L748.881,22940L771.157,22966.2L770.929,22966.3L778.813,23016.6C796.846,23020 814.361,23025.6 830.904,23033.6L867.012,22997.3C873.731,23001.1 880.271,23005.2 886.614,23009.5L893.235,23006.2L914.84,23032C914.972,23032.1 915.104,23032.2 915.236,23032.4L915.202,23032.4L915.45,23032.7L915.01,23032.8L891.934,23077.9C904.57,23091.2 915.395,23106.1 924.128,23122.2L948.855,23118.2L945.013,23117.2L952.61,23088.2L974.617,23114.1L974.638,23114.1C974.648,23114.1 974.657,23114.2 974.667,23114.2L975.024,23114.6L974.923,23114.7C983.098,23132.7 989.183,23151.5 993.058,23170.8L947.439,23194C949.852,23212.1 949.852,23230.5 947.439,23248.7L963.175,23256.7L971.486,23246L992.585,23271.6L993.058,23271.9C989.138,23291.4 982.957,23310.4 974.638,23328.6L924.128,23320.5C915.395,23336.6 904.57,23351.5 891.934,23364.8L915.236,23410.3C900.575,23423.8 884.392,23435.6 867.012,23445.4L830.904,23409.1C814.361,23417 796.846,23422.7 778.813,23426L770.898,23476.6C751.096,23478.9 731.092,23478.9 711.29,23476.6L711.107,23475.4L689.868,23450.6L705.472,23439.4L703.375,23426C685.342,23422.7 667.826,23417 651.284,23409.1L615.175,23445.4C597.796,23435.6 581.612,23423.8 566.951,23410.3L567.032,23410.2L545.307,23384.4L563.652,23386.2L572.311,23399.8L590.254,23364.8C577.618,23351.5 566.793,23336.6 558.06,23320.5L508.005,23328.5L508.016,23328.7L507.889,23328.5L507.549,23328.6C507.395,23328.2 507.241,23327.9 507.089,23327.6L485.876,23302.3L495.279,23296.3C492.834,23288.2 490.781,23280.1 489.129,23271.9L534.748,23248.7C532.336,23230.5 532.336,23212.1 534.748,23194L489.129,23170.8C489.154,23170.7 489.179,23170.6 489.204,23170.4L467.578,23144.6L493.053,23154.1ZM741.094,23139.3C695.797,23139.3 659.021,23176 659.021,23221.3C659.021,23266.6 695.797,23303.4 741.094,23303.4C786.391,23303.4 823.167,23266.6 823.167,23221.3C823.167,23176 786.391,23139.3 741.094,23139.3Z" style="fill:rgb(86,122,142);"/>
                    </g>
                    <g transform="matrix(0.994452,0,0,0.998935,31.1879,27.9283)">
                        <path d="M887.196,23065.8L908.412,23091.1L882.371,23078.4L887.196,23065.8Z" style="fill:rgb(111,101,132);"/>
                    </g>
                    <g transform="matrix(0.511579,0,0,0.513885,769.048,11179.6)">
                        <path d="M770.898,22966.1L778.347,23019.2C796.158,23022.4 813.457,23028.1 829.795,23035.9L867.012,22997.3C884.392,23007.1 900.575,23018.8 915.236,23032.4L890.072,23079.7C902.552,23092.8 913.243,23107.5 921.868,23123.4L974.638,23114.1C982.957,23132.2 989.138,23151.3 993.058,23170.8L944.892,23194.3C947.275,23212.2 947.275,23230.4 944.892,23248.4L993.058,23271.9C989.138,23291.4 982.957,23310.4 974.638,23328.6L921.868,23319.2C913.243,23335.2 902.552,23349.9 890.072,23363L915.236,23410.3C900.575,23423.8 884.392,23435.6 867.012,23445.4L829.795,23406.8C813.457,23414.6 796.158,23420.2 778.347,23423.5L770.898,23476.6C751.096,23478.9 731.092,23478.9 711.29,23476.6L703.841,23423.5C686.03,23420.2 668.731,23414.6 652.393,23406.8L615.175,23445.4C597.796,23435.6 581.612,23423.8 566.951,23410.3L592.116,23363C579.636,23349.9 568.944,23335.2 560.319,23319.2L507.549,23328.6C499.231,23310.4 493.049,23291.4 489.129,23271.9L537.296,23248.4C534.913,23230.4 534.913,23212.2 537.296,23194.3L489.129,23170.8C493.049,23151.3 499.231,23132.2 507.549,23114.1L560.319,23123.4C568.944,23107.5 579.636,23092.8 592.116,23079.7L566.951,23032.4C581.612,23018.8 597.796,23007.1 615.175,22997.3L652.393,23035.9C668.731,23028.1 686.03,23022.4 703.841,23019.2L711.29,22966.1C731.092,22963.8 751.096,22963.8 770.898,22966.1ZM741.094,23139.3C786.391,23139.3 823.167,23176 823.167,23221.3C823.167,23266.6 786.391,23303.4 741.094,23303.4C695.797,23303.4 659.021,23266.6 659.021,23221.3C659.021,23176 695.797,23139.3 741.094,23139.3Z" style="fill:rgb(86,122,142);"/>
                    </g>
                    <g transform="matrix(0.950403,0,0,0.954688,67.0976,1099.77)">
                        <path d="M770.898,22966.1L778.813,23016.6C796.846,23020 814.361,23025.6 830.904,23033.6L867.012,22997.3C884.392,23007.1 900.575,23018.8 915.236,23032.4L891.934,23077.9C904.57,23091.2 915.395,23106.1 924.128,23122.2L974.638,23114.1C982.957,23132.2 989.138,23151.3 993.058,23170.8L947.439,23194C949.852,23212.1 949.852,23230.5 947.439,23248.7L993.058,23271.9C989.138,23291.4 982.957,23310.4 974.638,23328.6L924.128,23320.5C915.395,23336.6 904.57,23351.5 891.934,23364.8L915.236,23410.3C900.575,23423.8 884.392,23435.6 867.012,23445.4L830.904,23409.1C814.361,23417 796.846,23422.7 778.813,23426L770.898,23476.6C751.096,23478.9 731.092,23478.9 711.29,23476.6L703.375,23426C685.342,23422.7 667.826,23417 651.284,23409.1L615.175,23445.4C597.796,23435.6 581.612,23423.8 566.951,23410.3L590.254,23364.8C577.618,23351.5 566.793,23336.6 558.06,23320.5L507.549,23328.6C499.231,23310.4 493.049,23291.4 489.129,23271.9L534.748,23248.7C532.336,23230.5 532.336,23212.1 534.748,23194L489.129,23170.8C493.049,23151.3 499.231,23132.2 507.549,23114.1L558.06,23122.2C566.793,23106.1 577.618,23091.2 590.254,23077.9L566.951,23032.4C581.612,23018.8 597.796,23007.1 615.175,22997.3L651.284,23033.6C667.826,23025.6 685.342,23020 703.375,23016.6L711.29,22966.1C731.092,22963.8 751.096,22963.8 770.898,22966.1ZM741.094,23139.3C786.391,23139.3 823.167,23176 823.167,23221.3C823.167,23266.6 786.391,23303.4 741.094,23303.4C695.797,23303.4 659.021,23266.6 659.021,23221.3C659.021,23176 695.797,23139.3 741.094,23139.3Z" style="fill:rgb(158,181,195);"/>
                    </g>
                    <g transform="matrix(0.950403,0,0,0.954688,67.0976,1099.77)">
                        <path d="M770.898,22966.1L778.813,23016.6C796.846,23020 814.361,23025.6 830.904,23033.6L867.012,22997.3C884.392,23007.1 900.575,23018.8 915.236,23032.4L891.934,23077.9C904.57,23091.2 915.395,23106.1 924.128,23122.2L974.638,23114.1C982.957,23132.2 989.138,23151.3 993.058,23170.8L947.439,23194C949.852,23212.1 949.852,23230.5 947.439,23248.7L993.058,23271.9C989.138,23291.4 982.957,23310.4 974.638,23328.6L924.128,23320.5C915.395,23336.6 904.57,23351.5 891.934,23364.8L915.236,23410.3C900.575,23423.8 884.392,23435.6 867.012,23445.4L830.904,23409.1C814.361,23417 796.846,23422.7 778.813,23426L770.898,23476.6C751.096,23478.9 731.092,23478.9 711.29,23476.6L703.375,23426C685.342,23422.7 667.826,23417 651.284,23409.1L615.175,23445.4C597.796,23435.6 581.612,23423.8 566.951,23410.3L590.254,23364.8C577.618,23351.5 566.793,23336.6 558.06,23320.5L507.549,23328.6C499.231,23310.4 493.049,23291.4 489.129,23271.9L534.748,23248.7C532.336,23230.5 532.336,23212.1 534.748,23194L489.129,23170.8C493.049,23151.3 499.231,23132.2 507.549,23114.1L558.06,23122.2C566.793,23106.1 577.618,23091.2 590.254,23077.9L566.951,23032.4C581.612,23018.8 597.796,23007.1 615.175,22997.3L651.284,23033.6C667.826,23025.6 685.342,23020 703.375,23016.6L711.29,22966.1C731.092,22963.8 751.096,22963.8 770.898,22966.1ZM763.737,22973.7C758.426,22973.1 750.729,22972.6 741.546,22972.5C727.407,22972.3 716.706,22973.4 712.653,22973.9L711.824,22966.6C711.403,22983.7 711.225,23000.7 710.803,23017.8C710.794,23018.2 710.651,23018.5 710.532,23018.9C709.593,23021.8 707.306,23023 706.907,23023.2C706.568,23023.4 706.214,23023.6 705.851,23023.7C705.035,23024 705.018,23023.9 701.878,23024.5C693.973,23026 675.736,23029.9 654.704,23039.7C654.02,23040.1 654.032,23040.1 653.307,23040.3C650.57,23041.1 648.421,23040 648.046,23039.8C647.728,23039.6 647.421,23039.4 647.132,23039.2C646.507,23038.8 646.369,23038.6 646.316,23038.5C630.61,23018.4 630.776,23018.2 615.07,22998.1L618.04,23003.3C614.534,23005.3 605.227,23010.5 593.823,23018.6C582.403,23026.8 574.477,23033.9 571.488,23036.6L567.71,23032.5C576.912,23046.8 586.25,23061 595.451,23075.2C595.613,23075.5 595.701,23075.8 595.793,23076.1C595.921,23076.5 596.686,23078.8 595.025,23081.2C594.646,23081.7 594.621,23081.7 594.165,23082.2C588.711,23087.9 575.113,23102.5 562.983,23124.4C562.68,23124.9 562.708,23125 562.325,23125.5C562.092,23125.8 560.696,23127.6 558.034,23127.5C557.477,23127.5 557.281,23127.5 557.217,23127.5C532.548,23121.2 532.582,23121.1 507.913,23114.8L511.871,23116.6C510.22,23120.2 505.781,23129.7 501.338,23143C496.773,23156.5 494.493,23167.2 493.629,23171.2L489.823,23170.5C505.407,23177.1 521.029,23183.6 536.613,23190.3C537.09,23190.5 537.561,23191 537.633,23191C538.807,23192.2 538.828,23193.6 538.832,23193.9C538.841,23194.5 538.414,23196.8 537.873,23202C537.118,23209.3 535.675,23226.5 538.301,23247.8C538.361,23248.3 538.394,23248.3 538.378,23248.8C538.37,23249.1 538.319,23250.6 536.849,23251.6C536.569,23251.8 536.414,23251.9 536.374,23251.9L489.823,23272.2L492.376,23271.7C493.162,23275.7 495.245,23286.3 499.525,23299.8C503.808,23313.4 508.197,23323.3 509.85,23327L507.913,23327.9C515.172,23326.5 522.171,23323.9 529.43,23322.4C538.779,23320.6 548.263,23319.5 557.681,23318.1C558.467,23318 559.401,23318.3 559.937,23319C560.675,23320 568.758,23337 585.436,23356.5C589.282,23360.9 591.657,23363.3 591.868,23363.7C592.294,23364.3 592.266,23365.1 591.972,23365.7C583.892,23380.5 575.79,23395.3 567.71,23410.2L568.378,23409.5C571.023,23411.9 578.912,23419.3 590.505,23427.8C602.184,23436.4 611.757,23442 615.382,23444L615.07,23444.6C626.914,23432.5 638.745,23420.5 650.589,23408.4C650.753,23408.3 651.148,23408.1 651.558,23408.2C652.329,23408.5 666.023,23415.7 686.414,23421.4C696.386,23424.2 703.295,23425.3 703.59,23425.4C703.869,23425.5 703.974,23425.8 703.98,23425.9C706.507,23442.7 709.014,23459.5 711.541,23476.3C711.785,23476.3 712.025,23476.2 712.269,23476.2C712.748,23476.2 727.017,23478.3 746.684,23477.9C759.891,23477.7 769.483,23476.5 769.944,23476.5C770.22,23476.5 770.498,23476.5 770.774,23476.5C778.68,23426.2 778.566,23426.2 778.731,23426C778.776,23425.9 779.394,23425.9 782.17,23425.3C805.563,23420.6 822.459,23413.1 830.888,23409.1C830.895,23409.1 830.902,23409.1 830.909,23409.1C831.02,23409.1 830.989,23409.2 867.019,23445.3C869.978,23443.6 876.213,23440.1 884.828,23434.2C902.429,23422.3 913.547,23411.5 914.416,23410.8C914.632,23410.6 914.864,23410.5 915.08,23410.3C891.916,23365.5 891.721,23365.6 891.558,23364.8C891.528,23364.7 891.592,23364.6 891.646,23364.5C895.101,23360.7 909.132,23346.2 922.057,23322.8C923.513,23320.1 923.499,23320 923.703,23319.9C923.902,23319.7 924.152,23319.7 924.248,23319.7C940.924,23322.4 957.598,23325.2 974.275,23327.9L973.886,23327.7C976.141,23322.7 980.207,23313.3 984.182,23300.8C988.577,23287 990.706,23276.1 991.513,23272L992.364,23272.2C977.111,23264.9 961.846,23257.7 946.593,23250.4C946.171,23250.2 945.442,23249.6 945.539,23248.5C945.709,23246.5 948.432,23228.4 946.291,23204.8C945.694,23198.3 945.029,23194.3 945.031,23193.9C945.037,23192.7 945.87,23192.1 946.009,23192C946.2,23191.8 946.3,23191.8 946.328,23191.8L992.364,23170.5L990.095,23170.9C986.413,23153.9 981.001,23136.1 971.54,23115.8L974.426,23114.5C957.869,23118.4 941.332,23122.4 924.775,23126.2C924.251,23126.4 923.617,23126.3 923.517,23126.3C923.271,23126.2 921.862,23126 920.829,23124.7C920.469,23124.3 919.758,23122.8 917.529,23119.1C906.504,23100.6 895.02,23088 888.732,23081.5C888.324,23081.1 888.3,23081.1 887.962,23080.6C886.567,23078.7 887.196,23076.7 887.301,23076.4C887.459,23075.9 887.552,23075.7 887.584,23075.7C900.977,23054 901.084,23054.1 914.477,23032.5L911.207,23036.1C908.198,23033.4 900.21,23026.3 888.731,23018.1C880.168,23012.1 872.785,23007.7 868.128,23005C857.01,23016.3 846.052,23027.8 834.93,23039C834.684,23039.3 834.353,23039.4 834.045,23039.6C833.682,23039.8 831.599,23040.9 828.935,23040.1C828.223,23039.9 828.236,23039.9 827.562,23039.6C801.389,23027.5 778.905,23024.5 777.423,23024.1C777.042,23024 776.657,23024 776.286,23023.8C775.851,23023.7 773.352,23022.8 771.942,23020.1C771.856,23019.9 771.411,23019 771.206,23017.8C768.69,23003.1 766.237,22988.4 763.737,22973.7ZM741.098,23130.9C747.705,23131.3 764.85,23132.6 783.746,23144.3C806.281,23158.3 815.183,23177.7 817.604,23183.1C820.42,23189.4 824.582,23200.5 825.07,23215.7C825.439,23227.2 823.466,23236.9 820.813,23245.1C818.099,23253.4 813.637,23262.7 805.918,23272.2C797.24,23282.9 787.913,23288.8 785.335,23290.5C772.623,23298.7 760.768,23301.3 757.162,23302C744.17,23304.8 732.109,23304.1 721.887,23302C716.678,23300.9 702.523,23297.5 687.784,23286C665.661,23268.8 659.344,23246.4 658.028,23241.7C651.08,23216.8 655.429,23188.5 672.837,23165.8C680.799,23155.4 690.813,23147.1 701.945,23141.2C719.555,23131.9 735.35,23131.1 741.098,23130.9ZM741.094,23139.3C695.797,23139.3 659.021,23176 659.021,23221.3C659.021,23266.6 695.797,23303.4 741.094,23303.4C786.391,23303.4 823.167,23266.6 823.167,23221.3C823.167,23176 786.391,23139.3 741.094,23139.3Z" style="fill:rgb(223,235,237);"/>
                    </g>
                </g>
            </g>
        </g>
    </g>
    <defs>
        <linearGradient id="_Linear2" x1="0" y1="0" x2="1" y2="0" gradientUnits="userSpaceOnUse" gradientTransform="matrix(-24.5512,-75.8176,-63.1326,20.2633,248.063,176.864)"><stop offset="0" style="stop-color:rgb(81,87,89);stop-opacity:1"/><stop offset="1" style="stop-color:rgb(162,165,170);stop-opacity:1"/></linearGradient>
        <linearGradient id="_Linear3" x1="0" y1="0" x2="1" y2="0" gradientUnits="userSpaceOnUse" gradientTransform="matrix(-24.2539,-76.3269,-63.6077,19.8606,164.231,206.866)"><stop offset="0" style="stop-color:rgb(154,160,162);stop-opacity:1"/><stop offset="0.56" style="stop-color:rgb(207,212,213);stop-opacity:1"/><stop offset="1" style="stop-color:rgb(230,234,235);stop-opacity:1"/></linearGradient>
        <linearGradient id="_Linear4" x1="0" y1="0" x2="1" y2="0" gradientUnits="userSpaceOnUse" gradientTransform="matrix(-19.7971,-58.8127,-48.8899,16.5955,119.527,215.187)"><stop offset="0" style="stop-color:rgb(81,87,89);stop-opacity:1"/><stop offset="1" style="stop-color:rgb(162,165,170);stop-opacity:1"/></linearGradient>
        <linearGradient id="_Linear5" x1="0" y1="0" x2="1" y2="0" gradientUnits="userSpaceOnUse" gradientTransform="matrix(-24.2539,-76.3269,-63.6077,19.8606,164.231,206.866)"><stop offset="0" style="stop-color:rgb(154,160,162);stop-opacity:1"/><stop offset="0.56" style="stop-color:rgb(207,212,213);stop-opacity:1"/><stop offset="1" style="stop-color:rgb(230,234,235);stop-opacity:1"/></linearGradient>
        <linearGradient id="_Linear6" x1="0" y1="0" x2="1" y2="0" gradientUnits="userSpaceOnUse" gradientTransform="matrix(-29.4826,-92.5296,-77.1014,24.17,289.286,177.588)"><stop offset="0" style="stop-color:rgb(81,87,89);stop-opacity:1"/><stop offset="1" style="stop-color:rgb(162,165,170);stop-opacity:1"/></linearGradient>
    </defs>
</svg>
