<?xml version="1.0" encoding="UTF-8" standalone="no"?>
<!DOCTYPE svg PUBLIC "-//W3C//DTD SVG 1.1//EN" "http://www.w3.org/Graphics/SVG/1.1/DTD/svg11.dtd">
<svg width="100%" height="100%" viewBox="0 0 2481 2481" version="1.1" xmlns="http://www.w3.org/2000/svg" xmlns:xlink="http://www.w3.org/1999/xlink" xml:space="preserve" xmlns:serif="http://www.serif.com/" style="fill-rule:evenodd;clip-rule:evenodd;stroke-linecap:round;stroke-linejoin:round;stroke-miterlimit:1.5;">
    <g transform="matrix(1,0,0,1,0,-3199.15)">
        <g id="TELESCOPE">
        </g>
        <g id="The-Milky-Way" serif:id="The Milky Way">
        </g>
        <g id="ICONS_small_filesize_vector" transform="matrix(1,0,0,1,-12236.3,3182.81)">
            <rect x="12236.3" y="16.332" width="2480.34" height="2480.7" style="fill:none;"/>
            <clipPath id="_clip1">
                <rect x="12236.3" y="16.332" width="2480.34" height="2480.7"/>
            </clipPath>
            <g clip-path="url(#_clip1)">
                <g transform="matrix(1.03136,0,0,1.02766,-421.058,-34.576)">
                    <rect x="12239.3" y="16.724" width="2472.76" height="2482.77" style="fill:rgb(23,23,23);"/>
                </g>
                <g id="TELESCOPE1" serif:id="TELESCOPE" transform="matrix(0.557128,0,0,0.557128,6593.47,1105.8)">
                    <g transform="matrix(-2.04241,-0.334381,-0.0938338,1.7839,14592.1,1015.05)">
                        <path d="M164.124,211.771L139.129,129.257C139.129,129.257 131.234,132.262 124.224,134.93C115.272,138.336 109.195,147.384 108.389,158.509C107.918,165.399 108.481,173.798 111.507,183.225C114.228,191.702 118.015,198.462 121.894,203.728C129.415,213.877 140.964,218.505 151.275,215.503C157.693,213.644 164.124,211.771 164.124,211.771Z" style="fill:url(#_Linear2);"/>
                    </g>
                    <g transform="matrix(-3.62373,-0.593272,-0.166484,3.16506,14720.1,765.118)">
                        <path d="M196.551,202.329L168.313,118.15C168.313,118.15 132.362,131.833 118.741,137.017C115.096,138.403 112.291,141.572 111.009,145.751C108.664,153.559 106.284,167.364 111.507,183.225C116.716,199.042 125.509,208.898 131.644,214.216C135.516,217.499 140.289,218.686 144.583,217.436C159.469,213.127 196.551,202.329 196.551,202.329Z" style="fill:url(#_Linear3);"/>
                    </g>
                    <g transform="matrix(-3.62373,-0.593272,-0.166484,3.16506,14720.1,765.118)">
                        <path d="M120.847,202.113C124.581,207.494 128.469,211.463 131.644,214.216C135.516,217.499 140.289,218.686 144.583,217.436C159.469,213.127 196.551,202.329 196.551,202.329L188.617,178.677L120.847,202.113Z" style="fill:rgb(156,161,164);"/>
                    </g>
                    <g transform="matrix(-5.89667,-0.965395,-0.270909,5.15031,14688.5,301.451)">
                        <path d="M113.152,140.85C113.152,140.85 103.691,144.809 98.464,146.997C96.036,148.013 94.229,150.259 93.514,153.151C91.974,159.382 90.596,171.54 96.213,188.36C101.794,205.07 110.079,214.87 115.168,219.666C117.725,222.057 121.016,222.912 123.914,221.939C128.964,220.246 136.737,217.636 136.737,217.636L113.152,140.85Z" style="fill:url(#_Linear4);"/>
                    </g>
                    <g transform="matrix(-5.89667,-0.965395,-0.270909,5.15031,14688.5,301.451)">
                        <path d="M231.698,94.027C231.698,94.027 134.979,130.836 116.592,137.834C114.542,138.614 112.917,140.315 112.052,142.586C109.575,149.365 105.481,164.927 111.507,183.225C117.651,201.88 128.781,212.243 134.653,216.649C136.932,218.333 139.618,218.89 142.044,218.184C161.942,212.407 259.217,184.08 259.217,184.08L231.698,94.027Z" style="fill:url(#_Linear5);"/>
                    </g>
                    <g transform="matrix(-5.89667,-0.965395,-0.270909,5.15031,14688.5,301.451)">
                        <path d="M123.819,206.082C127.885,211.116 131.863,214.555 134.653,216.649C136.932,218.333 139.618,218.89 142.044,218.184C161.942,212.407 259.217,184.08 259.217,184.08L252.493,162.077L123.819,206.082Z" style="fill:rgb(156,161,164);"/>
                    </g>
                    <g transform="matrix(2.04578,-1.10671e-16,-3.40691e-16,2.04578,7500.94,-158.091)">
                        <path d="M2896.96,433.197L3081.45,522.081" style="fill:none;stroke:white;stroke-width:41.67px;"/>
                    </g>
                    <g transform="matrix(-5.89667,-0.965395,-0.270909,5.15031,14716.5,317.017)">
                        <path d="M300.686,60.191L234.634,85.941C234.634,85.941 221.441,114.376 233.022,145.422C244.973,177.462 263.938,187.131 264.903,187.348C265.869,187.566 332.884,169.381 332.884,169.381L300.686,60.191Z" style="fill:rgb(38,38,38);"/>
                    </g>
                    <g transform="matrix(-5.89667,-0.965395,-0.270909,5.15031,14688.5,301.451)">
                        <path d="M302.382,59.27C302.382,59.27 251.457,79.318 237.911,84.651C235.723,85.512 234.001,87.357 233.099,89.805C230.019,98.612 223.996,121.224 233.022,145.422C242.31,170.322 255.897,182.13 262.177,186.268C263.977,187.454 264.973,188.007 266.718,187.824C276.362,185.378 338.851,168.987 338.851,168.987L302.382,59.27Z" style="fill:url(#_Linear6);"/>
                    </g>
                    <g transform="matrix(-6.4344,-2.96317,-2.62806,5.69913,15184.3,835.487)">
                        <ellipse cx="324.869" cy="124.092" rx="21.046" ry="46.502" style="fill:rgb(209,216,219);"/>
                    </g>
                    <g transform="matrix(-4.71109,-2.16955,-1.92419,4.17275,14545.5,769.05)">
                        <ellipse cx="324.869" cy="124.092" rx="21.046" ry="46.502" style="fill:rgb(32,36,38);"/>
                    </g>
                    <g transform="matrix(1.69989,0.150446,0.0673442,1.50266,10842.8,-1080.89)">
                        <path d="M1178.04,941.448C1178.04,941.448 1136.95,924.681 1097.67,1011.48C1059.92,1094.91 1091.83,1114.7 1093.59,1113.4C1111.89,1099.98 1167.61,1030.64 1178.04,941.448Z" style="fill:white;"/>
                    </g>
                    <g transform="matrix(2.04578,0,0,2.04578,5217.46,-1558.17)">
                        <path d="M3761.47,1094.21C3755.21,1091.24 3747.72,1093.63 3744.33,1099.67C3735.84,1114.12 3718.14,1140.28 3692.33,1160.59C3692.34,1160.58 3838.31,1222.78 3870.16,1236.35C3874.22,1238.08 3878.88,1237.62 3882.52,1235.12C3890.89,1229.22 3906.95,1215.53 3926.04,1187.1C3927.92,1184.32 3928.59,1180.9 3927.91,1177.61C3927.22,1174.32 3925.23,1171.45 3922.39,1169.66C3889.47,1154.04 3794.15,1109.48 3761.47,1094.21Z" style="fill:rgb(45,51,58);"/>
                    </g>
                    <g transform="matrix(1.73161,0,0,8.13619,6480.44,-20927)">
                        <path d="M4022.63,2842.51C4016.79,2842.11 4007.37,2840.95 4007.37,2839.58L4007.37,2765.4L4075.41,2765.4L4075.36,2839.53C4075.2,2841.04 4066,2842.27 4060.41,2842.53L4060.41,2879.04L4022.63,2879.04L4022.63,2842.51Z" style="fill:rgb(155,181,195);"/>
                    </g>
                    <g transform="matrix(4.57766,0,0,4.57766,-64597.9,-11256.2)">
                        <path d="M16996.4,2802.43L16947.9,2901.75C16947.9,2901.75 16946.2,2903.83 16947.9,2910.2C16947.6,2910.9 16901.7,3004.43 16901.7,3004.43L16916.9,3004.43L16960.1,2916.98C16960.1,2916.98 16965.4,2915.25 16966.7,2912.33C16967.3,2910.95 17020.5,2802.45 17020.5,2802.45L16996.4,2802.43Z" style="fill:rgb(158,181,195);"/>
                    </g>
                    <g transform="matrix(2.09503,0,0,2.04578,5019.52,-1558.17)">
                        <path d="M4045.21,1457.62L4045.21,1530.69L3889.56,1530.69C3884.55,1530.69 3880.49,1526.53 3880.49,1521.4L3880.49,1502.81C3880.49,1497.68 3884.55,1493.51 3889.56,1493.51L3989.67,1493.51L3989.67,1457.62L4045.21,1457.62Z" style="fill:rgb(155,181,195);"/>
                    </g>
                    <g transform="matrix(2.09503,0,0,2.04578,5019.52,-1558.17)">
                        <path d="M3989.67,1448.34L3989.67,1448.29C3969.12,1448.26 3963.62,1448.23 3963.04,1448.23L3971.68,1406.62C3971.68,1399.14 3977.61,1393.06 3984.92,1393.06L4032.1,1393.06L4032.1,1448.34L3989.67,1448.34Z" style="fill:rgb(158,181,195);"/>
                    </g>
                    <g transform="matrix(2.04729,0,0,2.04711,11544.9,-1477.48)">
                        <path d="M811.016,1490.29L865.063,1490.35L845.409,1530.34C845.409,1530.34 842.141,1503.09 807.866,1496.9C808.106,1496.31 811.016,1490.29 811.016,1490.29Z" style="fill:rgb(86,122,142);"/>
                    </g>
                    <g transform="matrix(-6.06772,0,0,6.06772,14657.8,-92.8091)">
                        <path d="M198.704,228.221L209.175,228.221L209.175,213.454C210.802,212.216 212.47,210.329 213.846,208.24C216.212,204.647 215.192,197.469 215.129,196.945C206.095,196.905 203.429,194.985 200.887,192.615C198.345,190.244 196.027,187.771 188.987,187.658C182.111,187.171 177.746,190.099 175.216,192.817C174.973,193.026 174.746,193.231 174.537,193.428C172.355,195.478 171.099,198.429 171.19,202.803C171.306,208.352 173.824,211.753 176.603,213.779C177.421,214.413 178.308,214.928 179.24,215.308C179.427,215.392 179.613,215.472 179.795,215.546L179.885,227.202L179.898,228.182L176.602,228.182C174.069,228.182 172.012,230.23 172.012,232.753L168.85,246.856C169.051,246.856 170.898,246.848 177.945,246.838L177.945,246.84L177.742,246.84L177.594,262.023L177.945,262.027L177.945,262.048L143.403,262.048C141.666,262.048 140.256,263.453 140.256,265.182L140.256,271.451C140.256,273.18 141.666,274.585 143.403,274.585L150.815,274.593L114.156,349.66C114.156,349.66 112.801,351.241 114.197,356.036C113.934,356.561 79.469,426.826 79.469,426.826L90.923,426.824L123.356,361.144C123.356,361.144 127.362,359.837 128.355,357.633C128.81,356.622 167.03,278.668 169.021,274.613L184.468,274.629C184.468,274.629 184.491,288.3 184.532,288.294C184.517,315.663 184.49,374.41 184.541,374.913C184.828,376.825 188.896,377.947 188.896,377.947C188.896,377.947 190.06,378.221 191.906,378.252C191.99,326.131 192.098,300.709 192.184,287.641C195.37,287.488 199.435,287.417 204.175,287.599C204.094,287.401 204.104,274.599 204.104,274.599L198.704,274.606L198.704,263.121L198.704,260.603C199.758,250.873 210.916,250.135 210.916,250.135L210.923,246.788L198.704,246.807L198.704,228.221Z" style="fill:rgb(86,122,142);"/>
                    </g>
                    <g transform="matrix(2.04578,0,0,2.04578,3071.49,-4511.86)">
                        <path d="M5144.2,2732.48C5133.84,2723.42 5112.68,2711.12 5085.23,2728.91C5056.24,2747.69 5067.78,2781.92 5069.74,2785.66C5071.48,2788.99 5075.99,2796.46 5083.53,2799.24C5067.92,2798.58 5053.17,2797.91 5052.97,2797.73C5045.85,2797.35 5036.27,2788.47 5029.25,2777.82C5022.24,2767.16 5025.26,2745.87 5025.45,2744.31C5052.24,2744.2 5060.15,2738.5 5067.69,2731.47C5075.23,2724.44 5082.1,2717.1 5102.98,2716.77C5123.72,2715.3 5136.76,2724.3 5144.2,2732.48Z" style="fill:rgb(54,80,97);"/>
                    </g>
                    <g transform="matrix(2.04578,0,0,2.04578,11545.5,-1475.68)">
                        <path d="M988.067,1315.29L987.799,1352.74L953.098,1352.66L953.098,1316.59C961.188,1317.29 972.38,1318.23 976.391,1318.18C978.414,1318.16 982.895,1317.41 988.067,1315.29Z" style="fill:rgb(54,80,97);"/>
                    </g>
                    <g transform="matrix(2.5021,0.599495,-0.640863,2.67476,5507.62,-8763.39)">
                        <ellipse cx="3937.37" cy="2822.13" rx="25.282" ry="26.635" style="fill:rgb(54,80,97);"/>
                    </g>
                </g>
                <g id="The-Milky-Way1" serif:id="The Milky Way" transform="matrix(2.35695,0,0,2.33921,11320.7,-14997.6)">
                    <g transform="matrix(1,0,0,1,0.188767,0.629586)">
                        <path d="M381.545,7492.86C381.545,7492.86 362.771,7422.37 368.701,7320.19C372.744,7250.52 380.651,6700.38 380.651,6700.38C380.651,6700.38 700.966,6433.51 746.4,6424.45C791.834,6415.38 1334.23,6424.45 1334.23,6424.45C1334.23,6424.45 836.211,6894.77 791.648,7030.59C747.085,7166.41 631.73,7326.08 579.751,7388.86C527.771,7451.65 381.545,7492.86 381.545,7492.86Z" style="fill:rgb(13,10,9);"/>
                    </g>
                    <g transform="matrix(0.837637,0,0,0.852072,60.0492,986.437)">
                        <path d="M390.31,7451.55C390.31,7451.55 380.302,7424.12 380.074,7356.45C379.839,7286.67 376.499,6783.38 376.499,6783.38C376.499,6783.38 651.32,6487.36 934.743,6375.91C977.787,6358.99 1447.32,6373.77 1447.32,6373.77C1447.32,6373.77 843.706,6701.8 777.877,6953.48C741.725,7091.7 667.031,7319.76 579.751,7388.86C515.62,7439.64 390.31,7451.55 390.31,7451.55Z" style="fill:url(#_Radial7);"/>
                    </g>
                    <g transform="matrix(0.424277,0,0,0.427494,388.493,5050.73)">
                        <path d="M-22.31,5223.25C-22.31,5223.25 369.171,5197 436.433,5039.34C503.694,4881.69 624.949,4261.05 698.339,4162.93C771.729,4064.81 865.704,4032.19 928.32,3971.72C990.936,3911.24 970.381,3678.35 1146.55,3577.61C1322.71,3476.88 1487.72,3450.68 1581.43,3359.34C1675.15,3267.99 1925.62,3156 1925.62,3156L1358.6,3161.56C1358.6,3161.56 971.751,3310.62 905.241,3383.72C838.731,3456.81 704.318,3613.83 622.692,3653.58C541.067,3693.32 285.683,3801.31 186.169,3948.73C86.656,4096.16 -28.923,4110.4 -28.923,4110.4L-22.31,5223.25Z" style="fill:url(#_Radial8);"/>
                    </g>
                    <g transform="matrix(0.424277,0,0,0.427494,388.493,5050.73)">
                        <path d="M-26.714,5161.96C-26.714,5161.96 44.846,5059.51 222.664,4956C303.596,4908.89 414.678,4764.08 471.597,4642.66C509.349,4562.12 650.817,4145.62 737.126,4080.73C823.434,4015.83 941.188,3749.89 1050.36,3609.01C1159.54,3468.12 1650.01,3252.55 1743.47,3176.79C1836.93,3101.03 1371,3167.51 1371,3167.51C1371,3167.51 966.294,3277.61 939.521,3391.6C912.749,3505.59 689.549,3637.12 622.797,3698.63C556.046,3760.14 217.76,3917.63 60.31,4152.65C5.34,4234.7 -26.676,4135.04 -31.537,4239.95C-36.322,4343.23 -26.714,5161.96 -26.714,5161.96Z" style="fill:rgb(111,101,132);"/>
                    </g>
                    <g transform="matrix(0.424277,0,0,0.427494,388.493,5050.73)">
                        <path d="M-11.169,4788.63C-11.169,4788.63 133.999,4472.57 278.392,4453.24C422.786,4433.92 509.914,4276.7 585.601,4101.85C661.288,3927.01 747.268,3839.98 843.807,3727.68C940.347,3615.38 1049.46,3482.02 1132.82,3399.81C1166.37,3366.72 1382.73,3166.04 1382.73,3166.04C1382.73,3166.04 1088.17,3235.6 1055.25,3327.48C1022.34,3419.36 993.727,3452.02 906.252,3555.56C818.778,3659.1 747.9,3765.47 647.099,3816.51C546.298,3867.55 533.203,4054.89 376.104,4092.92C219.006,4130.95 159.756,4116.13 62.297,4253.4C34.371,4287.11 -30.575,4258.94 -30.575,4258.94L-11.169,4788.63Z" style="fill:url(#_Linear9);"/>
                    </g>
                </g>
                <g transform="matrix(1,0,0,1,12236.3,-3182.81)">
                    <circle cx="424.734" cy="4085.92" r="38.292" style="fill:white;"/>
                </g>
                <g transform="matrix(1,0,0,1,12375.7,-3228.32)">
                    <circle cx="424.734" cy="4085.92" r="38.292" style="fill:white;"/>
                </g>
                <g transform="matrix(1,0,0,1,12355.5,-3301.05)">
                    <circle cx="424.734" cy="4085.92" r="38.292" style="fill:white;"/>
                </g>
                <g transform="matrix(0.369994,0,0,0.369994,12759.6,-795.696)">
                    <circle cx="424.734" cy="4085.92" r="38.292" style="fill:white;"/>
                </g>
                <g transform="matrix(0.369994,0,0,0.369994,12649.9,-761.695)">
                    <circle cx="424.734" cy="4085.92" r="38.292" style="fill:white;"/>
                </g>
                <g transform="matrix(0.591905,0,0,0.591905,12615.6,-1670.27)">
                    <circle cx="424.734" cy="4085.92" r="38.292" style="fill:white;"/>
                </g>
                <g transform="matrix(0.369994,0,0,0.369994,12707.5,-575.82)">
                    <circle cx="424.734" cy="4085.92" r="38.292" style="fill:white;"/>
                </g>
                <g transform="matrix(0.369994,0,0,0.369994,12725.7,-707.674)">
                    <circle cx="424.734" cy="4085.92" r="38.292" style="fill:white;"/>
                </g>
                <g transform="matrix(0.369994,0,0,0.369994,12924.2,-934.05)">
                    <circle cx="424.734" cy="4085.92" r="38.292" style="fill:white;"/>
                </g>
                <g transform="matrix(0.369994,0,0,0.369994,12713,-662.057)">
                    <circle cx="424.734" cy="4085.92" r="38.292" style="fill:white;"/>
                </g>
                <g transform="matrix(0.369994,0,0,0.369994,12661.4,-822.805)">
                    <circle cx="424.734" cy="4085.92" r="38.292" style="fill:white;"/>
                </g>
                <g transform="matrix(0.369994,0,0,0.369994,12578.9,-800.234)">
                    <circle cx="424.734" cy="4085.92" r="38.292" style="fill:white;"/>
                </g>
                <g transform="matrix(0.369994,0,0,0.369994,12544.9,-759.948)">
                    <circle cx="424.734" cy="4085.92" r="38.292" style="fill:white;"/>
                </g>
                <g transform="matrix(0.369994,0,0,0.369994,12733.4,-895.869)">
                    <circle cx="424.734" cy="4085.92" r="38.292" style="fill:white;"/>
                </g>
                <g transform="matrix(0.369994,0,0,0.369994,12968.1,-892.563)">
                    <circle cx="424.734" cy="4085.92" r="38.292" style="fill:white;"/>
                </g>
                <g transform="matrix(0.369994,0,0,0.369994,12756.9,-620.57)">
                    <circle cx="424.734" cy="4085.92" r="38.292" style="fill:white;"/>
                </g>
                <g transform="matrix(0.369994,0,0,0.369994,12843.1,-599.371)">
                    <circle cx="424.734" cy="4085.92" r="38.292" style="fill:white;"/>
                </g>
                <g transform="matrix(0.369994,0,0,0.369994,12539.9,-628.643)">
                    <circle cx="424.734" cy="4085.92" r="38.292" style="fill:white;"/>
                </g>
                <g transform="matrix(0.369994,0,0,0.369994,12587.9,-590.757)">
                    <circle cx="424.734" cy="4085.92" r="38.292" style="fill:white;"/>
                </g>
                <g transform="matrix(0.369994,0,0,0.369994,12515.3,-529.313)">
                    <circle cx="424.734" cy="4085.92" r="38.292" style="fill:white;"/>
                </g>
                <g transform="matrix(0.369994,0,0,0.369994,12304.4,-516.617)">
                    <circle cx="424.734" cy="4085.92" r="38.292" style="fill:white;"/>
                </g>
                <g transform="matrix(0.369994,0,0,0.369994,12437.7,-589.093)">
                    <circle cx="424.734" cy="4085.92" r="38.292" style="fill:white;"/>
                </g>
                <g transform="matrix(1,0,0,1,12412.2,-3106.24)">
                    <circle cx="424.734" cy="4085.92" r="38.292" style="fill:white;"/>
                </g>
                <g transform="matrix(1,0,0,1,12446.4,-3049.58)">
                    <circle cx="424.734" cy="4085.92" r="38.292" style="fill:white;"/>
                </g>
                <g transform="matrix(1,0,0,1,12365.1,-3096.33)">
                    <circle cx="424.734" cy="4085.92" r="38.292" style="fill:white;"/>
                </g>
                <g transform="matrix(1,0,0,1,12298.2,-3087.58)">
                    <circle cx="424.734" cy="4085.92" r="38.292" style="fill:white;"/>
                </g>
                <g transform="matrix(0.666402,0,0,0.666402,12507.7,-1645.26)">
                    <circle cx="424.734" cy="4085.92" r="38.292" style="fill:white;"/>
                </g>
                <g transform="matrix(0.666402,0,0,0.666402,12443.8,-1768.61)">
                    <circle cx="424.734" cy="4085.92" r="38.292" style="fill:white;"/>
                </g>
                <g transform="matrix(0.666402,0,0,0.666402,12329.8,-1843.29)">
                    <circle cx="424.734" cy="4085.92" r="38.292" style="fill:white;"/>
                </g>
                <g transform="matrix(0.666402,0,0,0.666402,12392.9,-1866.59)">
                    <circle cx="424.734" cy="4085.92" r="38.292" style="fill:white;"/>
                </g>
                <g transform="matrix(0.666402,0,0,0.666402,12394.9,-1799.22)">
                    <circle cx="424.734" cy="4085.92" r="38.292" style="fill:white;"/>
                </g>
                <g transform="matrix(0.666402,0,0,0.666402,12336.4,-1924.48)">
                    <circle cx="424.734" cy="4085.92" r="38.292" style="fill:white;"/>
                </g>
                <g transform="matrix(0.666402,0,0,0.666402,12263,-1839.82)">
                    <circle cx="424.734" cy="4085.92" r="38.292" style="fill:white;"/>
                </g>
                <g transform="matrix(0.369994,0,0,0.369994,12423.8,-569.732)">
                    <circle cx="424.734" cy="4085.92" r="38.292" style="fill:white;"/>
                </g>
                <g transform="matrix(0.369994,0,0,0.369994,12455.4,-494.992)">
                    <circle cx="424.734" cy="4085.92" r="38.292" style="fill:white;"/>
                </g>
                <g transform="matrix(0.369994,0,0,0.369994,12354.5,-381.146)">
                    <circle cx="424.734" cy="4085.92" r="38.292" style="fill:white;"/>
                </g>
                <g transform="matrix(0.369994,0,0,0.369994,12375.5,-250.109)">
                    <circle cx="424.734" cy="4085.92" r="38.292" style="fill:white;"/>
                </g>
                <g transform="matrix(0.369994,0,0,0.369994,12307.9,-52.2996)">
                    <circle cx="424.734" cy="4085.92" r="38.292" style="fill:white;"/>
                </g>
                <g transform="matrix(0.369994,0,0,0.369994,12221.6,-153.195)">
                    <circle cx="424.734" cy="4085.92" r="38.292" style="fill:white;"/>
                </g>
                <g transform="matrix(0.637555,0,0,0.637555,12235.2,-1398.38)">
                    <circle cx="424.734" cy="4085.92" r="38.292" style="fill:white;"/>
                </g>
                <g transform="matrix(0.637555,0,0,0.637555,12127.5,-1123.5)">
                    <circle cx="424.734" cy="4085.92" r="38.292" style="fill:white;"/>
                </g>
                <g transform="matrix(0.637555,0,0,0.637555,12068.3,-1585.87)">
                    <circle cx="424.734" cy="4085.92" r="38.292" style="fill:white;"/>
                </g>
                <g transform="matrix(0.637555,0,0,0.637555,12192.3,-1523.42)">
                    <circle cx="424.734" cy="4085.92" r="38.292" style="fill:white;"/>
                </g>
                <g transform="matrix(0.369994,0,0,0.369994,12311.9,-264.602)">
                    <circle cx="424.734" cy="4085.92" r="38.292" style="fill:white;"/>
                </g>
                <g transform="matrix(0.369994,0,0,0.369994,12156.8,3.21733)">
                    <circle cx="424.734" cy="4085.92" r="38.292" style="fill:white;"/>
                </g>
                <g transform="matrix(0.369994,0,0,0.369994,12430.5,-297.48)">
                    <circle cx="424.734" cy="4085.92" r="38.292" style="fill:white;"/>
                </g>
                <g transform="matrix(0.369994,0,0,0.369994,12252.1,-293.464)">
                    <circle cx="424.734" cy="4085.92" r="38.292" style="fill:white;"/>
                </g>
                <g transform="matrix(0.369994,0,0,0.369994,12097,-25.6447)">
                    <circle cx="424.734" cy="4085.92" r="38.292" style="fill:white;"/>
                </g>
                <g transform="matrix(0.369994,0,0,0.369994,12382.3,-365.758)">
                    <circle cx="424.734" cy="4085.92" r="38.292" style="fill:white;"/>
                </g>
                <g transform="matrix(0.369994,0,0,0.369994,12227.2,-97.9383)">
                    <circle cx="424.734" cy="4085.92" r="38.292" style="fill:white;"/>
                </g>
                <g transform="matrix(0.369994,0,0,0.369994,12234.4,54.6983)">
                    <circle cx="424.734" cy="4085.92" r="38.292" style="fill:white;"/>
                </g>
                <g transform="matrix(0.369994,0,0,0.369994,12452.7,-103.844)">
                    <circle cx="424.734" cy="4085.92" r="38.292" style="fill:white;"/>
                </g>
                <g transform="matrix(0.369994,0,0,0.369994,12517.8,-396.404)">
                    <circle cx="424.734" cy="4085.92" r="38.292" style="fill:white;"/>
                </g>
                <g transform="matrix(0.369994,0,0,0.369994,12128.9,-379.513)">
                    <circle cx="424.734" cy="4085.92" r="38.292" style="fill:white;"/>
                </g>
                <g transform="matrix(0.369994,0,0,0.369994,12102.6,-207.926)">
                    <circle cx="424.734" cy="4085.92" r="38.292" style="fill:white;"/>
                </g>
                <g transform="matrix(0.369994,0,0,0.369994,12841.8,-937.094)">
                    <circle cx="424.734" cy="4085.92" r="38.292" style="fill:white;"/>
                </g>
                <g transform="matrix(0.369994,0,0,0.369994,12955.9,-960.481)">
                    <circle cx="424.734" cy="4085.92" r="38.292" style="fill:white;"/>
                </g>
                <g transform="matrix(0.369994,0,0,0.369994,12744.7,-688.489)">
                    <circle cx="424.734" cy="4085.92" r="38.292" style="fill:white;"/>
                </g>
                <g transform="matrix(0.369994,0,0,0.369994,12901.2,-1036.29)">
                    <circle cx="424.734" cy="4085.92" r="38.292" style="fill:white;"/>
                </g>
                <g transform="matrix(0.369994,0,0,0.369994,13153,-1240.3)">
                    <circle cx="424.734" cy="4085.92" r="38.292" style="fill:white;"/>
                </g>
                <g transform="matrix(0.369994,0,0,0.369994,13079.4,-1247.79)">
                    <circle cx="424.734" cy="4085.92" r="38.292" style="fill:white;"/>
                </g>
                <g transform="matrix(0.369994,0,0,0.369994,13372.2,-1398.99)">
                    <circle cx="424.734" cy="4085.92" r="38.292" style="fill:white;"/>
                </g>
                <g transform="matrix(0.369994,0,0,0.369994,13386.3,-1439.2)">
                    <circle cx="424.734" cy="4085.92" r="38.292" style="fill:white;"/>
                </g>
                <g transform="matrix(1,0,0,1,12298.2,-3288.36)">
                    <circle cx="424.734" cy="4085.92" r="38.292" style="fill:white;"/>
                </g>
                <g transform="matrix(1,0,0,1,12532,-3499.5)">
                    <circle cx="424.734" cy="4085.92" r="38.292" style="fill:white;"/>
                </g>
                <g transform="matrix(1,0,0,1,12709.5,-3625.92)">
                    <circle cx="424.734" cy="4085.92" r="38.292" style="fill:white;"/>
                </g>
                <g transform="matrix(1,0,0,1,12709.5,-3579.91)">
                    <circle cx="424.734" cy="4085.92" r="38.292" style="fill:white;"/>
                </g>
                <g transform="matrix(1,0,0,1,12563.6,-3134.82)">
                    <circle cx="424.734" cy="4085.92" r="38.292" style="fill:white;"/>
                </g>
                <g transform="matrix(1,0,0,1,12230.7,-3008.1)">
                    <circle cx="424.734" cy="4085.92" r="38.292" style="fill:white;"/>
                </g>
                <g transform="matrix(1,0,0,1,12060.2,-2796.23)">
                    <circle cx="424.734" cy="4085.92" r="38.292" style="fill:white;"/>
                </g>
                <g transform="matrix(1,0,0,1,11905.1,-2528.41)">
                    <circle cx="424.734" cy="4085.92" r="38.292" style="fill:white;"/>
                </g>
                <g transform="matrix(1,0,0,1,12100.9,-3152.84)">
                    <circle cx="424.734" cy="4085.92" r="38.292" style="fill:white;"/>
                </g>
                <g transform="matrix(1,0,0,1,11916.3,-2881.93)">
                    <circle cx="424.734" cy="4085.92" r="38.292" style="fill:white;"/>
                </g>
                <g transform="matrix(1,0,0,1,12949.6,-3876.17)">
                    <circle cx="424.734" cy="4085.92" r="38.292" style="fill:white;"/>
                </g>
            </g>
        </g>
        <g id="TELESCOPE2" serif:id="TELESCOPE">
        </g>
        <g id="The-Milky-Way2" serif:id="The Milky Way">
        </g>
        <g id="TELESCOPE3" serif:id="TELESCOPE">
        </g>
        <g id="The-Milky-Way3" serif:id="The Milky Way">
        </g>
    </g>
    <defs>
        <linearGradient id="_Linear2" x1="0" y1="0" x2="1" y2="0" gradientUnits="userSpaceOnUse" gradientTransform="matrix(-24.5512,-75.8176,-63.1326,20.2633,248.063,176.864)"><stop offset="0" style="stop-color:rgb(81,87,89);stop-opacity:1"/><stop offset="1" style="stop-color:rgb(162,165,170);stop-opacity:1"/></linearGradient>
        <linearGradient id="_Linear3" x1="0" y1="0" x2="1" y2="0" gradientUnits="userSpaceOnUse" gradientTransform="matrix(-24.2539,-76.3269,-63.6077,19.8606,164.231,206.866)"><stop offset="0" style="stop-color:rgb(154,160,162);stop-opacity:1"/><stop offset="0.56" style="stop-color:rgb(207,212,213);stop-opacity:1"/><stop offset="1" style="stop-color:rgb(230,234,235);stop-opacity:1"/></linearGradient>
        <linearGradient id="_Linear4" x1="0" y1="0" x2="1" y2="0" gradientUnits="userSpaceOnUse" gradientTransform="matrix(-19.7971,-58.8127,-48.8899,16.5955,119.527,215.187)"><stop offset="0" style="stop-color:rgb(81,87,89);stop-opacity:1"/><stop offset="1" style="stop-color:rgb(162,165,170);stop-opacity:1"/></linearGradient>
        <linearGradient id="_Linear5" x1="0" y1="0" x2="1" y2="0" gradientUnits="userSpaceOnUse" gradientTransform="matrix(-24.2539,-76.3269,-63.6077,19.8606,164.231,206.866)"><stop offset="0" style="stop-color:rgb(154,160,162);stop-opacity:1"/><stop offset="0.56" style="stop-color:rgb(207,212,213);stop-opacity:1"/><stop offset="1" style="stop-color:rgb(230,234,235);stop-opacity:1"/></linearGradient>
        <linearGradient id="_Linear6" x1="0" y1="0" x2="1" y2="0" gradientUnits="userSpaceOnUse" gradientTransform="matrix(-29.4826,-92.5296,-77.1014,24.17,289.286,177.588)"><stop offset="0" style="stop-color:rgb(81,87,89);stop-opacity:1"/><stop offset="1" style="stop-color:rgb(162,165,170);stop-opacity:1"/></linearGradient>
        <radialGradient id="_Radial7" cx="0" cy="0" r="1" gradientUnits="userSpaceOnUse" gradientTransform="matrix(305.636,217.758,-996.816,1372.67,781.949,6634.2)"><stop offset="0" style="stop-color:rgb(40,36,48);stop-opacity:1"/><stop offset="0.62" style="stop-color:rgb(40,36,48);stop-opacity:0.835294"/><stop offset="0.82" style="stop-color:rgb(40,36,48);stop-opacity:0.431373"/><stop offset="1" style="stop-color:rgb(40,36,48);stop-opacity:0"/></radialGradient>
        <radialGradient id="_Radial8" cx="0" cy="0" r="1" gradientUnits="userSpaceOnUse" gradientTransform="matrix(389.522,368.705,-1460.9,1543.38,518.391,4163.74)"><stop offset="0" style="stop-color:rgb(70,62,84);stop-opacity:1"/><stop offset="0.65" style="stop-color:rgb(70,62,84);stop-opacity:0.858824"/><stop offset="1" style="stop-color:rgb(70,62,84);stop-opacity:0"/></radialGradient>
        <linearGradient id="_Linear9" x1="0" y1="0" x2="1" y2="0" gradientUnits="userSpaceOnUse" gradientTransform="matrix(-130.19,-144.011,144.011,-130.19,561.951,4012.74)"><stop offset="0" style="stop-color:rgb(176,168,196);stop-opacity:1"/><stop offset="0.58" style="stop-color:rgb(176,168,196);stop-opacity:0.811765"/><stop offset="0.8" style="stop-color:rgb(176,168,196);stop-opacity:0.403922"/><stop offset="1" style="stop-color:rgb(176,168,196);stop-opacity:0"/></linearGradient>
    </defs>
</svg>
