<?xml version="1.0" encoding="UTF-8" standalone="no"?>
<!DOCTYPE svg PUBLIC "-//W3C//DTD SVG 1.1//EN" "http://www.w3.org/Graphics/SVG/1.1/DTD/svg11.dtd">
<svg width="100%" height="100%" viewBox="0 0 2481 2481" version="1.1" xmlns="http://www.w3.org/2000/svg" xmlns:xlink="http://www.w3.org/1999/xlink" xml:space="preserve" xmlns:serif="http://www.serif.com/" style="fill-rule:evenodd;clip-rule:evenodd;stroke-linecap:round;stroke-linejoin:round;stroke-miterlimit:1.5;">
    <g transform="matrix(1,0,0,1,-3388.9,-3199.15)">
        <g id="specials" transform="matrix(1,0,0,1,-8847.44,3182.81)">
            <rect x="12236.3" y="16.332" width="2480.34" height="2480.7" style="fill:none;"/>
            <clipPath id="_clip1">
                <rect x="12236.3" y="16.332" width="2480.34" height="2480.7"/>
            </clipPath>
            <g clip-path="url(#_clip1)">
                <g transform="matrix(1.03136,0,0,1.02766,-421.058,-34.576)">
                    <rect x="12239.3" y="16.724" width="2472.76" height="2482.77" style="fill:rgb(23,23,23);"/>
                </g>
                <g transform="matrix(0.763564,0,0,0.763564,3184.79,291.897)">
                    <circle cx="13478.7" cy="1263.42" r="1240.16" style="fill:rgb(37,37,37);"/>
                </g>
                <g id="Moderation">
                    <g transform="matrix(0.646716,0,0,0.646716,10197.1,-1901.92)">
                        <path d="M5115.36,3996.94C5130.68,3966.3 5162.01,3946.94 5196.27,3946.94C5230.53,3946.94 5261.85,3966.3 5277.18,3996.94C5448.2,4339 5845.53,5133.65 6026.21,5495.02C6046.01,5534.6 6043.89,5581.62 6020.62,5619.27C5997.35,5656.92 5956.24,5679.84 5911.98,5679.84C5535.73,5679.84 4747.59,5679.84 4420.77,5679.84C4389.32,5679.84 4360.1,5663.55 4343.56,5636.8C4327.02,5610.04 4325.52,5576.62 4339.59,5548.49C4504.43,5218.8 4935.31,4357.05 5115.36,3996.94Z" style="fill:rgb(218,124,34);"/>
                    </g>
                    <g transform="matrix(1,0,0,1,8827.44,-3182.81)">
                        <path d="M4766.25,3845.39L4659.7,3774.45L4664.83,3882L4760.96,3881.64L4766.25,3845.39Z" style="fill:rgb(218,124,34);"/>
                    </g>
                    <g transform="matrix(1,0,0,1,8827.44,-3182.81)">
                        <path d="M4095.07,4876.78L4197.42,4944.88L4095.07,4876.78Z" style="fill:none;"/>
                    </g>
                    <g transform="matrix(1,0,0,1,8827.44,-3182.81)">
                        <path d="M4215.12,4849.65L4197.42,4944.88L4094.41,4876.03L4215.12,4849.65Z" style="fill:rgb(218,124,34);"/>
                    </g>
                    <g transform="matrix(0.646716,0,0,0.646716,10097.1,-1968.92)">
                        <path d="M5115.36,3996.94C5130.68,3966.3 5162.01,3946.94 5196.27,3946.94C5230.53,3946.94 5261.85,3966.3 5277.18,3996.94C5457.28,4357.15 5888.33,5219.25 6053.08,5548.75C6067.12,5576.83 6065.62,5610.18 6049.11,5636.88C6032.61,5663.59 6003.45,5679.84 5972.06,5679.84L4420.77,5679.84C4389.32,5679.84 4360.1,5663.55 4343.56,5636.8C4327.02,5610.04 4325.52,5576.62 4339.59,5548.49C4504.43,5218.8 4935.31,4357.05 5115.36,3996.94Z" style="fill:rgb(254,206,2);"/>
                    </g>
                    <g transform="matrix(0.943755,0,0,0.943755,9300.26,-2978.88)">
                        <g transform="matrix(1019.45,0,0,1019.45,4268.87,4837.41)">
                            <path d="M0.087,-0.212L0.074,-0.7L0.196,-0.7L0.183,-0.212L0.087,-0.212ZM0.137,0.01C0.116,0.01 0.098,0.002 0.084,-0.012C0.069,-0.027 0.062,-0.044 0.062,-0.065C0.062,-0.086 0.069,-0.103 0.084,-0.118C0.098,-0.132 0.116,-0.139 0.137,-0.139C0.158,-0.139 0.175,-0.132 0.19,-0.118C0.204,-0.103 0.211,-0.086 0.211,-0.065C0.211,-0.044 0.204,-0.027 0.19,-0.012C0.175,0.002 0.158,0.01 0.137,0.01Z" style="fill:rgb(39,37,36);fill-rule:nonzero;"/>
                        </g>
                        <g transform="matrix(1019.45,0,0,1019.45,4547.52,4837.41)">
                        </g>
                    </g>
                    <g transform="matrix(1,0,0,1,8810.73,-3188.18)">
                        <path d="M4626.61,3832.86L4132.86,4824.96" style="fill:none;stroke:rgb(253,234,155);stroke-width:83.33px;"/>
                    </g>
                </g>
            </g>
        </g>
    </g>
</svg>
