<?xml version="1.0" encoding="UTF-8" standalone="no"?>
<!DOCTYPE svg PUBLIC "-//W3C//DTD SVG 1.1//EN" "http://www.w3.org/Graphics/SVG/1.1/DTD/svg11.dtd">
<svg width="100%" height="100%" viewBox="0 0 2481 2481" version="1.1" xmlns="http://www.w3.org/2000/svg" xmlns:xlink="http://www.w3.org/1999/xlink" xml:space="preserve" xmlns:serif="http://www.serif.com/" style="fill-rule:evenodd;clip-rule:evenodd;stroke-linecap:round;stroke-linejoin:round;stroke-miterlimit:1.5;">
    <g transform="matrix(1,0,0,1,-5857.95,-3199.15)">
        <g id="ICONS" transform="matrix(1,0,0,1,-6378.39,3182.81)">
            <rect x="12236.3" y="16.332" width="2480.34" height="2480.7" style="fill:none;"/>
            <clipPath id="_clip1">
                <rect x="12236.3" y="16.332" width="2480.34" height="2480.7"/>
            </clipPath>
            <g clip-path="url(#_clip1)">
                <g transform="matrix(1.03136,0,0,1.02766,-421.058,-34.576)">
                    <rect x="12239.3" y="16.724" width="2472.76" height="2482.77" style="fill:rgb(23,23,23);"/>
                </g>
                <g id="TELESCOPE" transform="matrix(0.557128,0,0,0.557128,6593.47,1105.8)">
                    <g transform="matrix(-2.04241,-0.334381,-0.0938338,1.7839,14592.1,1015.05)">
                        <path d="M164.124,211.771L139.129,129.257C139.129,129.257 131.234,132.262 124.224,134.93C115.272,138.336 109.195,147.384 108.389,158.509C107.918,165.399 108.481,173.798 111.507,183.225C114.228,191.702 118.015,198.462 121.894,203.728C129.415,213.877 140.964,218.505 151.275,215.503C157.693,213.644 164.124,211.771 164.124,211.771Z" style="fill:url(#_Linear2);"/>
                    </g>
                    <g transform="matrix(-3.62373,-0.593272,-0.166484,3.16506,14720.1,765.118)">
                        <path d="M196.551,202.329L168.313,118.15C168.313,118.15 132.362,131.833 118.741,137.017C115.096,138.403 112.291,141.572 111.009,145.751C108.664,153.559 106.284,167.364 111.507,183.225C116.716,199.042 125.509,208.898 131.644,214.216C135.516,217.499 140.289,218.686 144.583,217.436C159.469,213.127 196.551,202.329 196.551,202.329Z" style="fill:url(#_Linear3);"/>
                    </g>
                    <g transform="matrix(-3.62373,-0.593272,-0.166484,3.16506,14720.1,765.118)">
                        <path d="M120.847,202.113C124.581,207.494 128.469,211.463 131.644,214.216C135.516,217.499 140.289,218.686 144.583,217.436C159.469,213.127 196.551,202.329 196.551,202.329L188.617,178.677L120.847,202.113Z" style="fill:rgb(156,161,164);"/>
                    </g>
                    <g transform="matrix(-5.89667,-0.965395,-0.270909,5.15031,14688.5,301.451)">
                        <path d="M113.152,140.85C113.152,140.85 103.691,144.809 98.464,146.997C96.036,148.013 94.229,150.259 93.514,153.151C91.974,159.382 90.596,171.54 96.213,188.36C101.794,205.07 110.079,214.87 115.168,219.666C117.725,222.057 121.016,222.912 123.914,221.939C128.964,220.246 136.737,217.636 136.737,217.636L113.152,140.85Z" style="fill:url(#_Linear4);"/>
                    </g>
                    <g transform="matrix(-5.89667,-0.965395,-0.270909,5.15031,14688.5,301.451)">
                        <path d="M231.698,94.027C231.698,94.027 134.979,130.836 116.592,137.834C114.542,138.614 112.917,140.315 112.052,142.586C109.575,149.365 105.481,164.927 111.507,183.225C117.651,201.88 128.781,212.243 134.653,216.649C136.932,218.333 139.618,218.89 142.044,218.184C161.942,212.407 259.217,184.08 259.217,184.08L231.698,94.027Z" style="fill:url(#_Linear5);"/>
                    </g>
                    <g transform="matrix(-5.89667,-0.965395,-0.270909,5.15031,14688.5,301.451)">
                        <path d="M123.819,206.082C127.885,211.116 131.863,214.555 134.653,216.649C136.932,218.333 139.618,218.89 142.044,218.184C161.942,212.407 259.217,184.08 259.217,184.08L252.493,162.077L123.819,206.082Z" style="fill:rgb(156,161,164);"/>
                    </g>
                    <g transform="matrix(2.04578,-1.10671e-16,-3.40691e-16,2.04578,7500.94,-158.091)">
                        <path d="M2896.96,433.197L3081.45,522.081" style="fill:none;stroke:white;stroke-width:41.67px;"/>
                    </g>
                    <g transform="matrix(-5.89667,-0.965395,-0.270909,5.15031,14716.5,317.017)">
                        <path d="M300.686,60.191L234.634,85.941C234.634,85.941 221.441,114.376 233.022,145.422C244.973,177.462 263.938,187.131 264.903,187.348C265.869,187.566 332.884,169.381 332.884,169.381L300.686,60.191Z" style="fill:rgb(38,38,38);"/>
                    </g>
                    <g transform="matrix(-5.89667,-0.965395,-0.270909,5.15031,14688.5,301.451)">
                        <path d="M302.382,59.27C302.382,59.27 251.457,79.318 237.911,84.651C235.723,85.512 234.001,87.357 233.099,89.805C230.019,98.612 223.996,121.224 233.022,145.422C242.31,170.322 255.897,182.13 262.177,186.268C263.977,187.454 264.973,188.007 266.718,187.824C276.362,185.378 338.851,168.987 338.851,168.987L302.382,59.27Z" style="fill:url(#_Linear6);"/>
                    </g>
                    <g transform="matrix(-6.4344,-2.96317,-2.62806,5.69913,15184.3,835.487)">
                        <ellipse cx="324.869" cy="124.092" rx="21.046" ry="46.502" style="fill:rgb(209,216,219);"/>
                    </g>
                    <g transform="matrix(-4.71109,-2.16955,-1.92419,4.17275,14545.5,769.05)">
                        <ellipse cx="324.869" cy="124.092" rx="21.046" ry="46.502" style="fill:rgb(32,36,38);"/>
                    </g>
                    <g transform="matrix(1.69989,0.150446,0.0673442,1.50266,10842.8,-1080.89)">
                        <path d="M1178.04,941.448C1178.04,941.448 1136.95,924.681 1097.67,1011.48C1059.92,1094.91 1091.83,1114.7 1093.59,1113.4C1111.89,1099.98 1167.61,1030.64 1178.04,941.448Z" style="fill:white;"/>
                    </g>
                    <g transform="matrix(2.04578,0,0,2.04578,5217.46,-1558.17)">
                        <path d="M3761.47,1094.21C3755.21,1091.24 3747.72,1093.63 3744.33,1099.67C3735.84,1114.12 3718.14,1140.28 3692.33,1160.59C3692.34,1160.58 3838.31,1222.78 3870.16,1236.35C3874.22,1238.08 3878.88,1237.62 3882.52,1235.12C3890.89,1229.22 3906.95,1215.53 3926.04,1187.1C3927.92,1184.32 3928.59,1180.9 3927.91,1177.61C3927.22,1174.32 3925.23,1171.45 3922.39,1169.66C3889.47,1154.04 3794.15,1109.48 3761.47,1094.21Z" style="fill:rgb(45,51,58);"/>
                    </g>
                    <g transform="matrix(1.73161,0,0,8.13619,6480.44,-20927)">
                        <path d="M4022.63,2842.51C4016.79,2842.11 4007.37,2840.95 4007.37,2839.58L4007.37,2765.4L4075.41,2765.4L4075.36,2839.53C4075.2,2841.04 4066,2842.27 4060.41,2842.53L4060.41,2879.04L4022.63,2879.04L4022.63,2842.51Z" style="fill:rgb(155,181,195);"/>
                    </g>
                    <g transform="matrix(4.57766,0,0,4.57766,-64597.9,-11256.2)">
                        <path d="M16996.4,2802.43L16947.9,2901.75C16947.9,2901.75 16946.2,2903.83 16947.9,2910.2C16947.6,2910.9 16901.7,3004.43 16901.7,3004.43L16916.9,3004.43L16960.1,2916.98C16960.1,2916.98 16965.4,2915.25 16966.7,2912.33C16967.3,2910.95 17020.5,2802.45 17020.5,2802.45L16996.4,2802.43Z" style="fill:rgb(158,181,195);"/>
                    </g>
                    <g transform="matrix(2.09503,0,0,2.04578,5019.52,-1558.17)">
                        <path d="M4045.21,1457.62L4045.21,1530.69L3889.56,1530.69C3884.55,1530.69 3880.49,1526.53 3880.49,1521.4L3880.49,1502.81C3880.49,1497.68 3884.55,1493.51 3889.56,1493.51L3989.67,1493.51L3989.67,1457.62L4045.21,1457.62Z" style="fill:rgb(155,181,195);"/>
                    </g>
                    <g transform="matrix(2.09503,0,0,2.04578,5019.52,-1558.17)">
                        <path d="M3989.67,1448.34L3989.67,1448.29C3969.12,1448.26 3963.62,1448.23 3963.04,1448.23L3971.68,1406.62C3971.68,1399.14 3977.61,1393.06 3984.92,1393.06L4032.1,1393.06L4032.1,1448.34L3989.67,1448.34Z" style="fill:rgb(158,181,195);"/>
                    </g>
                    <g transform="matrix(2.04729,0,0,2.04711,11544.9,-1477.48)">
                        <path d="M811.016,1490.29L865.063,1490.35L845.409,1530.34C845.409,1530.34 842.141,1503.09 807.866,1496.9C808.106,1496.31 811.016,1490.29 811.016,1490.29Z" style="fill:rgb(86,122,142);"/>
                    </g>
                    <g transform="matrix(-6.06772,0,0,6.06772,14657.8,-92.8091)">
                        <path d="M198.704,228.221L209.175,228.221L209.175,213.454C210.802,212.216 212.47,210.329 213.846,208.24C216.212,204.647 215.192,197.469 215.129,196.945C206.095,196.905 203.429,194.985 200.887,192.615C198.345,190.244 196.027,187.771 188.987,187.658C182.111,187.171 177.746,190.099 175.216,192.817C174.973,193.026 174.746,193.231 174.537,193.428C172.355,195.478 171.099,198.429 171.19,202.803C171.306,208.352 173.824,211.753 176.603,213.779C177.421,214.413 178.308,214.928 179.24,215.308C179.427,215.392 179.613,215.472 179.795,215.546L179.885,227.202L179.898,228.182L176.602,228.182C174.069,228.182 172.012,230.23 172.012,232.753L168.85,246.856C169.051,246.856 170.898,246.848 177.945,246.838L177.945,246.84L177.742,246.84L177.594,262.023L177.945,262.027L177.945,262.048L143.403,262.048C141.666,262.048 140.256,263.453 140.256,265.182L140.256,271.451C140.256,273.18 141.666,274.585 143.403,274.585L150.815,274.593L114.156,349.66C114.156,349.66 112.801,351.241 114.197,356.036C113.934,356.561 79.469,426.826 79.469,426.826L90.923,426.824L123.356,361.144C123.356,361.144 127.362,359.837 128.355,357.633C128.81,356.622 167.03,278.668 169.021,274.613L184.468,274.629C184.468,274.629 184.491,288.3 184.532,288.294C184.517,315.663 184.49,374.41 184.541,374.913C184.828,376.825 188.896,377.947 188.896,377.947C188.896,377.947 190.06,378.221 191.906,378.252C191.99,326.131 192.098,300.709 192.184,287.641C195.37,287.488 199.435,287.417 204.175,287.599C204.094,287.401 204.104,274.599 204.104,274.599L198.704,274.606L198.704,263.121L198.704,260.603C199.758,250.873 210.916,250.135 210.916,250.135L210.923,246.788L198.704,246.807L198.704,228.221Z" style="fill:rgb(86,122,142);"/>
                    </g>
                    <g transform="matrix(2.04578,0,0,2.04578,3071.49,-4511.86)">
                        <path d="M5144.2,2732.48C5133.84,2723.42 5112.68,2711.12 5085.23,2728.91C5056.24,2747.69 5067.78,2781.92 5069.74,2785.66C5071.48,2788.99 5075.99,2796.46 5083.53,2799.24C5067.92,2798.58 5053.17,2797.91 5052.97,2797.73C5045.85,2797.35 5036.27,2788.47 5029.25,2777.82C5022.24,2767.16 5025.26,2745.87 5025.45,2744.31C5052.24,2744.2 5060.15,2738.5 5067.69,2731.47C5075.23,2724.44 5082.1,2717.1 5102.98,2716.77C5123.72,2715.3 5136.76,2724.3 5144.2,2732.48Z" style="fill:rgb(54,80,97);"/>
                    </g>
                    <g transform="matrix(2.04578,0,0,2.04578,11545.5,-1475.68)">
                        <path d="M988.067,1315.29L987.799,1352.74L953.098,1352.66L953.098,1316.59C961.188,1317.29 972.38,1318.23 976.391,1318.18C978.414,1318.16 982.895,1317.41 988.067,1315.29Z" style="fill:rgb(54,80,97);"/>
                    </g>
                    <g transform="matrix(2.5021,0.599495,-0.640863,2.67476,5507.62,-8763.39)">
                        <ellipse cx="3937.37" cy="2822.13" rx="25.282" ry="26.635" style="fill:rgb(54,80,97);"/>
                    </g>
                </g>
                <g transform="matrix(2.238,0,0,2.238,7367.63,-22304.1)">
                    <g id="Radio-Astronomy" serif:id="Radio Astronomy">
                        <g>
                            <g transform="matrix(0.638891,0,0,0.638891,857.012,3609.16)">
                                <g transform="matrix(1.85879,0,0,1.85879,-4613.1,-8438.65)">
                                    <g transform="matrix(1,0,0,0.783032,16.7622,2228.58)">
                                        <path d="M3789.64,10379.3L3718.64,10545.3L3693.43,10545.3L3764.43,10379.3L3789.64,10379.3Z" style="fill:rgb(86,122,142);"/>
                                    </g>
                                    <g transform="matrix(1,0,0,1,-1.48584,-56.3982)">
                                        <path d="M3781.58,10380.6L3781.58,10434.9C3781.58,10437.5 3783.7,10439.7 3786.32,10439.7C3805.19,10439.7 3873.93,10439.7 3873.93,10439.7L3872.69,10425.5L3781.58,10380.6Z" style="fill:rgb(56,81,96);"/>
                                    </g>
                                    <g transform="matrix(0.739389,0,0,0.739389,-5700.45,-385.31)">
                                        <path d="M12827.8,14493.5C12827.8,14493.5 12879.8,14540.2 12944,14563.8" style="fill:none;stroke:rgb(31,48,64);stroke-width:12.5px;"/>
                                    </g>
                                    <g transform="matrix(0.786314,0,0,0.609962,814.504,4029.5)">
                                        <path d="M3841.09,10416.6L3850.27,10572.3L3823.73,10569.1L3814.83,10416.6L3841.09,10416.6Z" style="fill:rgb(86,122,142);"/>
                                    </g>
                                    <g transform="matrix(0.852178,0,0,1,572.477,-56.5623)">
                                        <path d="M3875.08,10439.6L3924.37,10541.7L3900.26,10541.7L3850.97,10439.6L3875.08,10439.6Z" style="fill:rgb(56,81,96);"/>
                                    </g>
                                    <g transform="matrix(0.275212,-0.806514,1.70719,0.582555,-15193.6,7541.85)">
                                        <path d="M3875.08,10439.6L3933.31,10505.8L3967.22,10569.7L3956.56,10574L3859.49,10439.3L3875.08,10439.6Z" style="fill:rgb(31,48,64);"/>
                                    </g>
                                    <g transform="matrix(1,0,0,1,-1.48584,-57.9514)">
                                        <path d="M3823.16,10532.8L3825.7,10552.6L3949.59,10563.4L3944.24,10544.9L3823.16,10532.8Z" style="fill:rgb(86,122,142);"/>
                                    </g>
                                    <g transform="matrix(1,0,0,1,-1.48584,-57.9514)">
                                        <path d="M3826.48,10561.3L3833.7,10610.6L3972.9,10611.1L3948.83,10569.2L3826.48,10561.3Z" style="fill:rgb(86,122,142);"/>
                                    </g>
                                    <g transform="matrix(1,0,0,1,-1.48584,-57.9514)">
                                        <path d="M3825.79,10552.6L3823.13,10532.6L3698.23,10544.8L3690.79,10561.3L3825.79,10552.6Z" style="fill:rgb(158,181,195);"/>
                                    </g>
                                    <g transform="matrix(1,0,0,1,-1.48584,-57.9514)">
                                        <path d="M3692.18,10568.3L3674.66,10610.1L3833.96,10610.4L3827.23,10561L3692.18,10568.3Z" style="fill:rgb(158,181,195);"/>
                                    </g>
                                </g>
                                <g>
                                    <g transform="matrix(1.85879,0,0,1.85879,-4610.71,-8540.06)">
                                        <path d="M3761.18,10321.6C3761.18,10321.6 3820.09,10376.2 3885.93,10407.8C3881.37,10414.9 3873.29,10438.5 3873.29,10438.5C3873.29,10438.5 3858.47,10432.6 3838.35,10422.2C3825.97,10415.7 3811.58,10407.5 3797.41,10397.9C3760.62,10372.8 3738.27,10350.9 3738.27,10350.9L3761.18,10321.6Z" style="fill:rgb(86,122,142);"/>
                                    </g>
                                    <g>
                                        <g transform="matrix(1,0,0,1,28.8698,0)">
                                            <g transform="matrix(0.978165,0.692647,-0.493701,0.697211,6892.45,2584.23)">
                                                <ellipse cx="894.578" cy="10416.1" rx="392.416" ry="246.635" style="fill:rgb(232,229,228);"/>
                                                <path d="M894.578,10145.1C1028.29,10145.1 1146.8,10186.7 1220.3,10249.7C1274.18,10295.9 1304.38,10354.5 1304.38,10416.1C1304.38,10477.7 1274.18,10536.4 1220.3,10582.6C1146.8,10645.6 1028.29,10687.2 894.578,10687.2C760.867,10687.2 642.355,10645.6 568.854,10582.6C514.97,10536.4 484.779,10477.7 484.779,10416.1C484.779,10354.5 514.97,10295.9 568.854,10249.7C642.355,10186.7 760.867,10145.1 894.578,10145.1ZM894.578,10169.5C677.997,10169.5 502.161,10280 502.161,10416.1C502.161,10552.3 677.997,10662.8 894.578,10662.8C1111.16,10662.8 1286.99,10552.3 1286.99,10416.1C1286.99,10280 1111.16,10169.5 894.578,10169.5Z" style="fill:rgb(86,122,142);"/>
                                            </g>
                                            <g transform="matrix(1,0,0,1,1760.37,2.9969)">
                                                <path d="M864.67,10216.7C864.67,10216.7 930.101,10468.5 824.766,10530.9C761.428,10568.4 582.288,10487.1 557.797,10464.3C556.753,10460.2 418.056,10294.4 479.649,10198C536.222,10109.4 712.46,10133.9 864.67,10216.7Z" style="fill:rgb(204,204,204);"/>
                                            </g>
                                            <g transform="matrix(1,0,0,1,565.329,0)">
                                                <g transform="matrix(0.165623,0.128625,-0.0895637,0.115326,2801.78,9220.98)">
                                                    <path d="M865.607,10503C912.324,10503 952.513,10521.8 972.647,10546.5C985.922,10562.7 992.24,10582.1 992.24,10601.6C992.24,10621.2 985.922,10640.5 972.647,10656.8C952.513,10681.4 912.324,10700.2 865.607,10700.2C818.89,10700.2 778.702,10681.4 758.567,10656.8C745.292,10640.5 738.974,10621.2 738.974,10601.6C738.974,10582.1 745.292,10562.7 758.567,10546.5C778.702,10521.8 818.89,10503 865.607,10503ZM865.607,10535.7C808.268,10535.7 761.715,10565.2 761.715,10601.6C761.715,10638 808.268,10667.6 865.607,10667.6C922.947,10667.6 969.499,10638 969.499,10601.6C969.499,10565.2 922.947,10535.7 865.607,10535.7Z" style="fill:rgb(194,194,194);"/>
                                                </g>
                                                <g transform="matrix(1,0,0,1,1212.64,0.163212)">
                                                    <path d="M944.847,10290C944.833,10290.3 944.892,10290.3 944.754,10290.5C942.279,10294.2 908.433,10352.2 883.867,10393.5C869.137,10418.3 852.836,10446.1 792.872,10540.4C792.698,10540.6 792.603,10540.4 792.289,10540.5C792.31,10540.3 792.126,10540.1 792.147,10539.9C792.148,10539.9 820.673,10490.4 841.875,10454.7C860.155,10423.9 873.669,10401.8 907.477,10348.1C919.97,10328.2 944.17,10290.1 944.484,10290C944.605,10290 944.727,10290.1 944.847,10290Z" style="fill:rgb(194,194,194);"/>
                                                </g>
                                                <g transform="matrix(1,0,0,1,1212.64,0.163212)">
                                                    <path d="M801.854,10550C801.854,10550 826.942,10547.4 870.393,10519.4C913.844,10491.5 1018.84,10395.6 1040.11,10368.2" style="fill:none;stroke:rgb(194,194,194);stroke-width:4.17px;"/>
                                                </g>
                                                <g transform="matrix(1,0,0,1,1212.64,0.163212)">
                                                    <path d="M803.902,10558.6C803.902,10558.6 826.29,10572.7 898.222,10562.2C970.153,10551.6 1107.9,10482.7 1131.56,10469.8" style="fill:none;stroke:rgb(194,194,194);stroke-width:4.17px;"/>
                                                </g>
                                                <g transform="matrix(1,0,0,1,1212.64,0.163212)">
                                                    <path d="M804.372,10563.7C804.372,10563.7 901.118,10629.3 1098.84,10613" style="fill:none;stroke:rgb(194,194,194);stroke-width:4.17px;"/>
                                                </g>
                                                <g transform="matrix(1,0,0,1,1212.64,0.163212)">
                                                    <path d="M803.607,10567.8C803.607,10567.8 876.496,10632.9 1018.73,10682.6" style="fill:none;stroke:rgb(194,194,194);stroke-width:4.17px;"/>
                                                </g>
                                                <g transform="matrix(1,0,0,1,1212.64,0.163212)">
                                                    <path d="M798.341,10572.8C798.341,10572.8 879.204,10683.6 1033.57,10722.5" style="fill:none;stroke:rgb(194,194,194);stroke-width:4.17px;"/>
                                                </g>
                                                <g transform="matrix(1,0,0,1,1212.64,0.163212)">
                                                    <path d="M790.588,10572.8C790.588,10572.8 868.886,10695.8 984.812,10749.6" style="fill:none;stroke:rgb(194,194,194);stroke-width:4.17px;"/>
                                                </g>
                                                <g transform="matrix(1,0,0,1,1212.64,0.163212)">
                                                    <path d="M782.997,10568.8C782.997,10568.8 783.27,10634.8 824.746,10680.9" style="fill:none;stroke:rgb(194,194,194);stroke-width:4.17px;"/>
                                                </g>
                                                <g transform="matrix(1,0,0,1,1212.64,0.163212)">
                                                    <path d="M776.367,10565.3C776.367,10565.3 761.708,10607.3 736.709,10622.8" style="fill:none;stroke:rgb(194,194,194);stroke-width:4.17px;"/>
                                                </g>
                                                <g transform="matrix(1,0,0,1,1212.64,0.163212)">
                                                    <path d="M768.869,10557.9C768.869,10557.9 720.826,10586.1 674.068,10574.2" style="fill:none;stroke:rgb(194,194,194);stroke-width:4.17px;"/>
                                                </g>
                                                <g transform="matrix(1,0,0,1,1212.64,0.163212)">
                                                    <path d="M764.85,10551.6C764.85,10551.6 627.523,10523.3 564.191,10460.8" style="fill:none;stroke:rgb(194,194,194);stroke-width:4.17px;"/>
                                                </g>
                                                <g transform="matrix(1,0,0,1,1212.64,0.163212)">
                                                    <path d="M762.981,10546.2C762.981,10546.2 570.269,10462.6 479.76,10319.4" style="fill:none;stroke:rgb(194,194,194);stroke-width:4.17px;"/>
                                                </g>
                                                <g transform="matrix(1,0,0,1,1212.64,0.163212)">
                                                    <path d="M763.14,10540.2C763.14,10540.2 537.39,10359.6 497.321,10173.2" style="fill:none;stroke:rgb(194,194,194);stroke-width:4.17px;"/>
                                                </g>
                                                <g transform="matrix(1,0,0,1,1212.64,0.163212)">
                                                    <path d="M768.553,10537.5C768.553,10537.5 640.179,10402.5 594.941,10143.4" style="fill:none;stroke:rgb(194,194,194);stroke-width:4.17px;"/>
                                                </g>
                                                <g transform="matrix(1,0,0,1,1212.64,0.163212)">
                                                    <path d="M774.762,10536.9C774.762,10536.9 691.479,10411.3 708.896,10164.3" style="fill:none;stroke:rgb(194,194,194);stroke-width:4.17px;"/>
                                                </g>
                                                <g transform="matrix(1,0,0,1,1212.64,0.163212)">
                                                    <path d="M781.833,10539.9C781.833,10539.9 759.102,10413.2 828.097,10214.9" style="fill:none;stroke:rgb(194,194,194);stroke-width:4.17px;"/>
                                                </g>
                                            </g>
                                            <g transform="matrix(1,0,0,1.16075,-1353.34,-1709.2)">
                                                <ellipse cx="3775.46" cy="10502.9" rx="13.863" ry="7.27" style="fill:rgb(56,81,96);"/>
                                            </g>
                                            <g transform="matrix(1,0,0,1,-1349.55,-19.8368)">
                                                <path d="M3777.66,10498.1L4087.87,10243.2" style="fill:none;stroke:rgb(56,81,96);stroke-width:8.33px;"/>
                                            </g>
                                            <g transform="matrix(1,0,0,1,-1349.55,-19.8368)">
                                                <path d="M3868.69,10348.3L4077.84,10210.7" style="fill:none;stroke:rgb(56,81,96);stroke-width:8.33px;"/>
                                            </g>
                                            <g transform="matrix(1,0,0,1,-1349.55,-19.8368)">
                                                <path d="M4126.81,10269.1L4066.55,10705" style="fill:none;stroke:rgb(56,81,96);stroke-width:8.33px;"/>
                                            </g>
                                            <g transform="matrix(1,0,0,1,-1349.55,-19.8368)">
                                                <path d="M4150.49,10271.7L4118.96,10537.9" style="fill:none;stroke:rgb(56,81,96);stroke-width:8.33px;"/>
                                            </g>
                                            <g transform="matrix(1,0,0,1,-1349.55,-19.8368)">
                                                <path d="M4072.18,10197.1C4072.18,10197.1 4073.6,10237.6 4094.49,10254.7C4115.86,10272.1 4143.52,10273 4160.23,10274.6C4160.54,10271.8 4167.43,10210.5 4167.43,10210.5C4167.43,10210.5 4148.94,10201.8 4138.22,10191.5C4127.5,10181.2 4122.47,10173.7 4122.47,10173.7L4072.18,10197.1Z" style="fill:rgb(158,181,195);"/>
                                            </g>
                                            <g transform="matrix(1,0,0,1.53606,-1261.35,-5802.74)">
                                                <ellipse cx="3775.46" cy="10502.9" rx="13.863" ry="7.27" style="fill:rgb(56,81,96);"/>
                                            </g>
                                            <g transform="matrix(1,0,0,1.53606,-1005.69,-5606.99)">
                                                <ellipse cx="3775.46" cy="10502.9" rx="13.863" ry="7.27" style="fill:rgb(56,81,96);"/>
                                            </g>
                                            <g transform="matrix(1,0,0,1.19986,-1058.37,-1914.22)">
                                                <ellipse cx="3775.46" cy="10502.9" rx="13.863" ry="7.27" style="fill:rgb(56,81,96);"/>
                                            </g>
                                            <g transform="matrix(1.12351,0.923005,-0.634791,0.772684,4586.65,-1536.27)">
                                                <ellipse cx="4160.54" cy="10170" rx="28.46" ry="21.303" style="fill:rgb(158,181,195);"/>
                                            </g>
                                            <g transform="matrix(1.05624,0,0,1.05214,-1608.43,-533.144)">
                                                <path d="M3609.88,10228.1C3609.88,10228.1 3583,10411.2 3857.75,10615.3C4131.55,10816.6 4293.91,10774.1 4293.91,10774.1C4293.91,10774.1 4017.7,10884.7 3778.26,10665.2C3538.83,10445.6 3610.78,10230.1 3609.88,10228.1Z" style="fill:url(#_Linear7);"/>
                                            </g>
                                        </g>
                                        <g transform="matrix(1.37437,0,0,1.37437,-3174.24,-3808.93)">
                                            <path d="M4143.32,10522.7C4143.32,10522.7 4320.77,10641.1 4407.47,10645.8C4423.11,10643.2 4474.03,10630.1 4474.03,10630.1C4474.03,10630.1 4325.97,10621.1 4143.32,10522.7Z" style="fill:rgb(86,122,142);"/>
                                        </g>
                                    </g>
                                </g>
                            </g>
                            <g transform="matrix(0.878071,0,0,0.878071,-8859.9,-2239.8)">
                                <path d="M12733.4,14286.9C12733.4,14286.9 12766.9,14360.4 12801.6,14385C12836.4,14409.6 12851.5,14412 12794.6,14353.5C12737.7,14295.1 12733.4,14286.9 12733.4,14286.9Z" style="fill:rgb(209,216,219);"/>
                            </g>
                        </g>
                    </g>
                </g>
            </g>
        </g>
    </g>
    <defs>
        <linearGradient id="_Linear2" x1="0" y1="0" x2="1" y2="0" gradientUnits="userSpaceOnUse" gradientTransform="matrix(-24.5512,-75.8176,-63.1326,20.2633,248.063,176.864)"><stop offset="0" style="stop-color:rgb(81,87,89);stop-opacity:1"/><stop offset="1" style="stop-color:rgb(162,165,170);stop-opacity:1"/></linearGradient>
        <linearGradient id="_Linear3" x1="0" y1="0" x2="1" y2="0" gradientUnits="userSpaceOnUse" gradientTransform="matrix(-24.2539,-76.3269,-63.6077,19.8606,164.231,206.866)"><stop offset="0" style="stop-color:rgb(154,160,162);stop-opacity:1"/><stop offset="0.56" style="stop-color:rgb(207,212,213);stop-opacity:1"/><stop offset="1" style="stop-color:rgb(230,234,235);stop-opacity:1"/></linearGradient>
        <linearGradient id="_Linear4" x1="0" y1="0" x2="1" y2="0" gradientUnits="userSpaceOnUse" gradientTransform="matrix(-19.7971,-58.8127,-48.8899,16.5955,119.527,215.187)"><stop offset="0" style="stop-color:rgb(81,87,89);stop-opacity:1"/><stop offset="1" style="stop-color:rgb(162,165,170);stop-opacity:1"/></linearGradient>
        <linearGradient id="_Linear5" x1="0" y1="0" x2="1" y2="0" gradientUnits="userSpaceOnUse" gradientTransform="matrix(-24.2539,-76.3269,-63.6077,19.8606,164.231,206.866)"><stop offset="0" style="stop-color:rgb(154,160,162);stop-opacity:1"/><stop offset="0.56" style="stop-color:rgb(207,212,213);stop-opacity:1"/><stop offset="1" style="stop-color:rgb(230,234,235);stop-opacity:1"/></linearGradient>
        <linearGradient id="_Linear6" x1="0" y1="0" x2="1" y2="0" gradientUnits="userSpaceOnUse" gradientTransform="matrix(-29.4826,-92.5296,-77.1014,24.17,289.286,177.588)"><stop offset="0" style="stop-color:rgb(81,87,89);stop-opacity:1"/><stop offset="1" style="stop-color:rgb(162,165,170);stop-opacity:1"/></linearGradient>
        <linearGradient id="_Linear7" x1="0" y1="0" x2="1" y2="0" gradientUnits="userSpaceOnUse" gradientTransform="matrix(22.3198,-35.762,35.6234,22.4067,3874.43,10668.2)"><stop offset="0" style="stop-color:rgb(158,181,195);stop-opacity:1"/><stop offset="1" style="stop-color:rgb(117,148,162);stop-opacity:1"/></linearGradient>
    </defs>
</svg>
