<?xml version="1.0" encoding="UTF-8" standalone="no"?>
<!DOCTYPE svg PUBLIC "-//W3C//DTD SVG 1.1//EN" "http://www.w3.org/Graphics/SVG/1.1/DTD/svg11.dtd">
<svg width="100%" height="100%" viewBox="0 0 1276 576" version="1.1" xmlns="http://www.w3.org/2000/svg" xmlns:xlink="http://www.w3.org/1999/xlink" xml:space="preserve" xmlns:serif="http://www.serif.com/" style="fill-rule:evenodd;clip-rule:evenodd;stroke-linejoin:round;stroke-miterlimit:2;">
    <g transform="matrix(1,0,0,1,-2,0)">
        <g id="Colors" transform="matrix(1,0,0,1,-0.255408,1055.7)">
            <rect x="2.255" y="-1055.7" width="1275.16" height="575.285" style="fill:none;"/>
            <clipPath id="_clip1">
                <rect x="2.255" y="-1055.7" width="1275.16" height="575.285"/>
            </clipPath>
            <g clip-path="url(#_clip1)">
                <g transform="matrix(1.66768,0,0,1.6524,-18.2513,688.693)">
                    <rect x="11.243" y="-1055.17" width="347.393" height="347.393" style="fill:rgb(23,23,23);"/>
                </g>
                <g transform="matrix(1.67259,0,0,1.6524,678.175,688.693)">
                    <rect x="11.243" y="-1055.17" width="347.393" height="347.393" style="fill:rgb(37,37,37);"/>
                </g>
                <g transform="matrix(0.333756,0,0,0.333756,518.389,-715.774)">
                    <g transform="matrix(378.835,0,0,378.835,-1467.42,-644.518)">
                        <path d="M0.142,-0L0.181,-0.182L0.037,-0.182L0.037,-0.284L0.203,-0.284L0.235,-0.436L0.087,-0.436L0.087,-0.537L0.257,-0.537L0.295,-0.717L0.402,-0.717L0.363,-0.537L0.562,-0.537L0.6,-0.717L0.707,-0.717L0.669,-0.537L0.802,-0.537L0.802,-0.436L0.647,-0.436L0.615,-0.284L0.752,-0.284L0.752,-0.182L0.593,-0.182L0.554,-0L0.446,-0L0.486,-0.182L0.288,-0.182L0.249,-0L0.142,-0ZM0.309,-0.284L0.507,-0.284L0.54,-0.436L0.342,-0.436L0.309,-0.284Z" style="fill:white;fill-rule:nonzero;"/>
                    </g>
                    <g transform="matrix(378.835,0,0,378.835,-1162.58,-644.518)">
                        <path d="M0.082,-0L0.082,-0.096L0.279,-0.096L0.279,-0.573L0.087,-0.526L0.087,-0.611L0.328,-0.7L0.387,-0.7L0.387,-0.096L0.556,-0.096L0.556,-0L0.082,-0Z" style="fill:white;fill-rule:nonzero;"/>
                    </g>
                    <g transform="matrix(378.835,0,0,378.835,-955.483,-644.518)">
                        <path d="M0.144,-0L0.428,-0.603L0.042,-0.603L0.042,-0.7L0.547,-0.7L0.547,-0.618L0.262,-0L0.144,-0Z" style="fill:white;fill-rule:nonzero;"/>
                    </g>
                    <g transform="matrix(378.835,0,0,378.835,-748.386,-644.518)">
                        <path d="M0.082,-0L0.082,-0.096L0.279,-0.096L0.279,-0.573L0.087,-0.526L0.087,-0.611L0.328,-0.7L0.387,-0.7L0.387,-0.096L0.556,-0.096L0.556,-0L0.082,-0Z" style="fill:white;fill-rule:nonzero;"/>
                    </g>
                    <g transform="matrix(378.835,0,0,378.835,-541.289,-644.518)">
                        <path d="M0.144,-0L0.428,-0.603L0.042,-0.603L0.042,-0.7L0.547,-0.7L0.547,-0.618L0.262,-0L0.144,-0Z" style="fill:white;fill-rule:nonzero;"/>
                    </g>
                    <g transform="matrix(378.835,0,0,378.835,-334.193,-644.518)">
                        <path d="M0.082,-0L0.082,-0.096L0.279,-0.096L0.279,-0.573L0.087,-0.526L0.087,-0.611L0.328,-0.7L0.387,-0.7L0.387,-0.096L0.556,-0.096L0.556,-0L0.082,-0Z" style="fill:white;fill-rule:nonzero;"/>
                    </g>
                    <g transform="matrix(378.835,0,0,378.835,-127.096,-644.518)">
                        <path d="M0.144,-0L0.428,-0.603L0.042,-0.603L0.042,-0.7L0.547,-0.7L0.547,-0.618L0.262,-0L0.144,-0Z" style="fill:white;fill-rule:nonzero;"/>
                    </g>
                    <g transform="matrix(378.835,0,0,378.835,95.1542,-644.518)">
                    </g>
                </g>
                <g transform="matrix(0.333756,0,0,0.333756,1214.87,-715.774)">
                    <g transform="matrix(378.835,0,0,378.835,-1467.42,-644.518)">
                        <path d="M0.142,-0L0.181,-0.182L0.037,-0.182L0.037,-0.284L0.203,-0.284L0.235,-0.436L0.087,-0.436L0.087,-0.537L0.257,-0.537L0.295,-0.717L0.402,-0.717L0.363,-0.537L0.562,-0.537L0.6,-0.717L0.707,-0.717L0.669,-0.537L0.802,-0.537L0.802,-0.436L0.647,-0.436L0.615,-0.284L0.752,-0.284L0.752,-0.182L0.593,-0.182L0.554,-0L0.446,-0L0.486,-0.182L0.288,-0.182L0.249,-0L0.142,-0ZM0.309,-0.284L0.507,-0.284L0.54,-0.436L0.342,-0.436L0.309,-0.284Z" style="fill:white;fill-rule:nonzero;"/>
                    </g>
                    <g transform="matrix(378.835,0,0,378.835,-1162.58,-644.518)">
                        <path d="M0.06,-0L0.06,-0.086C0.06,-0.086 0.064,-0.09 0.072,-0.098C0.079,-0.107 0.132,-0.161 0.148,-0.178C0.165,-0.195 0.182,-0.213 0.2,-0.232C0.217,-0.25 0.235,-0.268 0.251,-0.285C0.279,-0.314 0.304,-0.341 0.328,-0.365C0.351,-0.389 0.369,-0.413 0.383,-0.435C0.397,-0.457 0.404,-0.479 0.404,-0.5C0.404,-0.535 0.395,-0.563 0.375,-0.584C0.356,-0.605 0.328,-0.616 0.292,-0.616C0.266,-0.616 0.244,-0.61 0.226,-0.598C0.208,-0.586 0.194,-0.57 0.185,-0.551C0.176,-0.531 0.172,-0.509 0.172,-0.485L0.062,-0.485C0.063,-0.533 0.073,-0.574 0.093,-0.608C0.112,-0.641 0.139,-0.667 0.174,-0.685C0.208,-0.703 0.249,-0.712 0.294,-0.712C0.343,-0.712 0.384,-0.703 0.417,-0.685C0.45,-0.667 0.475,-0.643 0.491,-0.611C0.507,-0.58 0.516,-0.543 0.516,-0.502C0.516,-0.47 0.508,-0.44 0.494,-0.413C0.479,-0.385 0.46,-0.359 0.437,-0.333C0.413,-0.308 0.389,-0.282 0.363,-0.256C0.347,-0.24 0.332,-0.225 0.317,-0.21C0.301,-0.194 0.287,-0.18 0.274,-0.166C0.261,-0.153 0.249,-0.14 0.239,-0.13C0.229,-0.119 0.221,-0.111 0.215,-0.105C0.209,-0.099 0.206,-0.096 0.206,-0.096L0.535,-0.096L0.535,-0L0.06,-0Z" style="fill:white;fill-rule:nonzero;"/>
                    </g>
                    <g transform="matrix(378.835,0,0,378.835,-955.483,-644.518)">
                        <path d="M0.299,0.012C0.252,0.012 0.211,0.004 0.174,-0.013C0.137,-0.03 0.108,-0.054 0.085,-0.085C0.063,-0.116 0.05,-0.152 0.046,-0.194L0.157,-0.194C0.163,-0.162 0.179,-0.136 0.205,-0.116C0.23,-0.095 0.262,-0.085 0.3,-0.085C0.328,-0.085 0.352,-0.091 0.373,-0.105C0.393,-0.119 0.409,-0.137 0.421,-0.16C0.432,-0.184 0.438,-0.21 0.438,-0.239C0.438,-0.284 0.425,-0.32 0.4,-0.347C0.374,-0.374 0.342,-0.388 0.302,-0.388C0.269,-0.388 0.241,-0.38 0.217,-0.365C0.193,-0.349 0.176,-0.329 0.166,-0.305L0.057,-0.305L0.117,-0.7L0.498,-0.7L0.498,-0.601L0.203,-0.601L0.168,-0.422C0.183,-0.439 0.203,-0.453 0.23,-0.464C0.256,-0.475 0.286,-0.481 0.319,-0.481C0.368,-0.481 0.409,-0.47 0.443,-0.448C0.476,-0.426 0.502,-0.397 0.52,-0.361C0.529,-0.342 0.536,-0.323 0.54,-0.303C0.545,-0.283 0.547,-0.262 0.547,-0.24C0.547,-0.191 0.537,-0.148 0.516,-0.111C0.496,-0.073 0.467,-0.043 0.43,-0.021C0.393,0.001 0.349,0.012 0.299,0.012Z" style="fill:white;fill-rule:nonzero;"/>
                    </g>
                    <g transform="matrix(378.835,0,0,378.835,-748.386,-644.518)">
                        <path d="M0.06,-0L0.06,-0.086C0.06,-0.086 0.064,-0.09 0.072,-0.098C0.079,-0.107 0.132,-0.161 0.148,-0.178C0.165,-0.195 0.182,-0.213 0.2,-0.232C0.217,-0.25 0.235,-0.268 0.251,-0.285C0.279,-0.314 0.304,-0.341 0.328,-0.365C0.351,-0.389 0.369,-0.413 0.383,-0.435C0.397,-0.457 0.404,-0.479 0.404,-0.5C0.404,-0.535 0.395,-0.563 0.375,-0.584C0.356,-0.605 0.328,-0.616 0.292,-0.616C0.266,-0.616 0.244,-0.61 0.226,-0.598C0.208,-0.586 0.194,-0.57 0.185,-0.551C0.176,-0.531 0.172,-0.509 0.172,-0.485L0.062,-0.485C0.063,-0.533 0.073,-0.574 0.093,-0.608C0.112,-0.641 0.139,-0.667 0.174,-0.685C0.208,-0.703 0.249,-0.712 0.294,-0.712C0.343,-0.712 0.384,-0.703 0.417,-0.685C0.45,-0.667 0.475,-0.643 0.491,-0.611C0.507,-0.58 0.516,-0.543 0.516,-0.502C0.516,-0.47 0.508,-0.44 0.494,-0.413C0.479,-0.385 0.46,-0.359 0.437,-0.333C0.413,-0.308 0.389,-0.282 0.363,-0.256C0.347,-0.24 0.332,-0.225 0.317,-0.21C0.301,-0.194 0.287,-0.18 0.274,-0.166C0.261,-0.153 0.249,-0.14 0.239,-0.13C0.229,-0.119 0.221,-0.111 0.215,-0.105C0.209,-0.099 0.206,-0.096 0.206,-0.096L0.535,-0.096L0.535,-0L0.06,-0Z" style="fill:white;fill-rule:nonzero;"/>
                    </g>
                    <g transform="matrix(378.835,0,0,378.835,-541.289,-644.518)">
                        <path d="M0.299,0.012C0.252,0.012 0.211,0.004 0.174,-0.013C0.137,-0.03 0.108,-0.054 0.085,-0.085C0.063,-0.116 0.05,-0.152 0.046,-0.194L0.157,-0.194C0.163,-0.162 0.179,-0.136 0.205,-0.116C0.23,-0.095 0.262,-0.085 0.3,-0.085C0.328,-0.085 0.352,-0.091 0.373,-0.105C0.393,-0.119 0.409,-0.137 0.421,-0.16C0.432,-0.184 0.438,-0.21 0.438,-0.239C0.438,-0.284 0.425,-0.32 0.4,-0.347C0.374,-0.374 0.342,-0.388 0.302,-0.388C0.269,-0.388 0.241,-0.38 0.217,-0.365C0.193,-0.349 0.176,-0.329 0.166,-0.305L0.057,-0.305L0.117,-0.7L0.498,-0.7L0.498,-0.601L0.203,-0.601L0.168,-0.422C0.183,-0.439 0.203,-0.453 0.23,-0.464C0.256,-0.475 0.286,-0.481 0.319,-0.481C0.368,-0.481 0.409,-0.47 0.443,-0.448C0.476,-0.426 0.502,-0.397 0.52,-0.361C0.529,-0.342 0.536,-0.323 0.54,-0.303C0.545,-0.283 0.547,-0.262 0.547,-0.24C0.547,-0.191 0.537,-0.148 0.516,-0.111C0.496,-0.073 0.467,-0.043 0.43,-0.021C0.393,0.001 0.349,0.012 0.299,0.012Z" style="fill:white;fill-rule:nonzero;"/>
                    </g>
                    <g transform="matrix(378.835,0,0,378.835,-334.193,-644.518)">
                        <path d="M0.06,-0L0.06,-0.086C0.06,-0.086 0.064,-0.09 0.072,-0.098C0.079,-0.107 0.132,-0.161 0.148,-0.178C0.165,-0.195 0.182,-0.213 0.2,-0.232C0.217,-0.25 0.235,-0.268 0.251,-0.285C0.279,-0.314 0.304,-0.341 0.328,-0.365C0.351,-0.389 0.369,-0.413 0.383,-0.435C0.397,-0.457 0.404,-0.479 0.404,-0.5C0.404,-0.535 0.395,-0.563 0.375,-0.584C0.356,-0.605 0.328,-0.616 0.292,-0.616C0.266,-0.616 0.244,-0.61 0.226,-0.598C0.208,-0.586 0.194,-0.57 0.185,-0.551C0.176,-0.531 0.172,-0.509 0.172,-0.485L0.062,-0.485C0.063,-0.533 0.073,-0.574 0.093,-0.608C0.112,-0.641 0.139,-0.667 0.174,-0.685C0.208,-0.703 0.249,-0.712 0.294,-0.712C0.343,-0.712 0.384,-0.703 0.417,-0.685C0.45,-0.667 0.475,-0.643 0.491,-0.611C0.507,-0.58 0.516,-0.543 0.516,-0.502C0.516,-0.47 0.508,-0.44 0.494,-0.413C0.479,-0.385 0.46,-0.359 0.437,-0.333C0.413,-0.308 0.389,-0.282 0.363,-0.256C0.347,-0.24 0.332,-0.225 0.317,-0.21C0.301,-0.194 0.287,-0.18 0.274,-0.166C0.261,-0.153 0.249,-0.14 0.239,-0.13C0.229,-0.119 0.221,-0.111 0.215,-0.105C0.209,-0.099 0.206,-0.096 0.206,-0.096L0.535,-0.096L0.535,-0L0.06,-0Z" style="fill:white;fill-rule:nonzero;"/>
                    </g>
                    <g transform="matrix(378.835,0,0,378.835,-127.096,-644.518)">
                        <path d="M0.299,0.012C0.252,0.012 0.211,0.004 0.174,-0.013C0.137,-0.03 0.108,-0.054 0.085,-0.085C0.063,-0.116 0.05,-0.152 0.046,-0.194L0.157,-0.194C0.163,-0.162 0.179,-0.136 0.205,-0.116C0.23,-0.095 0.262,-0.085 0.3,-0.085C0.328,-0.085 0.352,-0.091 0.373,-0.105C0.393,-0.119 0.409,-0.137 0.421,-0.16C0.432,-0.184 0.438,-0.21 0.438,-0.239C0.438,-0.284 0.425,-0.32 0.4,-0.347C0.374,-0.374 0.342,-0.388 0.302,-0.388C0.269,-0.388 0.241,-0.38 0.217,-0.365C0.193,-0.349 0.176,-0.329 0.166,-0.305L0.057,-0.305L0.117,-0.7L0.498,-0.7L0.498,-0.601L0.203,-0.601L0.168,-0.422C0.183,-0.439 0.203,-0.453 0.23,-0.464C0.256,-0.475 0.286,-0.481 0.319,-0.481C0.368,-0.481 0.409,-0.47 0.443,-0.448C0.476,-0.426 0.502,-0.397 0.52,-0.361C0.529,-0.342 0.536,-0.323 0.54,-0.303C0.545,-0.283 0.547,-0.262 0.547,-0.24C0.547,-0.191 0.537,-0.148 0.516,-0.111C0.496,-0.073 0.467,-0.043 0.43,-0.021C0.393,0.001 0.349,0.012 0.299,0.012Z" style="fill:white;fill-rule:nonzero;"/>
                    </g>
                    <g transform="matrix(378.835,0,0,378.835,95.1542,-644.518)">
                    </g>
                </g>
            </g>
        </g>
    </g>
</svg>
